<?xml version="1.0" encoding="UTF-8" standalone="no"?>
<!DOCTYPE svg PUBLIC "-//W3C//DTD SVG 1.1//EN"
 "http://www.w3.org/Graphics/SVG/1.1/DTD/svg11.dtd">
<!-- Generated by graphviz version 2.40.1 (20161225.0304)
 -->
<!-- Title: hierarchy Pages: 1 -->
<svg width="324pt" height="277pt"
 viewBox="0.00 0.00 324.00 277.00" xmlns="http://www.w3.org/2000/svg" xmlns:xlink="http://www.w3.org/1999/xlink">
<g id="graph0" class="graph" transform="scale(1 1) rotate(0) translate(0 277)">
<title>hierarchy</title>
<!-- Total -->
<g id="node1" class="node">
<title>Total</title>
<polygon fill="#003891" stroke="#000000" points="36,-135 0,-135 0,-117 36,-117 36,-135"/>
<text text-anchor="middle" x="18" y="-128.04" font-family="Arial" font-size="6.80" fill="#ffffff">Total:</text>
<text text-anchor="middle" x="18" y="-119.88" font-family="Arial" font-size="6.80" fill="#ffffff">88,695</text>
</g>
<!-- Licit0 -->
<g id="node2" class="node">
<title>Licit0</title>
<polygon fill="#738fbc" stroke="#000000" points="103,-204 47,-204 47,-186 103,-186 103,-204"/>
<text text-anchor="middle" x="75" y="-197.04" font-family="Arial" font-size="6.80" fill="#000000">Otros,</text>
<text text-anchor="middle" x="75" y="-188.88" font-family="Arial" font-size="6.80" fill="#000000">sus.prin.: 58,306</text>
</g>
<!-- Total&#45;&gt;Licit0 -->
<g id="edge1" class="edge">
<title>Total&#45;&gt;Licit0</title>
<path fill="none" stroke="#000000" d="M25.4518,-135.0205C36.3154,-148.1713 56.3979,-172.4817 67.3645,-185.757"/>
</g>
<!-- Licit1 -->
<g id="node3" class="node">
<title>Licit1</title>
<polygon fill="#738fbc" stroke="#000000" points="103,-95 47,-95 47,-77 103,-77 103,-95"/>
<text text-anchor="middle" x="75" y="-88.04" font-family="Arial" font-size="6.80" fill="#000000">Alcohol,</text>
<text text-anchor="middle" x="75" y="-79.88" font-family="Arial" font-size="6.80" fill="#000000">sus.prin.: 30,389</text>
</g>
<!-- Total&#45;&gt;Licit1 -->
<g id="edge2" class="edge">
<title>Total&#45;&gt;Licit1</title>
<path fill="none" stroke="#000000" d="M30.9342,-116.9234C40.2626,-110.3771 52.8004,-101.5787 62.117,-95.0407"/>
</g>
<!-- MPai0 -->
<g id="node4" class="node">
<title>MPai0</title>
<polygon fill="#e6e6e6" stroke="#000000" points="155,-264 114,-264 114,-246 155,-246 155,-264"/>
<text text-anchor="middle" x="134.5" y="-257.04" font-family="Arial" font-size="6.80" fill="#000000">m&#45;Amb Int:</text>
<text text-anchor="middle" x="134.5" y="-248.88" font-family="Arial" font-size="6.80" fill="#000000">3,768</text>
</g>
<!-- Licit0&#45;&gt;MPai0 -->
<g id="edge3" class="edge">
<title>Licit0&#45;&gt;MPai0</title>
<path fill="none" stroke="#000000" d="M84.0368,-204.1127C95.2201,-215.39 114.1557,-234.4848 125.3782,-245.8015"/>
</g>
<!-- MPr0 -->
<g id="node5" class="node">
<title>MPr0</title>
<polygon fill="#e6e6e6" stroke="#000000" points="155,-240 114,-240 114,-222 155,-222 155,-240"/>
<text text-anchor="middle" x="134.5" y="-233.04" font-family="Arial" font-size="6.80" fill="#000000">m&#45;Res:</text>
<text text-anchor="middle" x="134.5" y="-224.88" font-family="Arial" font-size="6.80" fill="#000000">2,924</text>
</g>
<!-- Licit0&#45;&gt;MPr0 -->
<g id="edge4" class="edge">
<title>Licit0&#45;&gt;MPr0</title>
<path fill="none" stroke="#000000" d="M90.0144,-204.0843C98.9653,-209.5 110.2971,-216.3562 119.2835,-221.7934"/>
</g>
<!-- PgPab0 -->
<g id="node6" class="node">
<title>PgPab0</title>
<polygon fill="#e6e6e6" stroke="#000000" points="155,-214 114,-214 114,-196 155,-196 155,-214"/>
<text text-anchor="middle" x="134.5" y="-207.04" font-family="Arial" font-size="6.80" fill="#000000">pg&#45;Amb Bas:</text>
<text text-anchor="middle" x="134.5" y="-198.88" font-family="Arial" font-size="6.80" fill="#000000">18,114</text>
</g>
<!-- Licit0&#45;&gt;PgPab0 -->
<g id="edge5" class="edge">
<title>Licit0&#45;&gt;PgPab0</title>
<path fill="none" stroke="#000000" d="M103.0077,-199.7072C106.6247,-200.3151 110.2762,-200.9288 113.7472,-201.5121"/>
</g>
<!-- PgPai0 -->
<g id="node7" class="node">
<title>PgPai0</title>
<polygon fill="#e6e6e6" stroke="#000000" points="155,-191 114,-191 114,-173 155,-173 155,-191"/>
<text text-anchor="middle" x="134.5" y="-184.04" font-family="Arial" font-size="6.80" fill="#000000">pg&#45;Amb Int:</text>
<text text-anchor="middle" x="134.5" y="-175.88" font-family="Arial" font-size="6.80" fill="#000000">25,726</text>
</g>
<!-- Licit0&#45;&gt;PgPai0 -->
<g id="edge6" class="edge">
<title>Licit0&#45;&gt;PgPai0</title>
<path fill="none" stroke="#000000" d="M103.0077,-188.8807C106.6247,-188.0904 110.2762,-187.2926 113.7472,-186.5342"/>
</g>
<!-- PgPr0 -->
<g id="node8" class="node">
<title>PgPr0</title>
<polygon fill="#e6e6e6" stroke="#000000" points="155,-167 114,-167 114,-149 155,-149 155,-167"/>
<text text-anchor="middle" x="134.5" y="-160.04" font-family="Arial" font-size="6.80" fill="#000000">pg&#45;Res:</text>
<text text-anchor="middle" x="134.5" y="-151.88" font-family="Arial" font-size="6.80" fill="#000000">7,774</text>
</g>
<!-- Licit0&#45;&gt;PgPr0 -->
<g id="edge7" class="edge">
<title>Licit0&#45;&gt;PgPr0</title>
<path fill="none" stroke="#000000" d="M89.7079,-185.8539C98.9307,-180.1188 110.7708,-172.756 119.9613,-167.0409"/>
</g>
<!-- MPai1 -->
<g id="node9" class="node">
<title>MPai1</title>
<polygon fill="#e6e6e6" stroke="#000000" points="155,-130 114,-130 114,-112 155,-112 155,-130"/>
<text text-anchor="middle" x="134.5" y="-123.04" font-family="Arial" font-size="6.80" fill="#000000">m&#45;Amb Int:</text>
<text text-anchor="middle" x="134.5" y="-114.88" font-family="Arial" font-size="6.80" fill="#000000">1,502</text>
</g>
<!-- Licit1&#45;&gt;MPai1 -->
<g id="edge8" class="edge">
<title>Licit1&#45;&gt;MPai1</title>
<path fill="none" stroke="#000000" d="M90.3227,-95.0134C99.1374,-100.1985 110.1818,-106.6952 119.0224,-111.8955"/>
</g>
<!-- MPr1 -->
<g id="node10" class="node">
<title>MPr1</title>
<polygon fill="#e6e6e6" stroke="#000000" points="155,-105 114,-105 114,-87 155,-87 155,-105"/>
<text text-anchor="middle" x="134.5" y="-98.04" font-family="Arial" font-size="6.80" fill="#000000">m&#45;Res:</text>
<text text-anchor="middle" x="134.5" y="-89.88" font-family="Arial" font-size="6.80" fill="#000000">624</text>
</g>
<!-- Licit1&#45;&gt;MPr1 -->
<g id="edge9" class="edge">
<title>Licit1&#45;&gt;MPr1</title>
<path fill="none" stroke="#000000" d="M103.0077,-90.7072C106.6247,-91.3151 110.2762,-91.9288 113.7472,-92.5121"/>
</g>
<!-- PgPab1 -->
<g id="node11" class="node">
<title>PgPab1</title>
<polygon fill="#e6e6e6" stroke="#000000" points="155,-81 114,-81 114,-63 155,-63 155,-81"/>
<text text-anchor="middle" x="134.5" y="-74.04" font-family="Arial" font-size="6.80" fill="#000000">pg&#45;Amb Bas:</text>
<text text-anchor="middle" x="134.5" y="-65.88" font-family="Arial" font-size="6.80" fill="#000000">14,418</text>
</g>
<!-- Licit1&#45;&gt;PgPab1 -->
<g id="edge10" class="edge">
<title>Licit1&#45;&gt;PgPab1</title>
<path fill="none" stroke="#000000" d="M103.0077,-79.4099C106.6247,-78.5589 110.2762,-77.6997 113.7472,-76.883"/>
</g>
<!-- PgPai1 -->
<g id="node12" class="node">
<title>PgPai1</title>
<polygon fill="#e6e6e6" stroke="#000000" points="155,-55 114,-55 114,-37 155,-37 155,-55"/>
<text text-anchor="middle" x="134.5" y="-48.04" font-family="Arial" font-size="6.80" fill="#000000">pg&#45;Amb Int:</text>
<text text-anchor="middle" x="134.5" y="-39.88" font-family="Arial" font-size="6.80" fill="#000000">11,885</text>
</g>
<!-- Licit1&#45;&gt;PgPai1 -->
<g id="edge11" class="edge">
<title>Licit1&#45;&gt;PgPai1</title>
<path fill="none" stroke="#000000" d="M88.5015,-76.9234C98.239,-70.3771 111.3267,-61.5787 121.052,-55.0407"/>
</g>
<!-- PgPr1 -->
<g id="node13" class="node">
<title>PgPr1</title>
<polygon fill="#e6e6e6" stroke="#000000" points="155,-31 114,-31 114,-13 155,-13 155,-31"/>
<text text-anchor="middle" x="134.5" y="-24.04" font-family="Arial" font-size="6.80" fill="#000000">pg&#45;Res:</text>
<text text-anchor="middle" x="134.5" y="-15.88" font-family="Arial" font-size="6.80" fill="#000000">1,960</text>
</g>
<!-- Licit1&#45;&gt;PgPr1 -->
<g id="edge12" class="edge">
<title>Licit1&#45;&gt;PgPr1</title>
<path fill="none" stroke="#000000" d="M83.5249,-76.8304C94.8358,-64.664 114.6879,-43.3105 125.9909,-31.1526"/>
</g>
<!-- MPai0_R1D0 -->
<g id="node14" class="node">
<title>MPai0_R1D0</title>
<polygon fill="#2f5a34" stroke="#000000" points="226,-277 166,-277 166,-267 226,-267 226,-277"/>
<text text-anchor="middle" x="196" y="-269.96" font-family="Arial" font-size="6.80" fill="#ffffff">Readmitido/a: 956</text>
</g>
<!-- MPai0&#45;&gt;MPai0_R1D0 -->
<g id="edge13" class="edge">
<title>MPai0&#45;&gt;MPai0_R1D0</title>
<path fill="none" stroke="#000000" d="M155.3211,-260.7554C162.5693,-262.759 170.6419,-264.9904 177.6729,-266.934"/>
</g>
<!-- MPai0_R1D1 -->
<g id="node24" class="node">
<title>MPai0_R1D1</title>
<polygon fill="#660600" stroke="#000000" points="273,-268 237,-268 237,-258 273,-258 273,-268"/>
<text text-anchor="middle" x="255" y="-260.96" font-family="Arial" font-size="6.80" fill="#ffffff">Ambas: 14</text>
</g>
<!-- MPai0&#45;&gt;MPai0_R1D1 -->
<g id="edge14" class="edge">
<title>MPai0&#45;&gt;MPai0_R1D1</title>
<path fill="none" stroke="#000000" d="M155.2147,-256.3752C178.228,-257.9031 215.0194,-260.3457 236.9141,-261.7993"/>
</g>
<!-- MPai0_R0D1 -->
<g id="node34" class="node">
<title>MPai0_R0D1</title>
<polygon fill="#b48448" stroke="#000000" points="324,-258 284,-258 284,-248 324,-248 324,-258"/>
<text text-anchor="middle" x="304" y="-250.96" font-family="Arial" font-size="6.80" fill="#000000">Fallece: 58</text>
</g>
<!-- MPai0&#45;&gt;MPai0_R0D1 -->
<g id="edge15" class="edge">
<title>MPai0&#45;&gt;MPai0_R0D1</title>
<path fill="none" stroke="#000000" d="M155.284,-254.7548C188.0808,-254.3678 251.4325,-253.6203 283.8381,-253.2379"/>
</g>
<!-- MPr0_R1D0 -->
<g id="node16" class="node">
<title>MPr0_R1D0</title>
<polygon fill="#2f5a34" stroke="#000000" points="226,-248 166,-248 166,-238 226,-238 226,-248"/>
<text text-anchor="middle" x="196" y="-240.96" font-family="Arial" font-size="6.80" fill="#ffffff">Readmitido/a: 1,213</text>
</g>
<!-- MPr0&#45;&gt;MPr0_R1D0 -->
<g id="edge19" class="edge">
<title>MPr0&#45;&gt;MPr0_R1D0</title>
<path fill="none" stroke="#000000" d="M155.3211,-235.0627C160.0603,-235.9874 165.1519,-236.9809 170.0744,-237.9414"/>
</g>
<!-- MPr0_R1D1 -->
<g id="node26" class="node">
<title>MPr0_R1D1</title>
<polygon fill="#660600" stroke="#000000" points="273,-241 237,-241 237,-231 273,-231 273,-241"/>
<text text-anchor="middle" x="255" y="-233.96" font-family="Arial" font-size="6.80" fill="#ffffff">Ambas: 36</text>
</g>
<!-- MPr0&#45;&gt;MPr0_R1D1 -->
<g id="edge20" class="edge">
<title>MPr0&#45;&gt;MPr0_R1D1</title>
<path fill="none" stroke="#000000" d="M155.2147,-231.8595C178.228,-232.8144 215.0194,-234.3411 236.9141,-235.2495"/>
</g>
<!-- MPr0_R0D1 -->
<g id="node36" class="node">
<title>MPr0_R0D1</title>
<polygon fill="#b48448" stroke="#000000" points="324,-231 284,-231 284,-221 324,-221 324,-231"/>
<text text-anchor="middle" x="304" y="-223.96" font-family="Arial" font-size="6.80" fill="#000000">Fallece: 61</text>
</g>
<!-- MPr0&#45;&gt;MPr0_R0D1 -->
<g id="edge21" class="edge">
<title>MPr0&#45;&gt;MPr0_R0D1</title>
<path fill="none" stroke="#000000" d="M155.284,-230.3869C188.0808,-229.4194 251.4325,-227.5507 283.8381,-226.5947"/>
</g>
<!-- PgPab0_R1D0 -->
<g id="node18" class="node">
<title>PgPab0_R1D0</title>
<polygon fill="#2f5a34" stroke="#000000" points="226,-221 166,-221 166,-211 226,-211 226,-221"/>
<text text-anchor="middle" x="196" y="-213.96" font-family="Arial" font-size="6.80" fill="#ffffff">Readmitido/a: 3,837</text>
</g>
<!-- PgPab0&#45;&gt;PgPab0_R1D0 -->
<g id="edge25" class="edge">
<title>PgPab0&#45;&gt;PgPab0_R1D0</title>
<path fill="none" stroke="#000000" d="M155.3211,-208.7241C159.3633,-209.4471 163.662,-210.216 167.8934,-210.9728"/>
</g>
<!-- PgPab0_R1D1 -->
<g id="node28" class="node">
<title>PgPab0_R1D1</title>
<polygon fill="#2f5a34" stroke="#000000" points="273,-214 237,-214 237,-204 273,-204 273,-214"/>
<text text-anchor="middle" x="255" y="-206.96" font-family="Arial" font-size="6.80" fill="#ffffff">Ambas: 110</text>
</g>
<!-- PgPab0&#45;&gt;PgPab0_R1D1 -->
<g id="edge26" class="edge">
<title>PgPab0&#45;&gt;PgPab0_R1D1</title>
<path fill="none" stroke="#000000" d="M155.2147,-205.6876C178.228,-206.4516 215.0194,-207.6728 236.9141,-208.3996"/>
</g>
<!-- PgPab0_R0D1 -->
<g id="node38" class="node">
<title>PgPab0_R0D1</title>
<polygon fill="#2f5a34" stroke="#000000" points="324,-204 284,-204 284,-194 324,-194 324,-204"/>
<text text-anchor="middle" x="304" y="-196.96" font-family="Arial" font-size="6.80" fill="#ffffff">Fallece: 379</text>
</g>
<!-- PgPab0&#45;&gt;PgPab0_R0D1 -->
<g id="edge27" class="edge">
<title>PgPab0&#45;&gt;PgPab0_R0D1</title>
<path fill="none" stroke="#000000" d="M155.284,-204.2643C188.0808,-203.1033 251.4325,-200.8608 283.8381,-199.7137"/>
</g>
<!-- PgPai0_R1D0 -->
<g id="node20" class="node">
<title>PgPai0_R1D0</title>
<polygon fill="#2f5a34" stroke="#000000" points="226,-194 166,-194 166,-184 226,-184 226,-194"/>
<text text-anchor="middle" x="196" y="-186.96" font-family="Arial" font-size="6.80" fill="#ffffff">Readmitido/a: 5,415</text>
</g>
<!-- PgPai0&#45;&gt;PgPai0_R1D0 -->
<g id="edge31" class="edge">
<title>PgPai0&#45;&gt;PgPai0_R1D0</title>
<path fill="none" stroke="#000000" d="M155.3211,-184.3699C158.6664,-184.7506 162.1873,-185.1514 165.7004,-185.5513"/>
</g>
<!-- PgPai0_R1D1 -->
<g id="node30" class="node">
<title>PgPai0_R1D1</title>
<polygon fill="#2f5a34" stroke="#000000" points="273,-187 237,-187 237,-177 273,-177 273,-187"/>
<text text-anchor="middle" x="255" y="-179.96" font-family="Arial" font-size="6.80" fill="#ffffff">Ambas: 133</text>
</g>
<!-- PgPai0&#45;&gt;PgPai0_R1D1 -->
<g id="edge32" class="edge">
<title>PgPai0&#45;&gt;PgPai0_R1D1</title>
<path fill="none" stroke="#000000" d="M155.2147,-182C178.228,-182 215.0194,-182 236.9141,-182"/>
</g>
<!-- PgPai0_R0D1 -->
<g id="node40" class="node">
<title>PgPai0_R0D1</title>
<polygon fill="#2f5a34" stroke="#000000" points="324,-177 284,-177 284,-167 324,-167 324,-177"/>
<text text-anchor="middle" x="304" y="-169.96" font-family="Arial" font-size="6.80" fill="#ffffff">Fallece: 542</text>
</g>
<!-- PgPai0&#45;&gt;PgPai0_R0D1 -->
<g id="edge33" class="edge">
<title>PgPai0&#45;&gt;PgPai0_R0D1</title>
<path fill="none" stroke="#000000" d="M155.284,-180.7738C188.0808,-178.8389 251.4325,-175.1013 283.8381,-173.1895"/>
</g>
<!-- PgPr0_R1D0 -->
<g id="node22" class="node">
<title>PgPr0_R1D0</title>
<polygon fill="#2f5a34" stroke="#000000" points="226,-167 166,-167 166,-157 226,-157 226,-167"/>
<text text-anchor="middle" x="196" y="-159.96" font-family="Arial" font-size="6.80" fill="#ffffff">Readmitido/a: 2,380</text>
</g>
<!-- PgPr0&#45;&gt;PgPr0_R1D0 -->
<g id="edge37" class="edge">
<title>PgPr0&#45;&gt;PgPr0_R1D0</title>
<path fill="none" stroke="#000000" d="M155.3211,-159.3542C158.6664,-159.5718 162.1873,-159.8008 165.7004,-160.0293"/>
</g>
<!-- PgPr0_R1D1 -->
<g id="node32" class="node">
<title>PgPr0_R1D1</title>
<polygon fill="#b48448" stroke="#000000" points="273,-159 237,-159 237,-149 273,-149 273,-159"/>
<text text-anchor="middle" x="255" y="-151.96" font-family="Arial" font-size="6.80" fill="#000000">Ambas: 80</text>
</g>
<!-- PgPr0&#45;&gt;PgPr0_R1D1 -->
<g id="edge38" class="edge">
<title>PgPr0&#45;&gt;PgPr0_R1D1</title>
<path fill="none" stroke="#000000" d="M155.2147,-157.3124C178.228,-156.5484 215.0194,-155.3272 236.9141,-154.6004"/>
</g>
<!-- PgPr0_R0D1 -->
<g id="node42" class="node">
<title>PgPr0_R0D1</title>
<polygon fill="#2f5a34" stroke="#000000" points="324,-149 284,-149 284,-139 324,-139 324,-149"/>
<text text-anchor="middle" x="304" y="-141.96" font-family="Arial" font-size="6.80" fill="#ffffff">Fallece: 215</text>
</g>
<!-- PgPr0&#45;&gt;PgPr0_R0D1 -->
<g id="edge39" class="edge">
<title>PgPr0&#45;&gt;PgPr0_R0D1</title>
<path fill="none" stroke="#000000" d="M155.284,-156.2833C188.0808,-153.5744 251.4325,-148.3419 283.8381,-145.6653"/>
</g>
<!-- MPai1_R1D0 -->
<g id="node15" class="node">
<title>MPai1_R1D0</title>
<polygon fill="#2f5a34" stroke="#000000" points="226,-139 166,-139 166,-129 226,-129 226,-139"/>
<text text-anchor="middle" x="196" y="-131.96" font-family="Arial" font-size="6.80" fill="#ffffff">Readmitido/a: 240</text>
</g>
<!-- MPai1&#45;&gt;MPai1_R1D0 -->
<g id="edge16" class="edge">
<title>MPai1&#45;&gt;MPai1_R1D0</title>
<path fill="none" stroke="#000000" d="M155.3211,-125.4012C160.7572,-126.5503 166.6571,-127.7974 172.2335,-128.9762"/>
</g>
<!-- MPai1_R1D1 -->
<g id="node25" class="node">
<title>MPai1_R1D1</title>
<polygon fill="#660600" stroke="#000000" points="273,-132 237,-132 237,-122 273,-122 273,-132"/>
<text text-anchor="middle" x="255" y="-124.96" font-family="Arial" font-size="6.80" fill="#ffffff">Ambas: 9</text>
</g>
<!-- MPai1&#45;&gt;MPai1_R1D1 -->
<g id="edge17" class="edge">
<title>MPai1&#45;&gt;MPai1_R1D1</title>
<path fill="none" stroke="#000000" d="M155.2147,-122.0314C178.228,-123.1773 215.0194,-125.0093 236.9141,-126.0995"/>
</g>
<!-- MPai1_R0D1 -->
<g id="node35" class="node">
<title>MPai1_R0D1</title>
<polygon fill="#b48448" stroke="#000000" points="324,-122 284,-122 284,-112 324,-112 324,-122"/>
<text text-anchor="middle" x="304" y="-114.96" font-family="Arial" font-size="6.80" fill="#000000">Fallece: 68</text>
</g>
<!-- MPai1&#45;&gt;MPai1_R0D1 -->
<g id="edge18" class="edge">
<title>MPai1&#45;&gt;MPai1_R0D1</title>
<path fill="none" stroke="#000000" d="M155.284,-120.5095C188.0808,-119.7356 251.4325,-118.2405 283.8381,-117.4758"/>
</g>
<!-- MPr1_R1D0 -->
<g id="node17" class="node">
<title>MPr1_R1D0</title>
<polygon fill="#2f5a34" stroke="#000000" points="226,-112 166,-112 166,-102 226,-102 226,-112"/>
<text text-anchor="middle" x="196" y="-104.96" font-family="Arial" font-size="6.80" fill="#ffffff">Readmitido/a: 203</text>
</g>
<!-- MPr1&#45;&gt;MPr1_R1D0 -->
<g id="edge22" class="edge">
<title>MPr1&#45;&gt;MPr1_R1D0</title>
<path fill="none" stroke="#000000" d="M155.3211,-99.7241C159.3633,-100.4471 163.662,-101.216 167.8934,-101.9728"/>
</g>
<!-- MPr1_R1D1 -->
<g id="node27" class="node">
<title>MPr1_R1D1</title>
<polygon fill="#660600" stroke="#000000" points="273,-105 237,-105 237,-95 273,-95 273,-105"/>
<text text-anchor="middle" x="255" y="-97.96" font-family="Arial" font-size="6.80" fill="#ffffff">Ambas: 30</text>
</g>
<!-- MPr1&#45;&gt;MPr1_R1D1 -->
<g id="edge23" class="edge">
<title>MPr1&#45;&gt;MPr1_R1D1</title>
<path fill="none" stroke="#000000" d="M155.2147,-96.6876C178.228,-97.4516 215.0194,-98.6728 236.9141,-99.3996"/>
</g>
<!-- MPr1_R0D1 -->
<g id="node37" class="node">
<title>MPr1_R0D1</title>
<polygon fill="#660600" stroke="#000000" points="324,-95 284,-95 284,-85 324,-85 324,-95"/>
<text text-anchor="middle" x="304" y="-87.96" font-family="Arial" font-size="6.80" fill="#ffffff">Fallece: 52</text>
</g>
<!-- MPr1&#45;&gt;MPr1_R0D1 -->
<g id="edge24" class="edge">
<title>MPr1&#45;&gt;MPr1_R0D1</title>
<path fill="none" stroke="#000000" d="M155.284,-95.2643C188.0808,-94.1033 251.4325,-91.8608 283.8381,-90.7137"/>
</g>
<!-- PgPab1_R1D0 -->
<g id="node19" class="node">
<title>PgPab1_R1D0</title>
<polygon fill="#2f5a34" stroke="#000000" points="226,-85 166,-85 166,-75 226,-75 226,-85"/>
<text text-anchor="middle" x="196" y="-77.96" font-family="Arial" font-size="6.80" fill="#ffffff">Readmitido/a: 1,972</text>
</g>
<!-- PgPab1&#45;&gt;PgPab1_R1D0 -->
<g id="edge28" class="edge">
<title>PgPab1&#45;&gt;PgPab1_R1D0</title>
<path fill="none" stroke="#000000" d="M155.3211,-74.7084C158.6664,-75.1436 162.1873,-75.6016 165.7004,-76.0586"/>
</g>
<!-- PgPab1_R1D1 -->
<g id="node29" class="node">
<title>PgPab1_R1D1</title>
<polygon fill="#2f5a34" stroke="#000000" points="273,-78 237,-78 237,-68 273,-68 273,-78"/>
<text text-anchor="middle" x="255" y="-70.96" font-family="Arial" font-size="6.80" fill="#ffffff">Ambas: 118</text>
</g>
<!-- PgPab1&#45;&gt;PgPab1_R1D1 -->
<g id="edge29" class="edge">
<title>PgPab1&#45;&gt;PgPab1_R1D1</title>
<path fill="none" stroke="#000000" d="M155.2147,-72.1719C178.228,-72.3629 215.0194,-72.6682 236.9141,-72.8499"/>
</g>
<!-- PgPab1_R0D1 -->
<g id="node39" class="node">
<title>PgPab1_R0D1</title>
<polygon fill="#2f5a34" stroke="#000000" points="324,-68 284,-68 284,-58 324,-58 324,-68"/>
<text text-anchor="middle" x="304" y="-60.96" font-family="Arial" font-size="6.80" fill="#ffffff">Fallece: 876</text>
</g>
<!-- PgPab1&#45;&gt;PgPab1_R0D1 -->
<g id="edge30" class="edge">
<title>PgPab1&#45;&gt;PgPab1_R0D1</title>
<path fill="none" stroke="#000000" d="M155.284,-70.8964C188.0808,-69.155 251.4325,-65.7912 283.8381,-64.0705"/>
</g>
<!-- PgPai1_R1D0 -->
<g id="node21" class="node">
<title>PgPai1_R1D0</title>
<polygon fill="#2f5a34" stroke="#000000" points="226,-58 166,-58 166,-48 226,-48 226,-58"/>
<text text-anchor="middle" x="196" y="-50.96" font-family="Arial" font-size="6.80" fill="#ffffff">Readmitido/a: 1,715</text>
</g>
<!-- PgPai1&#45;&gt;PgPai1_R1D0 -->
<g id="edge34" class="edge">
<title>PgPai1&#45;&gt;PgPai1_R1D0</title>
<path fill="none" stroke="#000000" d="M155.3211,-48.3699C158.6664,-48.7506 162.1873,-49.1514 165.7004,-49.5513"/>
</g>
<!-- PgPai1_R1D1 -->
<g id="node31" class="node">
<title>PgPai1_R1D1</title>
<polygon fill="#2f5a34" stroke="#000000" points="273,-50 237,-50 237,-40 273,-40 273,-50"/>
<text text-anchor="middle" x="255" y="-42.96" font-family="Arial" font-size="6.80" fill="#ffffff">Ambas: 148</text>
</g>
<!-- PgPai1&#45;&gt;PgPai1_R1D1 -->
<g id="edge35" class="edge">
<title>PgPai1&#45;&gt;PgPai1_R1D1</title>
<path fill="none" stroke="#000000" d="M155.2147,-45.8281C178.228,-45.6371 215.0194,-45.3318 236.9141,-45.1501"/>
</g>
<!-- PgPai1_R0D1 -->
<g id="node41" class="node">
<title>PgPai1_R0D1</title>
<polygon fill="#2f5a34" stroke="#000000" points="324,-40 284,-40 284,-30 324,-30 324,-40"/>
<text text-anchor="middle" x="304" y="-32.96" font-family="Arial" font-size="6.80" fill="#ffffff">Fallece: 766</text>
</g>
<!-- PgPai1&#45;&gt;PgPai1_R0D1 -->
<g id="edge36" class="edge">
<title>PgPai1&#45;&gt;PgPai1_R0D1</title>
<path fill="none" stroke="#000000" d="M155.284,-44.6512C188.0808,-42.5228 251.4325,-38.4115 283.8381,-36.3084"/>
</g>
<!-- PgPr1_R1D0 -->
<g id="node23" class="node">
<title>PgPr1_R1D0</title>
<polygon fill="#2f5a34" stroke="#000000" points="226,-30 166,-30 166,-20 226,-20 226,-30"/>
<text text-anchor="middle" x="196" y="-22.96" font-family="Arial" font-size="6.80" fill="#ffffff">Readmitido/a: 416</text>
</g>
<!-- PgPr1&#45;&gt;PgPr1_R1D0 -->
<g id="edge40" class="edge">
<title>PgPr1&#45;&gt;PgPr1_R1D0</title>
<path fill="none" stroke="#000000" d="M155.3211,-23.0157C158.6664,-23.1788 162.1873,-23.3506 165.7004,-23.522"/>
</g>
<!-- PgPr1_R1D1 -->
<g id="node33" class="node">
<title>PgPr1_R1D1</title>
<polygon fill="#b48448" stroke="#000000" points="273,-20 237,-20 237,-10 273,-10 273,-20"/>
<text text-anchor="middle" x="255" y="-12.96" font-family="Arial" font-size="6.80" fill="#000000">Ambas: 70</text>
</g>
<!-- PgPr1&#45;&gt;PgPr1_R1D1 -->
<g id="edge41" class="edge">
<title>PgPr1&#45;&gt;PgPr1_R1D1</title>
<path fill="none" stroke="#000000" d="M155.2147,-20.7967C178.228,-19.4598 215.0194,-17.3225 236.9141,-16.0506"/>
</g>
<!-- PgPr1_R0D1 -->
<g id="node43" class="node">
<title>PgPr1_R0D1</title>
<polygon fill="#2f5a34" stroke="#000000" points="324,-10 284,-10 284,0 324,0 324,-10"/>
<text text-anchor="middle" x="304" y="-2.96" font-family="Arial" font-size="6.80" fill="#ffffff">Fallece: 222</text>
</g>
<!-- PgPr1&#45;&gt;PgPr1_R0D1 -->
<g id="edge42" class="edge">
<title>PgPr1&#45;&gt;PgPr1_R0D1</title>
<path fill="none" stroke="#000000" d="M155.284,-19.9155C188.0808,-16.6261 251.4325,-10.2723 283.8381,-7.0221"/>
</g>
</g>
</svg>
