<svg version="1.1" viewBox="0.0 0.0 960.0 540.0" fill="none" stroke="none" stroke-linecap="square" stroke-miterlimit="10" xmlns:xlink="http://www.w3.org/1999/xlink" xmlns="http://www.w3.org/2000/svg"><clipPath id="g2156ec6f9ca_0_170.0"><path d="m0 0l960.0 0l0 540.0l-960.0 0l0 -540.0z" clip-rule="nonzero"/></clipPath><g clip-path="url(#g2156ec6f9ca_0_170.0)"><path fill="#ffffff" d="m0 0l960.0 0l0 540.0l-960.0 0z" fill-rule="evenodd"/><path fill="#000000" fill-opacity="0.0" d="m471.58273 150.29422l221.38498 0l0 307.3701l-221.38498 0z" fill-rule="evenodd"/><path stroke="#414141" stroke-width="1.0" stroke-linejoin="round" stroke-linecap="butt" d="m471.58273 150.29422l221.38498 0l0 307.3701l-221.38498 0z" fill-rule="evenodd"/><path fill="#414141" d="m471.58273 163.61441l221.38498 0l0 -13.32283l-221.38498 0z" fill-rule="evenodd"/><path fill="#000000" fill-opacity="0.0" d="m471.58273 163.61441l87.15024 0l0 83.244095l-87.15024 0z" fill-rule="evenodd"/><path fill="#414141" d="m513.02893 225.49646l-27.296875 0l0 -5.421875l12.890625 -13.71875q2.640625 -2.90625 3.90625 -5.0625q1.28125 -2.15625 1.28125 -4.09375q0 -2.65625 -1.34375 -4.171875q-1.328125 -1.515625 -3.828125 -1.515625q-2.671875 0 -4.21875 1.84375q-1.546875 1.84375 -1.546875 4.84375l-7.921875 0q0 -3.625 1.734375 -6.625q1.734375 -3.015625 4.90625 -4.71875q3.171875 -1.71875 7.1875 -1.71875q6.15625 0 9.5625 2.953125q3.40625 2.953125 3.40625 8.34375q0 2.953125 -1.53125 6.015625q-1.53125 3.0625 -5.25 7.125l-9.0625 9.546875l17.125 0l0 6.375zm6.0195312 -19.578125l2.296875 -20.234375l22.3125 0l0 6.59375l-15.84375 0l-0.984375 8.546875q2.828125 -1.5 6.0 -1.5q5.6875 0 8.90625 3.53125q3.234375 3.53125 3.234375 9.875q0 3.84375 -1.640625 6.90625q-1.625 3.046875 -4.65625 4.734375q-3.03125 1.671875 -7.15625 1.671875q-3.609375 0 -6.703125 -1.453125q-3.09375 -1.46875 -4.890625 -4.125q-1.78125 -2.65625 -1.890625 -6.046875l7.8125 0q0.25 2.484375 1.734375 3.875q1.5 1.375 3.90625 1.375q2.671875 0 4.125 -1.921875q1.453125 -1.9375 1.453125 -5.453125q0 -3.390625 -1.671875 -5.1875q-1.671875 -1.8125 -4.734375 -1.8125q-2.8125 0 -4.5625 1.46875l-0.765625 0.71875l-6.28125 -1.5625z" fill-rule="nonzero"/><path fill="#000000" fill-opacity="0.0" d="m478.68204 263.18723l38.14853 0l0 18.740173l-38.14853 0z" fill-rule="evenodd"/><path fill="#414141" d="m497.71375 270.11105l-2.140625 0l0 5.90625l-0.875 0l0 -5.90625l-2.125 0l0 -0.71875l5.140625 0l0 0.71875zm3.5346375 5.90625l-0.859375 0l0 -5.609375l-1.6875 0.625l0 -0.765625l2.40625 -0.90625l0.140625 0l0 6.65625z" fill-rule="nonzero"/><path fill="#000000" fill-opacity="0.0" d="m535.8839 263.18723l38.1485 0l0 18.740173l-38.1485 0z" fill-rule="evenodd"/><path fill="#414141" d="m554.9156 270.11105l-2.140625 0l0 5.90625l-0.875 0l0 -5.90625l-2.125 0l0 -0.71875l5.140625 0l0 0.71875zm5.097168 5.90625l-4.34375 0l0 -0.609375l2.296875 -2.546875q0.515625 -0.578125 0.703125 -0.9375q0.203125 -0.359375 0.203125 -0.75q0 -0.515625 -0.328125 -0.84375q-0.3125 -0.34375 -0.828125 -0.34375q-0.625 0 -0.984375 0.359375q-0.34375 0.359375 -0.34375 1.0l-0.84375 0q0 -0.921875 0.59375 -1.484375q0.59375 -0.5625 1.578125 -0.5625q0.921875 0 1.453125 0.484375q0.546875 0.484375 0.546875 1.28125q0 0.984375 -1.25 2.34375l-1.78125 1.921875l3.328125 0l0 0.6875z" fill-rule="nonzero"/><path fill="#000000" fill-opacity="0.0" d="m589.5545 263.18723l38.1485 0l0 18.740173l-38.1485 0z" fill-rule="evenodd"/><path fill="#414141" d="m608.5862 270.11105l-2.140625 0l0 5.90625l-0.875 0l0 -5.90625l-2.125 0l0 -0.71875l5.140625 0l0 0.71875zm1.987793 2.1875l0.625 0q0.59375 -0.015625 0.9375 -0.3125q0.34375 -0.3125 0.34375 -0.828125q0 -1.171875 -1.15625 -1.171875q-0.546875 0 -0.875 0.3125q-0.328125 0.3125 -0.328125 0.828125l-0.84375 0q0 -0.796875 0.578125 -1.3125q0.578125 -0.515625 1.46875 -0.515625q0.9375 0 1.46875 0.5q0.53125 0.484375 0.53125 1.375q0 0.4375 -0.28125 0.84375q-0.28125 0.390625 -0.765625 0.59375q0.546875 0.171875 0.84375 0.578125q0.296875 0.40625 0.296875 0.984375q0 0.890625 -0.578125 1.421875q-0.578125 0.515625 -1.515625 0.515625q-0.9375 0 -1.53125 -0.5q-0.578125 -0.515625 -0.578125 -1.34375l0.859375 0q0 0.53125 0.328125 0.84375q0.34375 0.3125 0.921875 0.3125q0.609375 0 0.9375 -0.3125q0.328125 -0.328125 0.328125 -0.921875q0 -0.578125 -0.359375 -0.890625q-0.359375 -0.3125 -1.03125 -0.3125l-0.625 0l0 -0.6875z" fill-rule="nonzero"/><path fill="#000000" fill-opacity="0.0" d="m647.7195 263.18723l38.14856 0l0 18.740173l-38.14856 0z" fill-rule="evenodd"/><path fill="#414141" d="m666.7512 270.11105l-2.140625 0l0 5.90625l-0.875 0l0 -5.90625l-2.125 0l0 -0.71875l5.140625 0l0 0.71875zm4.315918 3.671875l0.921875 0l0 0.6875l-0.921875 0l0 1.546875l-0.84375 0l0 -1.546875l-3.03125 0l0 -0.484375l2.984375 -4.59375l0.890625 0l0 4.390625zm-2.90625 0l2.0625 0l0 -3.25l-0.109375 0.1875l-1.953125 3.0625z" fill-rule="nonzero"/><path fill="#000000" fill-opacity="0.0" d="m527.19977 457.24957l0 -194.07874" fill-rule="evenodd"/><path stroke="#414141" stroke-width="1.0" stroke-linejoin="round" stroke-linecap="butt" stroke-dasharray="1.0,3.0" d="m527.19977 457.24957l0 -194.07874" fill-rule="evenodd"/><path fill="#000000" fill-opacity="0.0" d="m582.5176 457.24957l0 -194.07874" fill-rule="evenodd"/><path stroke="#414141" stroke-width="1.0" stroke-linejoin="round" stroke-linecap="butt" stroke-dasharray="1.0,3.0" d="m582.5176 457.24957l0 -194.07874" fill-rule="evenodd"/><path fill="#000000" fill-opacity="0.0" d="m637.8354 457.24957l0 -194.07874" fill-rule="evenodd"/><path stroke="#414141" stroke-width="1.0" stroke-linejoin="round" stroke-linecap="butt" stroke-dasharray="1.0,3.0" d="m637.8354 457.24957l0 -194.07874" fill-rule="evenodd"/><path fill="#000000" fill-opacity="0.0" d="m249.15135 150.29398l221.38496 0l0 307.3701l-221.38496 0z" fill-rule="evenodd"/><path stroke="#3d3d3d" stroke-width="1.0" stroke-linejoin="round" stroke-linecap="butt" d="m249.15135 150.29398l221.38496 0l0 307.3701l-221.38496 0z" fill-rule="evenodd"/><path fill="#3d3d3d" d="m249.15135 163.61417l221.38496 0l0 -13.32283l-221.38496 0z" fill-rule="evenodd"/><path fill="#000000" fill-opacity="0.0" d="m249.15135 163.61417l87.15022 0l0 83.244095l-87.15022 0z" fill-rule="evenodd"/><path fill="#3d3d3d" d="m290.59756 225.49622l-27.296875 0l0 -5.421875l12.890625 -13.71875q2.640625 -2.90625 3.90625 -5.0625q1.28125 -2.15625 1.28125 -4.09375q0 -2.65625 -1.34375 -4.171875q-1.328125 -1.515625 -3.828125 -1.515625q-2.671875 0 -4.21875 1.84375q-1.546875 1.84375 -1.546875 4.84375l-7.921875 0q0 -3.625 1.734375 -6.625q1.734375 -3.015625 4.90625 -4.71875q3.171875 -1.71875 7.1875 -1.71875q6.15625 0 9.5625 2.953125q3.40625 2.953125 3.40625 8.34375q0 2.953125 -1.53125 6.015625q-1.53125 3.0625 -5.25 7.125l-9.0625 9.546875l17.125 0l0 6.375zm28.222656 -14.984375l4.5 0l0 6.375l-4.5 0l0 8.609375l-7.90625 0l0 -8.609375l-16.328125 0l-0.359375 -4.984375l16.609375 -26.21875l7.984375 0l0 24.828125zm-16.71875 0l8.8125 0l0 -14.0625l-0.515625 0.90625l-8.296875 13.15625z" fill-rule="nonzero"/><path fill="#000000" fill-opacity="0.0" d="m256.25064 263.18698l38.14853 0l0 18.740173l-38.14853 0z" fill-rule="evenodd"/><path fill="#3d3d3d" d="m275.28235 270.1108l-2.140625 0l0 5.90625l-0.875 0l0 -5.90625l-2.125 0l0 -0.71875l5.140625 0l0 0.71875zm3.534668 5.90625l-0.859375 0l0 -5.609375l-1.6875 0.625l0 -0.765625l2.40625 -0.90625l0.140625 0l0 6.65625z" fill-rule="nonzero"/><path fill="#000000" fill-opacity="0.0" d="m313.4525 263.18698l38.14853 0l0 18.740173l-38.14853 0z" fill-rule="evenodd"/><path fill="#3d3d3d" d="m332.48422 270.1108l-2.140625 0l0 5.90625l-0.875 0l0 -5.90625l-2.125 0l0 -0.71875l5.140625 0l0 0.71875zm5.0971375 5.90625l-4.34375 0l0 -0.609375l2.296875 -2.546875q0.515625 -0.578125 0.703125 -0.9375q0.203125 -0.359375 0.203125 -0.75q0 -0.515625 -0.328125 -0.84375q-0.3125 -0.34375 -0.828125 -0.34375q-0.625 0 -0.984375 0.359375q-0.34375 0.359375 -0.34375 1.0l-0.84375 0q0 -0.921875 0.59375 -1.484375q0.59375 -0.5625 1.578125 -0.5625q0.921875 0 1.453125 0.484375q0.546875 0.484375 0.546875 1.28125q0 0.984375 -1.25 2.34375l-1.78125 1.921875l3.328125 0l0 0.6875z" fill-rule="nonzero"/><path fill="#000000" fill-opacity="0.0" d="m367.1231 263.18698l38.14853 0l0 18.740173l-38.14853 0z" fill-rule="evenodd"/><path fill="#3d3d3d" d="m386.15482 270.1108l-2.140625 0l0 5.90625l-0.875 0l0 -5.90625l-2.125 0l0 -0.71875l5.140625 0l0 0.71875zm1.9877625 2.1875l0.625 0q0.59375 -0.015625 0.9375 -0.3125q0.34375 -0.3125 0.34375 -0.828125q0 -1.171875 -1.15625 -1.171875q-0.546875 0 -0.875 0.3125q-0.328125 0.3125 -0.328125 0.828125l-0.84375 0q0 -0.796875 0.578125 -1.3125q0.578125 -0.515625 1.46875 -0.515625q0.9375 0 1.46875 0.5q0.53125 0.484375 0.53125 1.375q0 0.4375 -0.28125 0.84375q-0.28125 0.390625 -0.765625 0.59375q0.546875 0.171875 0.84375 0.578125q0.296875 0.40625 0.296875 0.984375q0 0.890625 -0.578125 1.421875q-0.578125 0.515625 -1.515625 0.515625q-0.9375 0 -1.53125 -0.5q-0.578125 -0.515625 -0.578125 -1.34375l0.859375 0q0 0.53125 0.328125 0.84375q0.34375 0.3125 0.921875 0.3125q0.609375 0 0.9375 -0.3125q0.328125 -0.328125 0.328125 -0.921875q0 -0.578125 -0.359375 -0.890625q-0.359375 -0.3125 -1.03125 -0.3125l-0.625 0l0 -0.6875z" fill-rule="nonzero"/><path fill="#000000" fill-opacity="0.0" d="m425.28812 263.18698l38.14853 0l0 18.740173l-38.14853 0z" fill-rule="evenodd"/><path fill="#3d3d3d" d="m444.31982 270.1108l-2.140625 0l0 5.90625l-0.875 0l0 -5.90625l-2.125 0l0 -0.71875l5.140625 0l0 0.71875zm4.315918 3.671875l0.921875 0l0 0.6875l-0.921875 0l0 1.546875l-0.84375 0l0 -1.546875l-3.03125 0l0 -0.484375l2.984375 -4.59375l0.890625 0l0 4.390625zm-2.90625 0l2.0625 0l0 -3.25l-0.109375 0.1875l-1.953125 3.0625z" fill-rule="nonzero"/><path fill="#000000" fill-opacity="0.0" d="m304.76837 457.24933l0 -194.04724" fill-rule="evenodd"/><path stroke="#3d3d3d" stroke-width="1.0" stroke-linejoin="round" stroke-linecap="butt" stroke-dasharray="1.0,3.0" d="m304.76837 457.24933l0 -194.04724" fill-rule="evenodd"/><path fill="#000000" fill-opacity="0.0" d="m360.08618 457.24933l0 -194.04724" fill-rule="evenodd"/><path stroke="#3d3d3d" stroke-width="1.0" stroke-linejoin="round" stroke-linecap="butt" stroke-dasharray="1.0,3.0" d="m360.08618 457.24933l0 -194.04724" fill-rule="evenodd"/><path fill="#000000" fill-opacity="0.0" d="m415.404 457.24933l0 -194.04724" fill-rule="evenodd"/><path stroke="#3d3d3d" stroke-width="1.0" stroke-linejoin="round" stroke-linecap="butt" stroke-dasharray="1.0,3.0" d="m415.404 457.24933l0 -194.04724" fill-rule="evenodd"/><path fill="#000000" fill-opacity="0.0" d="m26.835978 150.29326l221.2991 0l0 307.37006l-221.2991 0z" fill-rule="evenodd"/><path stroke="#2f2f2f" stroke-width="1.0" stroke-linejoin="round" stroke-linecap="butt" d="m26.835978 150.29326l221.2991 0l0 307.37006l-221.2991 0z" fill-rule="evenodd"/><path fill="#2f2f2f" d="m26.835978 163.61345l221.2991 0l0 -13.32283l-221.2991 0z" fill-rule="evenodd"/><path fill="#000000" fill-opacity="0.0" d="m26.835978 163.61345l87.11643 0l0 83.244095l-87.11643 0z" fill-rule="evenodd"/><path fill="#2f2f2f" d="m68.26528 225.4955l-27.296871 0l0 -5.421875l12.890625 -13.71875q2.640625 -2.90625 3.90625 -5.0625q1.28125 -2.15625 1.28125 -4.09375q0 -2.65625 -1.34375 -4.171875q-1.328125 -1.515625 -3.828125 -1.515625q-2.671875 0 -4.21875 1.84375q-1.546875 1.84375 -1.546875 4.84375l-7.921875 0q0 -3.625 1.734375 -6.625q1.734375 -3.015625 4.90625 -4.71875q3.171875 -1.71875 7.1875 -1.71875q6.15625 0 9.5625 2.953125q3.4062462 2.953125 3.4062462 8.34375q0 2.953125 -1.53125 6.015625q-1.5312462 3.0625 -5.249996 7.125l-9.0625 9.546875l17.124996 0l0 6.375zm12.878906 -23.40625l4.203125 0q3.015625 0 4.453125 -1.5q1.453125 -1.515625 1.453125 -4.0q0 -2.40625 -1.4375 -3.734375q-1.421875 -1.34375 -3.9375 -1.34375q-2.28125 0 -3.8125 1.25q-1.53125 1.234375 -1.53125 3.234375l-7.890625 0q0 -3.125 1.671875 -5.59375q1.6875 -2.484375 4.703125 -3.875q3.03125 -1.390625 6.65625 -1.390625q6.328125 0 9.90625 3.03125q3.578125 3.015625 3.578125 8.3125q0 2.734375 -1.671875 5.03125q-1.65625 2.296875 -4.375 3.53125q3.375 1.203125 5.015625 3.609375q1.65625 2.40625 1.65625 5.6875q0 5.296875 -3.875 8.5q-3.859375 3.203125 -10.234375 3.203125q-5.953125 0 -9.75 -3.140625q-3.78125 -3.15625 -3.78125 -8.3125l7.90625 0q0 2.234375 1.671875 3.65625q1.6875 1.421875 4.15625 1.421875q2.8125 0 4.40625 -1.484375q1.609375 -1.5 1.609375 -3.953125q0 -5.96875 -6.5625 -5.96875l-4.1875 0l0 -6.171875z" fill-rule="nonzero"/><path fill="#000000" fill-opacity="0.0" d="m40.140007 263.18564l35.86001 0l0 18.740143l-35.86001 0z" fill-rule="evenodd"/><path fill="#2f2f2f" d="m58.027454 270.10947l-2.140625 0l0 5.90625l-0.875 0l0 -5.90625l-2.125 0l0 -0.71875l5.140625 0l0 0.71875zm3.5346527 5.90625l-0.859375 0l0 -5.609375l-1.6875 0.625l0 -0.765625l2.40625 -0.90625l0.140625 0l0 6.65625z" fill-rule="nonzero"/><path fill="#000000" fill-opacity="0.0" d="m93.892136 263.18564l35.860016 0l0 18.740143l-35.860016 0z" fill-rule="evenodd"/><path fill="#2f2f2f" d="m111.77959 270.10947l-2.140625 0l0 5.90625l-0.875 0l0 -5.90625l-2.125 0l0 -0.71875l5.140625 0l0 0.71875zm5.0971527 5.90625l-4.34375 0l0 -0.609375l2.296875 -2.546875q0.515625 -0.578125 0.703125 -0.9375q0.203125 -0.359375 0.203125 -0.75q0 -0.515625 -0.328125 -0.84375q-0.3125 -0.34375 -0.828125 -0.34375q-0.625 0 -0.984375 0.359375q-0.34375 0.359375 -0.34375 1.0l-0.84375 0q0 -0.921875 0.59375 -1.484375q0.59375 -0.5625 1.578125 -0.5625q0.921875 0 1.453125 0.484375q0.546875 0.484375 0.546875 1.28125q0 0.984375 -1.25 2.34375l-1.78125 1.921875l3.328125 0l0 0.6875z" fill-rule="nonzero"/><path fill="#000000" fill-opacity="0.0" d="m144.32597 263.18564l35.86 0l0 18.740143l-35.86 0z" fill-rule="evenodd"/><path fill="#2f2f2f" d="m162.21342 270.10947l-2.140625 0l0 5.90625l-0.875 0l0 -5.90625l-2.125 0l0 -0.71875l5.140625 0l0 0.71875zm1.9877777 2.1875l0.625 0q0.59375 -0.015625 0.9375 -0.3125q0.34375 -0.3125 0.34375 -0.828125q0 -1.171875 -1.15625 -1.171875q-0.546875 0 -0.875 0.3125q-0.328125 0.3125 -0.328125 0.828125l-0.84375 0q0 -0.796875 0.578125 -1.3125q0.578125 -0.515625 1.46875 -0.515625q0.9375 0 1.46875 0.5q0.53125 0.484375 0.53125 1.375q0 0.4375 -0.28125 0.84375q-0.28125 0.390625 -0.765625 0.59375q0.546875 0.171875 0.84375 0.578125q0.296875 0.40625 0.296875 0.984375q0 0.890625 -0.578125 1.421875q-0.578125 0.515625 -1.515625 0.515625q-0.9375 0 -1.53125 -0.5q-0.578125 -0.515625 -0.578125 -1.34375l0.859375 0q0 0.53125 0.328125 0.84375q0.34375 0.3125 0.921875 0.3125q0.609375 0 0.9375 -0.3125q0.328125 -0.328125 0.328125 -0.921875q0 -0.578125 -0.359375 -0.890625q-0.359375 -0.3125 -1.03125 -0.3125l-0.625 0l0 -0.6875z" fill-rule="nonzero"/><path fill="#000000" fill-opacity="0.0" d="m198.98317 263.18564l35.860016 0l0 18.740143l-35.860016 0z" fill-rule="evenodd"/><path fill="#2f2f2f" d="m216.87062 270.10947l-2.140625 0l0 5.90625l-0.875 0l0 -5.90625l-2.125 0l0 -0.71875l5.140625 0l0 0.71875zm4.3159027 3.671875l0.921875 0l0 0.6875l-0.921875 0l0 1.546875l-0.84375 0l0 -1.546875l-3.03125 0l0 -0.484375l2.984375 -4.59375l0.890625 0l0 4.390625zm-2.90625 0l2.0625 0l0 -3.25l-0.109375 0.1875l-1.953125 3.0625z" fill-rule="nonzero"/><path fill="#000000" fill-opacity="0.0" d="m82.43144 457.24863l0 -194.04724" fill-rule="evenodd"/><path stroke="#2f2f2f" stroke-width="1.0" stroke-linejoin="round" stroke-linecap="butt" stroke-dasharray="1.0,3.0" d="m82.43144 457.24863l0 -194.04724" fill-rule="evenodd"/><path fill="#000000" fill-opacity="0.0" d="m137.7278 457.24863l0 -194.04724" fill-rule="evenodd"/><path stroke="#2f2f2f" stroke-width="1.0" stroke-linejoin="round" stroke-linecap="butt" stroke-dasharray="1.0,3.0" d="m137.7278 457.24863l0 -194.04724" fill-rule="evenodd"/><path fill="#000000" fill-opacity="0.0" d="m193.02415 457.24863l0 -194.04724" fill-rule="evenodd"/><path stroke="#2f2f2f" stroke-width="1.0" stroke-linejoin="round" stroke-linecap="butt" stroke-dasharray="1.0,3.0" d="m193.02415 457.24863l0 -194.04724" fill-rule="evenodd"/><path fill="#2f2f2f" d="m173.11829 321.92322l219.65353 0l0 21.763794l-219.65353 0z" fill-rule="evenodd"/><path fill="#ffffff" d="m214.22133 335.21698l2.15625 -6.25l1.09375 0l-2.8125 7.578125l-0.875 0l-2.8125 -7.578125l1.09375 0l2.15625 6.25zm5.170456 1.328125l-0.96875 0l0 -5.625l0.96875 0l0 5.625zm-1.046875 -7.125q0 -0.234375 0.140625 -0.390625q0.140625 -0.171875 0.421875 -0.171875q0.28125 0 0.421875 0.171875q0.15625 0.15625 0.15625 0.390625q0 0.234375 -0.15625 0.390625q-0.140625 0.15625 -0.421875 0.15625q-0.28125 0 -0.421875 -0.15625q-0.140625 -0.15625 -0.140625 -0.390625zm3.4922638 1.5l0.03125 0.703125q0.640625 -0.8125 1.6875 -0.8125q1.78125 0 1.796875 2.015625l0 3.71875l-0.96875 0l0 -3.71875q0 -0.609375 -0.28125 -0.90625q-0.265625 -0.296875 -0.84375 -0.296875q-0.46875 0 -0.828125 0.25q-0.34375 0.25 -0.546875 0.65625l0 4.015625l-0.953125 0l0 -5.625l0.90625 0zm7.223419 4.9375q0.515625 0 0.890625 -0.3125q0.390625 -0.3125 0.4375 -0.78125l0.90625 0q-0.015625 0.484375 -0.328125 0.921875q-0.3125 0.4375 -0.828125 0.703125q-0.5 0.265625 -1.078125 0.265625q-1.140625 0 -1.828125 -0.765625q-0.671875 -0.78125 -0.671875 -2.109375l0 -0.15625q0 -0.828125 0.296875 -1.46875q0.296875 -0.640625 0.859375 -0.984375q0.578125 -0.359375 1.34375 -0.359375q0.9375 0 1.5625 0.578125q0.640625 0.5625 0.671875 1.46875l-0.90625 0q-0.046875 -0.546875 -0.421875 -0.890625q-0.359375 -0.359375 -0.90625 -0.359375q-0.734375 0 -1.140625 0.53125q-0.40625 0.515625 -0.40625 1.515625l0 0.1875q0 0.96875 0.40625 1.5q0.40625 0.515625 1.140625 0.515625zm6.796631 0.125q-0.5625 0.671875 -1.640625 0.671875q-0.90625 0 -1.375 -0.515625q-0.46875 -0.53125 -0.484375 -1.5625l0 -3.65625l0.96875 0l0 3.625q0 1.28125 1.03125 1.28125q1.109375 0 1.46875 -0.8125l0 -4.09375l0.96875 0l0 5.625l-0.921875 0l-0.015625 -0.5625zm3.452591 0.5625l-0.96875 0l0 -8.0l0.96875 0l0 8.0zm5.007889 0q-0.078125 -0.171875 -0.140625 -0.59375q-0.671875 0.703125 -1.59375 0.703125q-0.828125 0 -1.375 -0.46875q-0.53125 -0.484375 -0.53125 -1.203125q0 -0.875 0.671875 -1.359375q0.671875 -0.484375 1.875 -0.484375l0.9375 0l0 -0.453125q0 -0.5 -0.296875 -0.796875q-0.296875 -0.296875 -0.890625 -0.296875q-0.515625 0 -0.859375 0.265625q-0.34375 0.25 -0.34375 0.625l-0.96875 0q0 -0.421875 0.296875 -0.8125q0.296875 -0.40625 0.8125 -0.625q0.515625 -0.234375 1.125 -0.234375q0.96875 0 1.515625 0.484375q0.5625 0.484375 0.578125 1.34375l0 2.59375q0 0.765625 0.203125 1.234375l0 0.078125l-1.015625 0zm-1.59375 -0.734375q0.453125 0 0.859375 -0.234375q0.40625 -0.234375 0.578125 -0.609375l0 -1.15625l-0.75 0q-1.765625 0 -1.765625 1.03125q0 0.453125 0.296875 0.71875q0.3125 0.25 0.78125 0.25zm6.171417 0.046875q0.515625 0 0.890625 -0.3125q0.390625 -0.3125 0.4375 -0.78125l0.90625 0q-0.015625 0.484375 -0.328125 0.921875q-0.3125 0.4375 -0.828125 0.703125q-0.5 0.265625 -1.078125 0.265625q-1.140625 0 -1.828125 -0.765625q-0.671875 -0.78125 -0.671875 -2.109375l0 -0.15625q0 -0.828125 0.296875 -1.46875q0.296875 -0.640625 0.859375 -0.984375q0.578125 -0.359375 1.34375 -0.359375q0.9375 0 1.5625 0.578125q0.640625 0.5625 0.671875 1.46875l-0.90625 0q-0.046875 -0.546875 -0.421875 -0.890625q-0.359375 -0.359375 -0.90625 -0.359375q-0.734375 0 -1.140625 0.53125q-0.40625 0.515625 -0.40625 1.515625l0 0.1875q0 0.96875 0.40625 1.5q0.40625 0.515625 1.140625 0.515625zm4.374756 0.6875l-0.96875 0l0 -5.625l0.96875 0l0 5.625zm-1.046875 -7.125q0 -0.234375 0.140625 -0.390625q0.140625 -0.171875 0.421875 -0.171875q0.28125 0 0.421875 0.171875q0.15625 0.15625 0.15625 0.390625q0 0.234375 -0.15625 0.390625q-0.140625 0.15625 -0.421875 0.15625q-0.28125 0 -0.421875 -0.15625q-0.140625 -0.15625 -0.140625 -0.390625zm2.3203888 4.265625q0 -0.828125 0.328125 -1.484375q0.328125 -0.671875 0.90625 -1.03125q0.578125 -0.359375 1.328125 -0.359375q1.140625 0 1.84375 0.796875q0.71875 0.796875 0.71875 2.125l0 0.0625q0 0.8125 -0.3125 1.46875q-0.3125 0.65625 -0.90625 1.03125q-0.578125 0.359375 -1.34375 0.359375q-1.140625 0 -1.859375 -0.796875q-0.703125 -0.796875 -0.703125 -2.109375l0 -0.0625zm0.96875 0.109375q0 0.9375 0.4375 1.5q0.4375 0.5625 1.15625 0.5625q0.734375 0 1.171875 -0.5625q0.4375 -0.578125 0.4375 -1.609375q0 -0.9375 -0.453125 -1.5q-0.4375 -0.578125 -1.15625 -0.578125q-0.71875 0 -1.15625 0.5625q-0.4375 0.5625 -0.4375 1.625zm2.03125 -5.25l1.171875 0l-1.390625 1.53125l-0.78125 0l1.0 -1.53125zm4.2492676 2.375l0.03125 0.703125q0.640625 -0.8125 1.6875 -0.8125q1.78125 0 1.796875 2.015625l0 3.71875l-0.96875 0l0 -3.71875q0 -0.609375 -0.28125 -0.90625q-0.265625 -0.296875 -0.84375 -0.296875q-0.46875 0 -0.828125 0.25q-0.34375 0.25 -0.546875 0.65625l0 4.015625l-0.953125 0l0 -5.625l0.90625 0zm7.3771057 2.765625q0 -1.296875 0.609375 -2.078125q0.609375 -0.796875 1.609375 -0.796875q0.984375 0 1.5625 0.671875l0 -2.9375l0.96875 0l0 8.0l-0.890625 0l-0.046875 -0.609375q-0.578125 0.71875 -1.609375 0.71875q-0.96875 0 -1.59375 -0.796875q-0.609375 -0.8125 -0.609375 -2.09375l0 -0.078125zm0.953125 0.109375q0 0.953125 0.390625 1.5q0.40625 0.53125 1.09375 0.53125q0.921875 0 1.34375 -0.8125l0 -2.59375q-0.4375 -0.796875 -1.328125 -0.796875q-0.703125 0 -1.109375 0.546875q-0.390625 0.546875 -0.390625 1.625zm7.61911 2.859375q-1.140625 0 -1.859375 -0.75q-0.71875 -0.765625 -0.71875 -2.015625l0 -0.171875q0 -0.84375 0.3125 -1.5q0.328125 -0.65625 0.90625 -1.03125q0.578125 -0.375 1.234375 -0.375q1.109375 0 1.71875 0.734375q0.609375 0.71875 0.609375 2.0625l0 0.390625l-3.8125 0q0.015625 0.84375 0.484375 1.359375q0.46875 0.5 1.171875 0.5q0.515625 0 0.859375 -0.203125q0.359375 -0.203125 0.625 -0.546875l0.59375 0.453125q-0.703125 1.09375 -2.125 1.09375zm-0.125 -5.046875q-0.578125 0 -0.96875 0.421875q-0.390625 0.421875 -0.484375 1.1875l2.8125 0l0 -0.078125q-0.046875 -0.734375 -0.40625 -1.125q-0.34375 -0.40625 -0.953125 -0.40625zm10.846069 2.1875q0 1.28125 -0.59375 2.078125q-0.59375 0.78125 -1.59375 0.78125q-1.0625 0 -1.65625 -0.765625l-0.046875 0.65625l-0.875 0l0 -8.0l0.953125 0l0 2.984375q0.59375 -0.71875 1.609375 -0.71875q1.03125 0 1.609375 0.78125q0.59375 0.765625 0.59375 2.125l0 0.078125zm-0.96875 -0.109375q0 -0.984375 -0.390625 -1.515625q-0.375 -0.546875 -1.078125 -0.546875q-0.953125 0 -1.375 0.890625l0 2.4375q0.453125 0.875 1.375 0.875q0.703125 0 1.078125 -0.53125q0.390625 -0.53125 0.390625 -1.609375zm5.650421 2.859375q-0.078125 -0.171875 -0.140625 -0.59375q-0.671875 0.703125 -1.59375 0.703125q-0.828125 0 -1.375 -0.46875q-0.53125 -0.484375 -0.53125 -1.203125q0 -0.875 0.671875 -1.359375q0.671875 -0.484375 1.875 -0.484375l0.9375 0l0 -0.453125q0 -0.5 -0.296875 -0.796875q-0.296875 -0.296875 -0.890625 -0.296875q-0.515625 0 -0.859375 0.265625q-0.34375 0.25 -0.34375 0.625l-0.96875 0q0 -0.421875 0.296875 -0.8125q0.296875 -0.40625 0.8125 -0.625q0.515625 -0.234375 1.125 -0.234375q0.96875 0 1.515625 0.484375q0.5625 0.484375 0.578125 1.34375l0 2.59375q0 0.765625 0.203125 1.234375l0 0.078125l-1.015625 0zm-1.59375 -0.734375q0.453125 0 0.859375 -0.234375q0.40625 -0.234375 0.578125 -0.609375l0 -1.15625l-0.75 0q-1.765625 0 -1.765625 1.03125q0 0.453125 0.296875 0.71875q0.3125 0.25 0.78125 0.25zm7.187042 -0.765625q0 -0.390625 -0.296875 -0.59375q-0.28125 -0.21875 -1.015625 -0.375q-0.734375 -0.15625 -1.171875 -0.375q-0.421875 -0.21875 -0.625 -0.515625q-0.203125 -0.3125 -0.203125 -0.71875q0 -0.703125 0.578125 -1.171875q0.59375 -0.484375 1.5 -0.484375q0.953125 0 1.546875 0.5q0.609375 0.484375 0.609375 1.265625l-0.96875 0q0 -0.40625 -0.34375 -0.6875q-0.328125 -0.28125 -0.84375 -0.28125q-0.515625 0 -0.8125 0.234375q-0.296875 0.21875 -0.296875 0.59375q0 0.34375 0.265625 0.53125q0.28125 0.171875 1.0 0.328125q0.71875 0.15625 1.15625 0.390625q0.453125 0.21875 0.671875 0.53125q0.21875 0.3125 0.21875 0.765625q0 0.75 -0.609375 1.21875q-0.59375 0.453125 -1.5625 0.453125q-0.671875 0 -1.203125 -0.234375q-0.515625 -0.25 -0.8125 -0.671875q-0.28125 -0.4375 -0.28125 -0.9375l0.953125 0q0.03125 0.484375 0.390625 0.765625q0.359375 0.28125 0.953125 0.28125q0.546875 0 0.875 -0.21875q0.328125 -0.21875 0.328125 -0.59375zm4.557129 1.609375q-1.140625 0 -1.859375 -0.75q-0.71875 -0.765625 -0.71875 -2.015625l0 -0.171875q0 -0.84375 0.3125 -1.5q0.328125 -0.65625 0.90625 -1.03125q0.578125 -0.375 1.234375 -0.375q1.109375 0 1.71875 0.734375q0.609375 0.71875 0.609375 2.0625l0 0.390625l-3.8125 0q0.015625 0.84375 0.484375 1.359375q0.46875 0.5 1.171875 0.5q0.515625 0 0.859375 -0.203125q0.359375 -0.203125 0.625 -0.546875l0.59375 0.453125q-0.703125 1.09375 -2.125 1.09375zm-0.125 -5.046875q-0.578125 0 -0.96875 0.421875q-0.390625 0.421875 -0.484375 1.1875l2.8125 0l0 -0.078125q-0.046875 -0.734375 -0.40625 -1.125q-0.34375 -0.40625 -0.953125 -0.40625zm6.708008 3.4375q0 -0.390625 -0.296875 -0.59375q-0.28125 -0.21875 -1.015625 -0.375q-0.734375 -0.15625 -1.171875 -0.375q-0.421875 -0.21875 -0.625 -0.515625q-0.203125 -0.3125 -0.203125 -0.71875q0 -0.703125 0.578125 -1.171875q0.59375 -0.484375 1.5 -0.484375q0.953125 0 1.546875 0.5q0.609375 0.484375 0.609375 1.265625l-0.96875 0q0 -0.40625 -0.34375 -0.6875q-0.328125 -0.28125 -0.84375 -0.28125q-0.515625 0 -0.8125 0.234375q-0.296875 0.21875 -0.296875 0.59375q0 0.34375 0.265625 0.53125q0.28125 0.171875 1.0 0.328125q0.71875 0.15625 1.15625 0.390625q0.453125 0.21875 0.671875 0.53125q0.21875 0.3125 0.21875 0.765625q0 0.75 -0.609375 1.21875q-0.59375 0.453125 -1.5625 0.453125q-0.671875 0 -1.203125 -0.234375q-0.515625 -0.25 -0.8125 -0.671875q-0.28125 -0.4375 -0.28125 -0.9375l0.953125 0q0.03125 0.484375 0.390625 0.765625q0.359375 0.28125 0.953125 0.28125q0.546875 0 0.875 -0.21875q0.328125 -0.21875 0.328125 -0.59375zm4.6326904 -1.359375q0 -1.296875 0.609375 -2.078125q0.609375 -0.796875 1.609375 -0.796875q0.984375 0 1.5625 0.671875l0 -2.9375l0.96875 0l0 8.0l-0.890625 0l-0.046875 -0.609375q-0.578125 0.71875 -1.609375 0.71875q-0.96875 0 -1.59375 -0.796875q-0.609375 -0.8125 -0.609375 -2.09375l0 -0.078125zm0.953125 0.109375q0 0.953125 0.390625 1.5q0.40625 0.53125 1.09375 0.53125q0.921875 0 1.34375 -0.8125l0 -2.59375q-0.4375 -0.796875 -1.328125 -0.796875q-0.703125 0 -1.109375 0.546875q-0.390625 0.546875 -0.390625 1.625zm7.61911 2.859375q-1.140625 0 -1.859375 -0.75q-0.71875 -0.765625 -0.71875 -2.015625l0 -0.171875q0 -0.84375 0.3125 -1.5q0.328125 -0.65625 0.90625 -1.03125q0.578125 -0.375 1.234375 -0.375q1.109375 0 1.71875 0.734375q0.609375 0.71875 0.609375 2.0625l0 0.390625l-3.8125 0q0.015625 0.84375 0.484375 1.359375q0.46875 0.5 1.171875 0.5q0.515625 0 0.859375 -0.203125q0.359375 -0.203125 0.625 -0.546875l0.59375 0.453125q-0.703125 1.09375 -2.125 1.09375zm-0.125 -5.046875q-0.578125 0 -0.96875 0.421875q-0.390625 0.421875 -0.484375 1.1875l2.8125 0l0 -0.078125q-0.046875 -0.734375 -0.40625 -1.125q-0.34375 -0.40625 -0.953125 -0.40625zm5.8460693 2.078125q0 -1.296875 0.609375 -2.078125q0.609375 -0.796875 1.609375 -0.796875q0.984375 0 1.5625 0.671875l0 -2.9375l0.96875 0l0 8.0l-0.890625 0l-0.046875 -0.609375q-0.578125 0.71875 -1.609375 0.71875q-0.96875 0 -1.59375 -0.796875q-0.609375 -0.8125 -0.609375 -2.09375l0 -0.078125zm0.953125 0.109375q0 0.953125 0.390625 1.5q0.40625 0.53125 1.09375 0.53125q0.921875 0 1.34375 -0.8125l0 -2.59375q-0.4375 -0.796875 -1.328125 -0.796875q-0.703125 0 -1.109375 0.546875q-0.390625 0.546875 -0.390625 1.625zm8.759766 2.75q-0.078125 -0.171875 -0.140625 -0.59375q-0.671875 0.703125 -1.59375 0.703125q-0.828125 0 -1.375 -0.46875q-0.53125 -0.484375 -0.53125 -1.203125q0 -0.875 0.671875 -1.359375q0.671875 -0.484375 1.875 -0.484375l0.9375 0l0 -0.453125q0 -0.5 -0.296875 -0.796875q-0.296875 -0.296875 -0.890625 -0.296875q-0.515625 0 -0.859375 0.265625q-0.34375 0.25 -0.34375 0.625l-0.96875 0q0 -0.421875 0.296875 -0.8125q0.296875 -0.40625 0.8125 -0.625q0.515625 -0.234375 1.125 -0.234375q0.96875 0 1.515625 0.484375q0.5625 0.484375 0.578125 1.34375l0 2.59375q0 0.765625 0.203125 1.234375l0 0.078125l-1.015625 0zm-1.59375 -0.734375q0.453125 0 0.859375 -0.234375q0.40625 -0.234375 0.578125 -0.609375l0 -1.15625l-0.75 0q-1.765625 0 -1.765625 1.03125q0 0.453125 0.296875 0.71875q0.3125 0.25 0.78125 0.25zm5.218292 -6.265625l0 1.375l1.046875 0l0 0.734375l-1.046875 0l0 3.5q0 0.328125 0.140625 0.5q0.140625 0.171875 0.484375 0.171875q0.15625 0 0.453125 -0.0625l0 0.78125q-0.375 0.109375 -0.734375 0.109375q-0.640625 0 -0.96875 -0.390625q-0.328125 -0.390625 -0.328125 -1.109375l0 -3.5l-1.03125 0l0 -0.734375l1.03125 0l0 -1.375l0.953125 0zm1.8143005 4.140625q0 -0.828125 0.328125 -1.484375q0.328125 -0.671875 0.90625 -1.03125q0.578125 -0.359375 1.328125 -0.359375q1.140625 0 1.84375 0.796875q0.71875 0.796875 0.71875 2.125l0 0.0625q0 0.8125 -0.3125 1.46875q-0.3125 0.65625 -0.90625 1.03125q-0.578125 0.359375 -1.34375 0.359375q-1.140625 0 -1.859375 -0.796875q-0.703125 -0.796875 -0.703125 -2.109375l0 -0.0625zm0.96875 0.109375q0 0.9375 0.4375 1.5q0.4375 0.5625 1.15625 0.5625q0.734375 0 1.171875 -0.5625q0.4375 -0.578125 0.4375 -1.609375q0 -0.9375 -0.453125 -1.5q-0.4375 -0.578125 -1.15625 -0.578125q-0.71875 0 -1.15625 0.5625q-0.4375 0.5625 -0.4375 1.625zm8.639893 1.25q0 -0.390625 -0.296875 -0.59375q-0.28125 -0.21875 -1.015625 -0.375q-0.734375 -0.15625 -1.171875 -0.375q-0.421875 -0.21875 -0.625 -0.515625q-0.203125 -0.3125 -0.203125 -0.71875q0 -0.703125 0.578125 -1.171875q0.59375 -0.484375 1.5 -0.484375q0.953125 0 1.546875 0.5q0.609375 0.484375 0.609375 1.265625l-0.96875 0q0 -0.40625 -0.34375 -0.6875q-0.328125 -0.28125 -0.84375 -0.28125q-0.515625 0 -0.8125 0.234375q-0.296875 0.21875 -0.296875 0.59375q0 0.34375 0.265625 0.53125q0.28125 0.171875 1.0 0.328125q0.71875 0.15625 1.15625 0.390625q0.453125 0.21875 0.671875 0.53125q0.21875 0.3125 0.21875 0.765625q0 0.75 -0.609375 1.21875q-0.59375 0.453125 -1.5625 0.453125q-0.671875 0 -1.203125 -0.234375q-0.515625 -0.25 -0.8125 -0.671875q-0.28125 -0.4375 -0.28125 -0.9375l0.953125 0q0.03125 0.484375 0.390625 0.765625q0.359375 0.28125 0.953125 0.28125q0.546875 0 0.875 -0.21875q0.328125 -0.21875 0.328125 -0.59375z" fill-rule="nonzero"/><path fill="#414141" d="m582.01575 389.7933l177.95276 0l0 21.763794l-177.95276 0z" fill-rule="evenodd"/><path fill="#ffffff" d="m611.9503 401.44644l0 2.96875l-1.0 0l0 -7.578125l2.796875 0q1.25 0 1.953125 0.640625q0.703125 0.625 0.703125 1.671875q0 1.109375 -0.6875 1.703125q-0.6875 0.59375 -1.984375 0.59375l-1.78125 0zm0 -0.8125l1.796875 0q0.796875 0 1.21875 -0.375q0.4375 -0.375 0.4375 -1.09375q0 -0.671875 -0.4375 -1.078125q-0.421875 -0.40625 -1.15625 -0.421875l-1.859375 0l0 2.96875zm8.30072 -0.984375q-0.21875 -0.03125 -0.484375 -0.03125q-0.9375 0 -1.28125 0.796875l0 4.0l-0.953125 0l0 -5.625l0.9375 0l0.015625 0.640625q0.46875 -0.75 1.328125 -0.75q0.28125 0 0.4375 0.078125l0 0.890625zm3.116272 4.875q-1.140625 0 -1.859375 -0.75q-0.71875 -0.765625 -0.71875 -2.015625l0 -0.171875q0 -0.84375 0.3125 -1.5q0.328125 -0.65625 0.90625 -1.03125q0.578125 -0.375 1.234375 -0.375q1.109375 0 1.71875 0.734375q0.609375 0.71875 0.609375 2.0625l0 0.390625l-3.8125 0q0.015625 0.84375 0.484375 1.359375q0.46875 0.5 1.171875 0.5q0.515625 0 0.859375 -0.203125q0.359375 -0.203125 0.625 -0.546875l0.59375 0.453125q-0.703125 1.09375 -2.125 1.09375zm-0.125 -5.046875q-0.578125 0 -0.96875 0.421875q-0.390625 0.421875 -0.484375 1.1875l2.8125 0l0 -0.078125q-0.046875 -0.734375 -0.40625 -1.125q-0.34375 -0.40625 -0.953125 -0.40625zm8.192383 2.1875q0 1.28125 -0.59375 2.078125q-0.578125 0.78125 -1.59375 0.78125q-1.015625 0 -1.609375 -0.65625l0 2.71875l-0.953125 0l0 -7.796875l0.875 0l0.046875 0.625q0.59375 -0.734375 1.625 -0.734375q1.015625 0 1.609375 0.765625q0.59375 0.765625 0.59375 2.125l0 0.09375zm-0.96875 -0.109375q0 -0.953125 -0.40625 -1.5q-0.40625 -0.5625 -1.109375 -0.5625q-0.875 0 -1.3125 0.78125l0 2.6875q0.4375 0.765625 1.328125 0.765625q0.6875 0 1.09375 -0.546875q0.40625 -0.546875 0.40625 -1.625zm5.6660156 2.859375q-0.078125 -0.171875 -0.140625 -0.59375q-0.671875 0.703125 -1.59375 0.703125q-0.828125 0 -1.375 -0.46875q-0.53125 -0.484375 -0.53125 -1.203125q0 -0.875 0.671875 -1.359375q0.671875 -0.484375 1.875 -0.484375l0.9375 0l0 -0.453125q0 -0.5 -0.296875 -0.796875q-0.296875 -0.296875 -0.890625 -0.296875q-0.515625 0 -0.859375 0.265625q-0.34375 0.25 -0.34375 0.625l-0.96875 0q0 -0.421875 0.296875 -0.8125q0.296875 -0.40625 0.8125 -0.625q0.515625 -0.234375 1.125 -0.234375q0.96875 0 1.515625 0.484375q0.5625 0.484375 0.578125 1.34375l0 2.59375q0 0.765625 0.203125 1.234375l0 0.078125l-1.015625 0zm-1.59375 -0.734375q0.453125 0 0.859375 -0.234375q0.40625 -0.234375 0.578125 -0.609375l0 -1.15625l-0.75 0q-1.765625 0 -1.765625 1.03125q0 0.453125 0.296875 0.71875q0.3125 0.25 0.78125 0.25zm6.6401978 -4.03125q-0.21875 -0.03125 -0.484375 -0.03125q-0.9375 0 -1.28125 0.796875l0 4.0l-0.953125 0l0 -5.625l0.9375 0l0.015625 0.640625q0.46875 -0.75 1.328125 -0.75q0.28125 0 0.4375 0.078125l0 0.890625zm4.147522 4.765625q-0.078125 -0.171875 -0.140625 -0.59375q-0.671875 0.703125 -1.59375 0.703125q-0.828125 0 -1.375 -0.46875q-0.53125 -0.484375 -0.53125 -1.203125q0 -0.875 0.671875 -1.359375q0.671875 -0.484375 1.875 -0.484375l0.9375 0l0 -0.453125q0 -0.5 -0.296875 -0.796875q-0.296875 -0.296875 -0.890625 -0.296875q-0.515625 0 -0.859375 0.265625q-0.34375 0.25 -0.34375 0.625l-0.96875 0q0 -0.421875 0.296875 -0.8125q0.296875 -0.40625 0.8125 -0.625q0.515625 -0.234375 1.125 -0.234375q0.96875 0 1.515625 0.484375q0.5625 0.484375 0.578125 1.34375l0 2.59375q0 0.765625 0.203125 1.234375l0 0.078125l-1.015625 0zm-1.59375 -0.734375q0.453125 0 0.859375 -0.234375q0.40625 -0.234375 0.578125 -0.609375l0 -1.15625l-0.75 0q-1.765625 0 -1.765625 1.03125q0 0.453125 0.296875 0.71875q0.3125 0.25 0.78125 0.25zm6.1713867 0.046875q0.515625 0 0.890625 -0.3125q0.390625 -0.3125 0.4375 -0.78125l0.90625 0q-0.015625 0.484375 -0.328125 0.921875q-0.3125 0.4375 -0.828125 0.703125q-0.5 0.265625 -1.078125 0.265625q-1.140625 0 -1.828125 -0.765625q-0.671875 -0.78125 -0.671875 -2.109375l0 -0.15625q0 -0.828125 0.296875 -1.46875q0.296875 -0.640625 0.859375 -0.984375q0.578125 -0.359375 1.34375 -0.359375q0.9375 0 1.5625 0.578125q0.640625 0.5625 0.671875 1.46875l-0.90625 0q-0.046875 -0.546875 -0.421875 -0.890625q-0.359375 -0.359375 -0.90625 -0.359375q-0.734375 0 -1.140625 0.53125q-0.40625 0.515625 -0.40625 1.515625l0 0.1875q0 0.96875 0.40625 1.5q0.40625 0.515625 1.140625 0.515625zm4.374756 0.6875l-0.96875 0l0 -5.625l0.96875 0l0 5.625zm-1.046875 -7.125q0 -0.234375 0.140625 -0.390625q0.140625 -0.171875 0.421875 -0.171875q0.28125 0 0.421875 0.171875q0.15625 0.15625 0.15625 0.390625q0 0.234375 -0.15625 0.390625q-0.140625 0.15625 -0.421875 0.15625q-0.28125 0 -0.421875 -0.15625q-0.140625 -0.15625 -0.140625 -0.390625zm2.3204346 4.265625q0 -0.828125 0.328125 -1.484375q0.328125 -0.671875 0.90625 -1.03125q0.578125 -0.359375 1.328125 -0.359375q1.140625 0 1.84375 0.796875q0.71875 0.796875 0.71875 2.125l0 0.0625q0 0.8125 -0.3125 1.46875q-0.3125 0.65625 -0.90625 1.03125q-0.578125 0.359375 -1.34375 0.359375q-1.140625 0 -1.859375 -0.796875q-0.703125 -0.796875 -0.703125 -2.109375l0 -0.0625zm0.96875 0.109375q0 0.9375 0.4375 1.5q0.4375 0.5625 1.15625 0.5625q0.734375 0 1.171875 -0.5625q0.4375 -0.578125 0.4375 -1.609375q0 -0.9375 -0.453125 -1.5q-0.4375 -0.578125 -1.15625 -0.578125q-0.71875 0 -1.15625 0.5625q-0.4375 0.5625 -0.4375 1.625zm2.03125 -5.25l1.171875 0l-1.390625 1.53125l-0.78125 0l1.0 -1.53125zm4.2492676 2.375l0.03125 0.703125q0.640625 -0.8125 1.6875 -0.8125q1.78125 0 1.796875 2.015625l0 3.71875l-0.96875 0l0 -3.71875q0 -0.609375 -0.28125 -0.90625q-0.265625 -0.296875 -0.84375 -0.296875q-0.46875 0 -0.828125 0.25q-0.34375 0.25 -0.546875 0.65625l0 4.015625l-0.953125 0l0 -5.625l0.90625 0zm8.5177 0l0.015625 0.625q0.625 -0.734375 1.671875 -0.734375q1.1875 0 1.609375 0.90625q0.28125 -0.40625 0.734375 -0.65625q0.453125 -0.25 1.0625 -0.25q1.84375 0 1.875 1.96875l0 3.765625l-0.953125 0l0 -3.71875q0 -0.59375 -0.28125 -0.890625q-0.265625 -0.3125 -0.921875 -0.3125q-0.53125 0 -0.890625 0.328125q-0.359375 0.3125 -0.40625 0.859375l0 3.734375l-0.96875 0l0 -3.6875q0 -1.234375 -1.203125 -1.234375q-0.953125 0 -1.296875 0.8125l0 4.109375l-0.96875 0l0 -5.625l0.921875 0zm11.902344 5.625q-0.078125 -0.171875 -0.140625 -0.59375q-0.671875 0.703125 -1.59375 0.703125q-0.828125 0 -1.375 -0.46875q-0.53125 -0.484375 -0.53125 -1.203125q0 -0.875 0.671875 -1.359375q0.671875 -0.484375 1.875 -0.484375l0.9375 0l0 -0.453125q0 -0.5 -0.296875 -0.796875q-0.296875 -0.296875 -0.890625 -0.296875q-0.515625 0 -0.859375 0.265625q-0.34375 0.25 -0.34375 0.625l-0.96875 0q0 -0.421875 0.296875 -0.8125q0.296875 -0.40625 0.8125 -0.625q0.515625 -0.234375 1.125 -0.234375q0.96875 0 1.515625 0.484375q0.5625 0.484375 0.578125 1.34375l0 2.59375q0 0.765625 0.203125 1.234375l0 0.078125l-1.015625 0zm-1.59375 -0.734375q0.453125 0 0.859375 -0.234375q0.40625 -0.234375 0.578125 -0.609375l0 -1.15625l-0.75 0q-1.765625 0 -1.765625 1.03125q0 0.453125 0.296875 0.71875q0.3125 0.25 0.78125 0.25zm4.8276367 -4.890625l0.03125 0.703125q0.640625 -0.8125 1.6875 -0.8125q1.78125 0 1.796875 2.015625l0 3.71875l-0.96875 0l0 -3.71875q0 -0.609375 -0.28125 -0.90625q-0.265625 -0.296875 -0.84375 -0.296875q-0.46875 0 -0.828125 0.25q-0.34375 0.25 -0.546875 0.65625l0 4.015625l-0.953125 0l0 -5.625l0.90625 0zm8.4422 5.0625q-0.5625 0.671875 -1.640625 0.671875q-0.90625 0 -1.375 -0.515625q-0.46875 -0.53125 -0.484375 -1.5625l0 -3.65625l0.96875 0l0 3.625q0 1.28125 1.03125 1.28125q1.109375 0 1.46875 -0.8125l0 -4.09375l0.96875 0l0 5.625l-0.921875 0l-0.015625 -0.5625zm5.6713257 -0.9375q0 -0.390625 -0.296875 -0.59375q-0.28125 -0.21875 -1.015625 -0.375q-0.734375 -0.15625 -1.171875 -0.375q-0.421875 -0.21875 -0.625 -0.515625q-0.203125 -0.3125 -0.203125 -0.71875q0 -0.703125 0.578125 -1.171875q0.59375 -0.484375 1.5 -0.484375q0.953125 0 1.546875 0.5q0.609375 0.484375 0.609375 1.265625l-0.96875 0q0 -0.40625 -0.34375 -0.6875q-0.328125 -0.28125 -0.84375 -0.28125q-0.515625 0 -0.8125 0.234375q-0.296875 0.21875 -0.296875 0.59375q0 0.34375 0.265625 0.53125q0.28125 0.171875 1.0 0.328125q0.71875 0.15625 1.15625 0.390625q0.453125 0.21875 0.671875 0.53125q0.21875 0.3125 0.21875 0.765625q0 0.75 -0.609375 1.21875q-0.59375 0.453125 -1.5625 0.453125q-0.671875 0 -1.203125 -0.234375q-0.515625 -0.25 -0.8125 -0.671875q-0.28125 -0.4375 -0.28125 -0.9375l0.953125 0q0.03125 0.484375 0.390625 0.765625q0.359375 0.28125 0.953125 0.28125q0.546875 0 0.875 -0.21875q0.328125 -0.21875 0.328125 -0.59375zm4.479004 0.8125q0.515625 0 0.890625 -0.3125q0.390625 -0.3125 0.4375 -0.78125l0.90625 0q-0.015625 0.484375 -0.328125 0.921875q-0.3125 0.4375 -0.828125 0.703125q-0.5 0.265625 -1.078125 0.265625q-1.140625 0 -1.828125 -0.765625q-0.671875 -0.78125 -0.671875 -2.109375l0 -0.15625q0 -0.828125 0.296875 -1.46875q0.296875 -0.640625 0.859375 -0.984375q0.578125 -0.359375 1.34375 -0.359375q0.9375 0 1.5625 0.578125q0.640625 0.5625 0.671875 1.46875l-0.90625 0q-0.046875 -0.546875 -0.421875 -0.890625q-0.359375 -0.359375 -0.90625 -0.359375q-0.734375 0 -1.140625 0.53125q-0.40625 0.515625 -0.40625 1.515625l0 0.1875q0 0.96875 0.40625 1.5q0.40625 0.515625 1.140625 0.515625zm6.046631 -4.078125q-0.21875 -0.03125 -0.484375 -0.03125q-0.9375 0 -1.28125 0.796875l0 4.0l-0.953125 0l0 -5.625l0.9375 0l0.015625 0.640625q0.46875 -0.75 1.328125 -0.75q0.28125 0 0.4375 0.078125l0 0.890625zm1.93396 4.765625l-0.96875 0l0 -5.625l0.96875 0l0 5.625zm-1.046875 -7.125q0 -0.234375 0.140625 -0.390625q0.140625 -0.171875 0.421875 -0.171875q0.28125 0 0.421875 0.171875q0.15625 0.15625 0.15625 0.390625q0 0.234375 -0.15625 0.390625q-0.140625 0.15625 -0.421875 0.15625q-0.28125 0 -0.421875 -0.15625q-0.140625 -0.15625 -0.140625 -0.390625zm3.8828735 0.125l0 1.375l1.046875 0l0 0.734375l-1.046875 0l0 3.5q0 0.328125 0.140625 0.5q0.140625 0.171875 0.484375 0.171875q0.15625 0 0.453125 -0.0625l0 0.78125q-0.375 0.109375 -0.734375 0.109375q-0.640625 0 -0.96875 -0.390625q-0.328125 -0.390625 -0.328125 -1.109375l0 -3.5l-1.03125 0l0 -0.734375l1.03125 0l0 -1.375l0.953125 0zm1.814331 4.140625q0 -0.828125 0.328125 -1.484375q0.328125 -0.671875 0.90625 -1.03125q0.578125 -0.359375 1.328125 -0.359375q1.140625 0 1.84375 0.796875q0.71875 0.796875 0.71875 2.125l0 0.0625q0 0.8125 -0.3125 1.46875q-0.3125 0.65625 -0.90625 1.03125q-0.578125 0.359375 -1.34375 0.359375q-1.140625 0 -1.859375 -0.796875q-0.703125 -0.796875 -0.703125 -2.109375l0 -0.0625zm0.96875 0.109375q0 0.9375 0.4375 1.5q0.4375 0.5625 1.15625 0.5625q0.734375 0 1.171875 -0.5625q0.4375 -0.578125 0.4375 -1.609375q0 -0.9375 -0.453125 -1.5q-0.4375 -0.578125 -1.15625 -0.578125q-0.71875 0 -1.15625 0.5625q-0.4375 0.5625 -0.4375 1.625zm12.871643 2.75l-4.96875 0l0 -0.6875l2.625 -2.921875q0.578125 -0.65625 0.796875 -1.0625q0.234375 -0.421875 0.234375 -0.859375q0 -0.59375 -0.359375 -0.96875q-0.359375 -0.390625 -0.96875 -0.390625q-0.703125 0 -1.109375 0.40625q-0.390625 0.40625 -0.390625 1.140625l-0.96875 0q0 -1.046875 0.671875 -1.6875q0.671875 -0.65625 1.796875 -0.65625q1.0625 0 1.671875 0.5625q0.625 0.546875 0.625 1.46875q0 1.125 -1.4375 2.671875l-2.015625 2.203125l3.796875 0l0 0.78125z" fill-rule="nonzero"/><path fill="#464646" d="m757.89734 424.10236l146.51965 0l0 21.763794l-146.51965 0z" fill-rule="evenodd"/><path fill="#ffffff" d="m812.52 438.72424l0 -7.578125l2.140625 0q0.984375 0 1.75 0.4375q0.765625 0.4375 1.171875 1.25q0.421875 0.796875 0.421875 1.84375l0 0.484375q0 1.078125 -0.421875 1.890625q-0.40625 0.796875 -1.171875 1.234375q-0.765625 0.421875 -1.796875 0.4375l-2.09375 0zm1.0 -6.75l0 5.9375l1.046875 0q1.15625 0 1.796875 -0.71875q0.65625 -0.71875 0.65625 -2.046875l0 -0.4375q0 -1.296875 -0.609375 -2.015625q-0.609375 -0.71875 -1.71875 -0.71875l-1.171875 0zm8.175476 6.859375q-1.140625 0 -1.859375 -0.75q-0.71875 -0.765625 -0.71875 -2.015625l0 -0.171875q0 -0.84375 0.3125 -1.5q0.328125 -0.65625 0.90625 -1.03125q0.578125 -0.375 1.234375 -0.375q1.109375 0 1.71875 0.734375q0.609375 0.71875 0.609375 2.0625l0 0.390625l-3.8125 0q0.015625 0.84375 0.484375 1.359375q0.46875 0.5 1.171875 0.5q0.515625 0 0.859375 -0.203125q0.359375 -0.203125 0.625 -0.546875l0.59375 0.453125q-0.703125 1.09375 -2.125 1.09375zm-0.125 -5.046875q-0.578125 0 -0.96875 0.421875q-0.390625 0.421875 -0.484375 1.1875l2.8125 0l0 -0.078125q-0.046875 -0.734375 -0.40625 -1.125q-0.34375 -0.40625 -0.953125 -0.40625zm3.9111328 4.9375l0 -4.890625l-0.890625 0l0 -0.734375l0.890625 0l0 -0.578125q0 -0.90625 0.484375 -1.390625q0.484375 -0.5 1.359375 -0.5q0.34375 0 0.671875 0.078125l-0.0625 0.78125q-0.234375 -0.046875 -0.515625 -0.046875q-0.46875 0 -0.71875 0.28125q-0.25 0.265625 -0.25 0.78125l0 0.59375l1.1875 0l0 0.734375l-1.1875 0l0 4.890625l-0.96875 0zm5.433899 0.109375q-1.140625 0 -1.859375 -0.75q-0.71875 -0.765625 -0.71875 -2.015625l0 -0.171875q0 -0.84375 0.3125 -1.5q0.328125 -0.65625 0.90625 -1.03125q0.578125 -0.375 1.234375 -0.375q1.109375 0 1.71875 0.734375q0.609375 0.71875 0.609375 2.0625l0 0.390625l-3.8125 0q0.015625 0.84375 0.484375 1.359375q0.46875 0.5 1.171875 0.5q0.515625 0 0.859375 -0.203125q0.359375 -0.203125 0.625 -0.546875l0.59375 0.453125q-0.703125 1.09375 -2.125 1.09375zm-0.125 -5.046875q-0.578125 0 -0.96875 0.421875q-0.390625 0.421875 -0.484375 1.1875l2.8125 0l0 -0.078125q-0.046875 -0.734375 -0.40625 -1.125q-0.34375 -0.40625 -0.953125 -0.40625zm4.348633 -0.6875l0.03125 0.703125q0.640625 -0.8125 1.6875 -0.8125q1.78125 0 1.796875 2.015625l0 3.71875l-0.96875 0l0 -3.71875q0 -0.609375 -0.28125 -0.90625q-0.265625 -0.296875 -0.84375 -0.296875q-0.46875 0 -0.828125 0.25q-0.34375 0.25 -0.546875 0.65625l0 4.015625l-0.953125 0l0 -5.625l0.90625 0zm8.239075 4.125q0 -0.390625 -0.296875 -0.59375q-0.28125 -0.21875 -1.015625 -0.375q-0.734375 -0.15625 -1.171875 -0.375q-0.421875 -0.21875 -0.625 -0.515625q-0.203125 -0.3125 -0.203125 -0.71875q0 -0.703125 0.578125 -1.171875q0.59375 -0.484375 1.5 -0.484375q0.953125 0 1.546875 0.5q0.609375 0.484375 0.609375 1.265625l-0.96875 0q0 -0.40625 -0.34375 -0.6875q-0.328125 -0.28125 -0.84375 -0.28125q-0.515625 0 -0.8125 0.234375q-0.296875 0.21875 -0.296875 0.59375q0 0.34375 0.265625 0.53125q0.28125 0.171875 1.0 0.328125q0.71875 0.15625 1.15625 0.390625q0.453125 0.21875 0.671875 0.53125q0.21875 0.3125 0.21875 0.765625q0 0.75 -0.609375 1.21875q-0.59375 0.453125 -1.5625 0.453125q-0.671875 0 -1.203125 -0.234375q-0.515625 -0.25 -0.8125 -0.671875q-0.28125 -0.4375 -0.28125 -0.9375l0.953125 0q0.03125 0.484375 0.390625 0.765625q0.359375 0.28125 0.953125 0.28125q0.546875 0 0.875 -0.21875q0.328125 -0.21875 0.328125 -0.59375zm5.697754 1.5q-0.078125 -0.171875 -0.140625 -0.59375q-0.671875 0.703125 -1.59375 0.703125q-0.828125 0 -1.375 -0.46875q-0.53125 -0.484375 -0.53125 -1.203125q0 -0.875 0.671875 -1.359375q0.671875 -0.484375 1.875 -0.484375l0.9375 0l0 -0.453125q0 -0.5 -0.296875 -0.796875q-0.296875 -0.296875 -0.890625 -0.296875q-0.515625 0 -0.859375 0.265625q-0.34375 0.25 -0.34375 0.625l-0.96875 0q0 -0.421875 0.296875 -0.8125q0.296875 -0.40625 0.8125 -0.625q0.515625 -0.234375 1.125 -0.234375q0.96875 0 1.515625 0.484375q0.5625 0.484375 0.578125 1.34375l0 2.59375q0 0.765625 0.203125 1.234375l0 0.078125l-1.015625 0zm-1.59375 -0.734375q0.453125 0 0.859375 -0.234375q0.40625 -0.234375 0.578125 -0.609375l0 -1.15625l-0.75 0q-1.765625 0 -1.765625 1.03125q0 0.453125 0.296875 0.71875q0.3125 0.25 0.78125 0.25z" fill-rule="nonzero"/><path fill="#3d3d3d" d="m392.7795 355.85828l189.22836 0l0 21.763763l-189.22836 0z" fill-rule="evenodd"/><path fill="#ffffff" d="m428.35187 367.5114l0 2.96875l-1.0 0l0 -7.578125l2.796875 0q1.25 0 1.953125 0.640625q0.703125 0.625 0.703125 1.671875q0 1.109375 -0.6875 1.703125q-0.6875 0.59375 -1.984375 0.59375l-1.78125 0zm0 -0.8125l1.796875 0q0.796875 0 1.21875 -0.375q0.4375 -0.375 0.4375 -1.09375q0 -0.671875 -0.4375 -1.078125q-0.421875 -0.40625 -1.15625 -0.421875l-1.859375 0l0 2.96875zm8.30072 -0.984375q-0.21875 -0.03125 -0.484375 -0.03125q-0.9375 0 -1.28125 0.796875l0 4.0l-0.953125 0l0 -5.625l0.9375 0l0.015625 0.640625q0.46875 -0.75 1.328125 -0.75q0.28125 0 0.4375 0.078125l0 0.890625zm3.116272 4.875q-1.140625 0 -1.859375 -0.75q-0.71875 -0.765625 -0.71875 -2.015625l0 -0.171875q0 -0.84375 0.3125 -1.5q0.328125 -0.65625 0.90625 -1.03125q0.578125 -0.375 1.234375 -0.375q1.109375 0 1.71875 0.734375q0.609375 0.71875 0.609375 2.0625l0 0.390625l-3.8125 0q0.015625 0.84375 0.484375 1.359375q0.46875 0.5 1.171875 0.5q0.515625 0 0.859375 -0.203125q0.359375 -0.203125 0.625 -0.546875l0.59375 0.453125q-0.703125 1.09375 -2.125 1.09375zm-0.125 -5.046875q-0.578125 0 -0.96875 0.421875q-0.390625 0.421875 -0.484375 1.1875l2.8125 0l0 -0.078125q-0.046875 -0.734375 -0.40625 -1.125q-0.34375 -0.40625 -0.953125 -0.40625zm8.192413 2.1875q0 1.28125 -0.59375 2.078125q-0.578125 0.78125 -1.59375 0.78125q-1.015625 0 -1.609375 -0.65625l0 2.71875l-0.953125 0l0 -7.796875l0.875 0l0.046875 0.625q0.59375 -0.734375 1.625 -0.734375q1.015625 0 1.609375 0.765625q0.59375 0.765625 0.59375 2.125l0 0.09375zm-0.96875 -0.109375q0 -0.953125 -0.40625 -1.5q-0.40625 -0.5625 -1.109375 -0.5625q-0.875 0 -1.3125 0.78125l0 2.6875q0.4375 0.765625 1.328125 0.765625q0.6875 0 1.09375 -0.546875q0.40625 -0.546875 0.40625 -1.625zm5.6660156 2.859375q-0.078125 -0.171875 -0.140625 -0.59375q-0.671875 0.703125 -1.59375 0.703125q-0.828125 0 -1.375 -0.46875q-0.53125 -0.484375 -0.53125 -1.203125q0 -0.875 0.671875 -1.359375q0.671875 -0.484375 1.875 -0.484375l0.9375 0l0 -0.453125q0 -0.5 -0.296875 -0.796875q-0.296875 -0.296875 -0.890625 -0.296875q-0.515625 0 -0.859375 0.265625q-0.34375 0.25 -0.34375 0.625l-0.96875 0q0 -0.421875 0.296875 -0.8125q0.296875 -0.40625 0.8125 -0.625q0.515625 -0.234375 1.125 -0.234375q0.96875 0 1.515625 0.484375q0.5625 0.484375 0.578125 1.34375l0 2.59375q0 0.765625 0.203125 1.234375l0 0.078125l-1.015625 0zm-1.59375 -0.734375q0.453125 0 0.859375 -0.234375q0.40625 -0.234375 0.578125 -0.609375l0 -1.15625l-0.75 0q-1.765625 0 -1.765625 1.03125q0 0.453125 0.296875 0.71875q0.3125 0.25 0.78125 0.25zm6.640167 -4.03125q-0.21875 -0.03125 -0.484375 -0.03125q-0.9375 0 -1.28125 0.796875l0 4.0l-0.953125 0l0 -5.625l0.9375 0l0.015625 0.640625q0.46875 -0.75 1.328125 -0.75q0.28125 0 0.4375 0.078125l0 0.890625zm4.147522 4.765625q-0.078125 -0.171875 -0.140625 -0.59375q-0.671875 0.703125 -1.59375 0.703125q-0.828125 0 -1.375 -0.46875q-0.53125 -0.484375 -0.53125 -1.203125q0 -0.875 0.671875 -1.359375q0.671875 -0.484375 1.875 -0.484375l0.9375 0l0 -0.453125q0 -0.5 -0.296875 -0.796875q-0.296875 -0.296875 -0.890625 -0.296875q-0.515625 0 -0.859375 0.265625q-0.34375 0.25 -0.34375 0.625l-0.96875 0q0 -0.421875 0.296875 -0.8125q0.296875 -0.40625 0.8125 -0.625q0.515625 -0.234375 1.125 -0.234375q0.96875 0 1.515625 0.484375q0.5625 0.484375 0.578125 1.34375l0 2.59375q0 0.765625 0.203125 1.234375l0 0.078125l-1.015625 0zm-1.59375 -0.734375q0.453125 0 0.859375 -0.234375q0.40625 -0.234375 0.578125 -0.609375l0 -1.15625l-0.75 0q-1.765625 0 -1.765625 1.03125q0 0.453125 0.296875 0.71875q0.3125 0.25 0.78125 0.25zm6.171417 0.046875q0.515625 0 0.890625 -0.3125q0.390625 -0.3125 0.4375 -0.78125l0.90625 0q-0.015625 0.484375 -0.328125 0.921875q-0.3125 0.4375 -0.828125 0.703125q-0.5 0.265625 -1.078125 0.265625q-1.140625 0 -1.828125 -0.765625q-0.671875 -0.78125 -0.671875 -2.109375l0 -0.15625q0 -0.828125 0.296875 -1.46875q0.296875 -0.640625 0.859375 -0.984375q0.578125 -0.359375 1.34375 -0.359375q0.9375 0 1.5625 0.578125q0.640625 0.5625 0.671875 1.46875l-0.90625 0q-0.046875 -0.546875 -0.421875 -0.890625q-0.359375 -0.359375 -0.90625 -0.359375q-0.734375 0 -1.140625 0.53125q-0.40625 0.515625 -0.40625 1.515625l0 0.1875q0 0.96875 0.40625 1.5q0.40625 0.515625 1.140625 0.515625zm4.374756 0.6875l-0.96875 0l0 -5.625l0.96875 0l0 5.625zm-1.046875 -7.125q0 -0.234375 0.140625 -0.390625q0.140625 -0.171875 0.421875 -0.171875q0.28125 0 0.421875 0.171875q0.15625 0.15625 0.15625 0.390625q0 0.234375 -0.15625 0.390625q-0.140625 0.15625 -0.421875 0.15625q-0.28125 0 -0.421875 -0.15625q-0.140625 -0.15625 -0.140625 -0.390625zm2.320404 4.265625q0 -0.828125 0.328125 -1.484375q0.328125 -0.671875 0.90625 -1.03125q0.578125 -0.359375 1.328125 -0.359375q1.140625 0 1.84375 0.796875q0.71875 0.796875 0.71875 2.125l0 0.0625q0 0.8125 -0.3125 1.46875q-0.3125 0.65625 -0.90625 1.03125q-0.578125 0.359375 -1.34375 0.359375q-1.140625 0 -1.859375 -0.796875q-0.703125 -0.796875 -0.703125 -2.109375l0 -0.0625zm0.96875 0.109375q0 0.9375 0.4375 1.5q0.4375 0.5625 1.15625 0.5625q0.734375 0 1.171875 -0.5625q0.4375 -0.578125 0.4375 -1.609375q0 -0.9375 -0.453125 -1.5q-0.4375 -0.578125 -1.15625 -0.578125q-0.71875 0 -1.15625 0.5625q-0.4375 0.5625 -0.4375 1.625zm2.03125 -5.25l1.171875 0l-1.390625 1.53125l-0.78125 0l1.0 -1.53125zm4.2492676 2.375l0.03125 0.703125q0.640625 -0.8125 1.6875 -0.8125q1.78125 0 1.796875 2.015625l0 3.71875l-0.96875 0l0 -3.71875q0 -0.609375 -0.28125 -0.90625q-0.265625 -0.296875 -0.84375 -0.296875q-0.46875 0 -0.828125 0.25q-0.34375 0.25 -0.546875 0.65625l0 4.015625l-0.953125 0l0 -5.625l0.90625 0zm8.5177 0l0.015625 0.625q0.625 -0.734375 1.671875 -0.734375q1.1875 0 1.609375 0.90625q0.28125 -0.40625 0.734375 -0.65625q0.453125 -0.25 1.0625 -0.25q1.84375 0 1.875 1.96875l0 3.765625l-0.953125 0l0 -3.71875q0 -0.59375 -0.28125 -0.890625q-0.265625 -0.3125 -0.921875 -0.3125q-0.53125 0 -0.890625 0.328125q-0.359375 0.3125 -0.40625 0.859375l0 3.734375l-0.96875 0l0 -3.6875q0 -1.234375 -1.203125 -1.234375q-0.953125 0 -1.296875 0.8125l0 4.109375l-0.96875 0l0 -5.625l0.921875 0zm11.902344 5.625q-0.078125 -0.171875 -0.140625 -0.59375q-0.671875 0.703125 -1.59375 0.703125q-0.828125 0 -1.375 -0.46875q-0.53125 -0.484375 -0.53125 -1.203125q0 -0.875 0.671875 -1.359375q0.671875 -0.484375 1.875 -0.484375l0.9375 0l0 -0.453125q0 -0.5 -0.296875 -0.796875q-0.296875 -0.296875 -0.890625 -0.296875q-0.515625 0 -0.859375 0.265625q-0.34375 0.25 -0.34375 0.625l-0.96875 0q0 -0.421875 0.296875 -0.8125q0.296875 -0.40625 0.8125 -0.625q0.515625 -0.234375 1.125 -0.234375q0.96875 0 1.515625 0.484375q0.5625 0.484375 0.578125 1.34375l0 2.59375q0 0.765625 0.203125 1.234375l0 0.078125l-1.015625 0zm-1.59375 -0.734375q0.453125 0 0.859375 -0.234375q0.40625 -0.234375 0.578125 -0.609375l0 -1.15625l-0.75 0q-1.765625 0 -1.765625 1.03125q0 0.453125 0.296875 0.71875q0.3125 0.25 0.78125 0.25zm4.827667 -4.890625l0.03125 0.703125q0.640625 -0.8125 1.6875 -0.8125q1.78125 0 1.796875 2.015625l0 3.71875l-0.96875 0l0 -3.71875q0 -0.609375 -0.28125 -0.90625q-0.265625 -0.296875 -0.84375 -0.296875q-0.46875 0 -0.828125 0.25q-0.34375 0.25 -0.546875 0.65625l0 4.015625l-0.953125 0l0 -5.625l0.90625 0zm8.442169 5.0625q-0.5625 0.671875 -1.640625 0.671875q-0.90625 0 -1.375 -0.515625q-0.46875 -0.53125 -0.484375 -1.5625l0 -3.65625l0.96875 0l0 3.625q0 1.28125 1.03125 1.28125q1.109375 0 1.46875 -0.8125l0 -4.09375l0.96875 0l0 5.625l-0.921875 0l-0.015625 -0.5625zm5.6713257 -0.9375q0 -0.390625 -0.296875 -0.59375q-0.28125 -0.21875 -1.015625 -0.375q-0.734375 -0.15625 -1.171875 -0.375q-0.421875 -0.21875 -0.625 -0.515625q-0.203125 -0.3125 -0.203125 -0.71875q0 -0.703125 0.578125 -1.171875q0.59375 -0.484375 1.5 -0.484375q0.953125 0 1.546875 0.5q0.609375 0.484375 0.609375 1.265625l-0.96875 0q0 -0.40625 -0.34375 -0.6875q-0.328125 -0.28125 -0.84375 -0.28125q-0.515625 0 -0.8125 0.234375q-0.296875 0.21875 -0.296875 0.59375q0 0.34375 0.265625 0.53125q0.28125 0.171875 1.0 0.328125q0.71875 0.15625 1.15625 0.390625q0.453125 0.21875 0.671875 0.53125q0.21875 0.3125 0.21875 0.765625q0 0.75 -0.609375 1.21875q-0.59375 0.453125 -1.5625 0.453125q-0.671875 0 -1.203125 -0.234375q-0.515625 -0.25 -0.8125 -0.671875q-0.28125 -0.4375 -0.28125 -0.9375l0.953125 0q0.03125 0.484375 0.390625 0.765625q0.359375 0.28125 0.953125 0.28125q0.546875 0 0.875 -0.21875q0.328125 -0.21875 0.328125 -0.59375zm4.479004 0.8125q0.515625 0 0.890625 -0.3125q0.390625 -0.3125 0.4375 -0.78125l0.90625 0q-0.015625 0.484375 -0.328125 0.921875q-0.3125 0.4375 -0.828125 0.703125q-0.5 0.265625 -1.078125 0.265625q-1.140625 0 -1.828125 -0.765625q-0.671875 -0.78125 -0.671875 -2.109375l0 -0.15625q0 -0.828125 0.296875 -1.46875q0.296875 -0.640625 0.859375 -0.984375q0.578125 -0.359375 1.34375 -0.359375q0.9375 0 1.5625 0.578125q0.640625 0.5625 0.671875 1.46875l-0.90625 0q-0.046875 -0.546875 -0.421875 -0.890625q-0.359375 -0.359375 -0.90625 -0.359375q-0.734375 0 -1.140625 0.53125q-0.40625 0.515625 -0.40625 1.515625l0 0.1875q0 0.96875 0.40625 1.5q0.40625 0.515625 1.140625 0.515625zm6.046631 -4.078125q-0.21875 -0.03125 -0.484375 -0.03125q-0.9375 0 -1.28125 0.796875l0 4.0l-0.953125 0l0 -5.625l0.9375 0l0.015625 0.640625q0.46875 -0.75 1.328125 -0.75q0.28125 0 0.4375 0.078125l0 0.890625zm1.93396 4.765625l-0.96875 0l0 -5.625l0.96875 0l0 5.625zm-1.046875 -7.125q0 -0.234375 0.140625 -0.390625q0.140625 -0.171875 0.421875 -0.171875q0.28125 0 0.421875 0.171875q0.15625 0.15625 0.15625 0.390625q0 0.234375 -0.15625 0.390625q-0.140625 0.15625 -0.421875 0.15625q-0.28125 0 -0.421875 -0.15625q-0.140625 -0.15625 -0.140625 -0.390625zm3.8829346 0.125l0 1.375l1.046875 0l0 0.734375l-1.046875 0l0 3.5q0 0.328125 0.140625 0.5q0.140625 0.171875 0.484375 0.171875q0.15625 0 0.453125 -0.0625l0 0.78125q-0.375 0.109375 -0.734375 0.109375q-0.640625 0 -0.96875 -0.390625q-0.328125 -0.390625 -0.328125 -1.109375l0 -3.5l-1.03125 0l0 -0.734375l1.03125 0l0 -1.375l0.953125 0zm1.81427 4.140625q0 -0.828125 0.328125 -1.484375q0.328125 -0.671875 0.90625 -1.03125q0.578125 -0.359375 1.328125 -0.359375q1.140625 0 1.84375 0.796875q0.71875 0.796875 0.71875 2.125l0 0.0625q0 0.8125 -0.3125 1.46875q-0.3125 0.65625 -0.90625 1.03125q-0.578125 0.359375 -1.34375 0.359375q-1.140625 0 -1.859375 -0.796875q-0.703125 -0.796875 -0.703125 -2.109375l0 -0.0625zm0.96875 0.109375q0 0.9375 0.4375 1.5q0.4375 0.5625 1.15625 0.5625q0.734375 0 1.171875 -0.5625q0.4375 -0.578125 0.4375 -1.609375q0 -0.9375 -0.453125 -1.5q-0.4375 -0.578125 -1.15625 -0.578125q-0.71875 0 -1.15625 0.5625q-0.4375 0.5625 -0.4375 1.625zm11.074829 2.75l-0.96875 0l0 -6.421875l-1.9375 0.71875l0 -0.875l2.75 -1.03125l0.15625 0l0 7.609375z" fill-rule="nonzero"/><path fill="#505050" d="m901.5673 468.33844l3.4802856 -6.047241l3.4803467 6.047241z" fill-rule="evenodd"/><path fill="#505050" d="m463.56732 468.33844l3.4803162 -6.047241l3.4803162 6.047241z" fill-rule="evenodd"/><path fill="#000000" fill-opacity="0.0" d="m694.0158 150.29422l221.38495 0l0 307.3701l-221.38495 0z" fill-rule="evenodd"/><path stroke="#414141" stroke-width="1.0" stroke-linejoin="round" stroke-linecap="butt" d="m694.0158 150.29422l221.38495 0l0 307.3701l-221.38495 0z" fill-rule="evenodd"/><path fill="#414141" d="m694.0158 163.61441l221.38495 0l0 -13.32283l-221.38495 0z" fill-rule="evenodd"/><path fill="#000000" fill-opacity="0.0" d="m694.0158 163.61441l87.15021 0l0 83.244095l-87.15021 0z" fill-rule="evenodd"/><path fill="#414141" d="m735.46204 225.49646l-27.296875 0l0 -5.421875l12.890625 -13.71875q2.640625 -2.90625 3.90625 -5.0625q1.28125 -2.15625 1.28125 -4.09375q0 -2.65625 -1.34375 -4.171875q-1.328125 -1.515625 -3.828125 -1.515625q-2.671875 0 -4.21875 1.84375q-1.546875 1.84375 -1.546875 4.84375l-7.921875 0q0 -3.625 1.734375 -6.625q1.734375 -3.015625 4.90625 -4.71875q3.171875 -1.71875 7.1875 -1.71875q6.15625 0 9.5625 2.953125q3.40625 2.953125 3.40625 8.34375q0 2.953125 -1.53125 6.015625q-1.53125 3.0625 -5.25 7.125l-9.0625 9.546875l17.125 0l0 6.375zm26.26947 -40.21875l0 6.5l-0.765625 0q-5.359314 0.078125 -8.624939 2.796875q-3.265625 2.703125 -3.921875 7.515625q3.171875 -3.234375 8.015625 -3.234375q5.187439 0 8.249939 3.71875q3.0625 3.71875 3.0625 9.796875q0 3.875 -1.6875 7.03125q-1.671875 3.140625 -4.75 4.890625q-3.078125 1.75 -6.953064 1.75q-6.296875 0 -10.171875 -4.375q-3.859375 -4.375 -3.859375 -11.671875l0 -2.84375q0 -6.484375 2.4375 -11.4375q2.453125 -4.96875 7.03125 -7.6875q4.59375 -2.734375 10.624939 -2.75l1.3125 0zm-7.703064 19.921875q-1.921875 0 -3.484375 1.0q-1.546875 1.0 -2.28125 2.640625l0 2.40625q0 3.96875 1.546875 6.203125q1.5625 2.21875 4.375 2.21875q2.546875 0 4.109314 -2.0q1.578125 -2.015625 1.578125 -5.21875q0 -3.25 -1.59375 -5.25q-1.578064 -2.0 -4.249939 -2.0z" fill-rule="nonzero"/><path fill="#000000" fill-opacity="0.0" d="m701.1151 263.18723l38.1485 0l0 18.740173l-38.1485 0z" fill-rule="evenodd"/><path fill="#414141" d="m720.1468 270.11105l-2.140625 0l0 5.90625l-0.875 0l0 -5.90625l-2.125 0l0 -0.71875l5.140625 0l0 0.71875zm3.534668 5.90625l-0.859375 0l0 -5.609375l-1.6875 0.625l0 -0.765625l2.40625 -0.90625l0.140625 0l0 6.65625z" fill-rule="nonzero"/><path fill="#000000" fill-opacity="0.0" d="m758.31696 263.18723l38.14856 0l0 18.740173l-38.14856 0z" fill-rule="evenodd"/><path fill="#414141" d="m777.3487 270.11105l-2.140625 0l0 5.90625l-0.875 0l0 -5.90625l-2.125 0l0 -0.71875l5.140625 0l0 0.71875zm5.097107 5.90625l-4.34375 0l0 -0.609375l2.296875 -2.546875q0.515625 -0.578125 0.703125 -0.9375q0.203125 -0.359375 0.203125 -0.75q0 -0.515625 -0.328125 -0.84375q-0.3125 -0.34375 -0.828125 -0.34375q-0.625 0 -0.984375 0.359375q-0.34375 0.359375 -0.34375 1.0l-0.84375 0q0 -0.921875 0.59375 -1.484375q0.59375 -0.5625 1.578125 -0.5625q0.921875 0 1.453125 0.484375q0.546875 0.484375 0.546875 1.28125q0 0.984375 -1.25 2.34375l-1.78125 1.921875l3.328125 0l0 0.6875z" fill-rule="nonzero"/><path fill="#000000" fill-opacity="0.0" d="m811.98755 263.18723l38.14856 0l0 18.740173l-38.14856 0z" fill-rule="evenodd"/><path fill="#414141" d="m831.0193 270.11105l-2.140625 0l0 5.90625l-0.875 0l0 -5.90625l-2.125 0l0 -0.71875l5.140625 0l0 0.71875zm1.9877319 2.1875l0.625 0q0.59375 -0.015625 0.9375 -0.3125q0.34375 -0.3125 0.34375 -0.828125q0 -1.171875 -1.15625 -1.171875q-0.546875 0 -0.875 0.3125q-0.328125 0.3125 -0.328125 0.828125l-0.84375 0q0 -0.796875 0.578125 -1.3125q0.578125 -0.515625 1.46875 -0.515625q0.9375 0 1.46875 0.5q0.53125 0.484375 0.53125 1.375q0 0.4375 -0.28125 0.84375q-0.28125 0.390625 -0.765625 0.59375q0.546875 0.171875 0.84375 0.578125q0.296875 0.40625 0.296875 0.984375q0 0.890625 -0.578125 1.421875q-0.578125 0.515625 -1.515625 0.515625q-0.9375 0 -1.53125 -0.5q-0.578125 -0.515625 -0.578125 -1.34375l0.859375 0q0 0.53125 0.328125 0.84375q0.34375 0.3125 0.921875 0.3125q0.609375 0 0.9375 -0.3125q0.328125 -0.328125 0.328125 -0.921875q0 -0.578125 -0.359375 -0.890625q-0.359375 -0.3125 -1.03125 -0.3125l-0.625 0l0 -0.6875z" fill-rule="nonzero"/><path fill="#000000" fill-opacity="0.0" d="m870.1526 263.18723l38.1485 0l0 18.740173l-38.1485 0z" fill-rule="evenodd"/><path fill="#414141" d="m889.18427 270.11105l-2.140625 0l0 5.90625l-0.875 0l0 -5.90625l-2.125 0l0 -0.71875l5.140625 0l0 0.71875zm4.315918 3.671875l0.921875 0l0 0.6875l-0.921875 0l0 1.546875l-0.84375 0l0 -1.546875l-3.03125 0l0 -0.484375l2.984375 -4.59375l0.890625 0l0 4.390625zm-2.90625 0l2.0625 0l0 -3.25l-0.109375 0.1875l-1.953125 3.0625z" fill-rule="nonzero"/><path fill="#000000" fill-opacity="0.0" d="m749.6328 457.24957l0 -194.07874" fill-rule="evenodd"/><path stroke="#414141" stroke-width="1.0" stroke-linejoin="round" stroke-linecap="butt" stroke-dasharray="1.0,3.0" d="m749.6328 457.24957l0 -194.07874" fill-rule="evenodd"/><path fill="#000000" fill-opacity="0.0" d="m804.9506 457.24957l0 -194.07874" fill-rule="evenodd"/><path stroke="#414141" stroke-width="1.0" stroke-linejoin="round" stroke-linecap="butt" stroke-dasharray="1.0,3.0" d="m804.9506 457.24957l0 -194.07874" fill-rule="evenodd"/><path fill="#000000" fill-opacity="0.0" d="m860.26843 457.24957l0 -194.07874" fill-rule="evenodd"/><path stroke="#414141" stroke-width="1.0" stroke-linejoin="round" stroke-linecap="butt" stroke-dasharray="1.0,3.0" d="m860.26843 457.24957l0 -194.07874" fill-rule="evenodd"/></g></svg>