<svg version="1.1" viewBox="0.0 0.0 960.0 336.0" fill="none" stroke="none" stroke-linecap="square" stroke-miterlimit="10" xmlns:xlink="http://www.w3.org/1999/xlink" xmlns="http://www.w3.org/2000/svg"><clipPath id="g2156ec6f9ca_0_170.0"><path d="m0 0l960.0 0l0 336.0l-960.0 0l0 -336.0z" clip-rule="nonzero"/></clipPath><g clip-path="url(#g2156ec6f9ca_0_170.0)"><path fill="#ffffff" d="m0 0l960.0 0l0 336.0l-960.0 0z" fill-rule="evenodd"/><path fill="#000000" fill-opacity="0.0" d="m694.2586 18.846682l221.38495 0l0 287.79062l-221.38495 0z" fill-rule="evenodd"/><path stroke="#414141" stroke-width="1.0" stroke-linejoin="round" stroke-linecap="butt" d="m694.2586 18.846682l221.38495 0l0 287.79062l-221.38495 0z" fill-rule="evenodd"/><path fill="#414141" d="m694.0171 31.319605l221.38495 0l0 -12.474169l-221.38495 0z" fill-rule="evenodd"/><path fill="#000000" fill-opacity="0.0" d="m694.0171 31.319605l87.15027 0l0 77.941444l-87.15027 0z" fill-rule="evenodd"/><path fill="#414141" d="m735.4633 90.55032l-27.296875 0l0 -5.421875l12.890625 -13.71875q2.640625 -2.90625 3.90625 -5.0625q1.28125 -2.15625 1.28125 -4.093746q0 -2.65625 -1.34375 -4.171875q-1.328125 -1.515625 -3.828125 -1.515625q-2.671875 0 -4.21875 1.84375q-1.546875 1.84375 -1.546875 4.84375l-7.921875 0q0 -3.625 1.734375 -6.625q1.734375 -3.015625 4.90625 -4.71875q3.171875 -1.71875 7.1875 -1.71875q6.15625 0 9.5625 2.953125q3.40625 2.953125 3.40625 8.34375q0 2.9531212 -1.53125 6.015621q-1.53125 3.0625 -5.25 7.125l-9.0625 9.546875l17.125 0l0 6.375zm26.269531 -40.218746l0 6.5l-0.765625 0q-5.359375 0.078125 -8.625 2.796875q-3.265625 2.703125 -3.921875 7.515621q3.171875 -3.2343712 8.015625 -3.2343712q5.1875 0 8.25 3.7187462q3.0625 3.71875 3.0625 9.796875q0 3.875 -1.6875 7.03125q-1.671875 3.140625 -4.75 4.890625q-3.078125 1.75 -6.953125 1.75q-6.296875 0 -10.171875 -4.375q-3.859375 -4.375 -3.859375 -11.671875l0 -2.84375q0 -6.484375 2.4375 -11.437496q2.453125 -4.96875 7.03125 -7.6875q4.59375 -2.734375 10.625 -2.75l1.3125 0zm-7.703125 19.921871q-1.921875 0 -3.484375 1.0q-1.546875 1.0 -2.28125 2.640625l0 2.40625q0 3.96875 1.546875 6.203125q1.5625 2.21875 4.375 2.21875q2.546875 0 4.109375 -2.0q1.578125 -2.015625 1.578125 -5.21875q0 -3.25 -1.59375 -5.25q-1.578125 -2.0 -4.25 -2.0z" fill-rule="nonzero"/><path fill="#000000" fill-opacity="0.0" d="m701.1164 124.54964l38.14856 0l0 17.546402l-38.14856 0z" fill-rule="evenodd"/><path fill="#414141" d="m720.14813 130.87659l-2.140625 0l0 5.90625l-0.875 0l0 -5.90625l-2.125 0l0 -0.71875l5.140625 0l0 0.71875zm3.534607 5.90625l-0.859375 0l0 -5.609375l-1.6875 0.625l0 -0.765625l2.40625 -0.90625l0.140625 0l0 6.65625z" fill-rule="nonzero"/><path fill="#000000" fill-opacity="0.0" d="m758.31824 124.54964l38.14856 0l0 17.546402l-38.14856 0z" fill-rule="evenodd"/><path fill="#414141" d="m777.35 130.87659l-2.140625 0l0 5.90625l-0.875 0l0 -5.90625l-2.125 0l0 -0.71875l5.140625 0l0 0.71875zm5.097168 5.90625l-4.34375 0l0 -0.609375l2.296875 -2.546875q0.515625 -0.578125 0.703125 -0.9375q0.203125 -0.359375 0.203125 -0.75q0 -0.515625 -0.328125 -0.84375q-0.3125 -0.34375 -0.828125 -0.34375q-0.625 0 -0.984375 0.359375q-0.34375 0.359375 -0.34375 1.0l-0.84375 0q0 -0.921875 0.59375 -1.484375q0.59375 -0.5625 1.578125 -0.5625q0.921875 0 1.453125 0.484375q0.546875 0.484375 0.546875 1.28125q0 0.984375 -1.25 2.34375l-1.78125 1.921875l3.328125 0l0 0.6875z" fill-rule="nonzero"/><path fill="#000000" fill-opacity="0.0" d="m811.9889 124.54964l38.1485 0l0 17.546402l-38.1485 0z" fill-rule="evenodd"/><path fill="#414141" d="m831.02057 130.87659l-2.140625 0l0 5.90625l-0.875 0l0 -5.90625l-2.125 0l0 -0.71875l5.140625 0l0 0.71875zm1.987793 2.1875l0.625 0q0.59375 -0.015625 0.9375 -0.3125q0.34375 -0.3125 0.34375 -0.828125q0 -1.171875 -1.15625 -1.171875q-0.546875 0 -0.875 0.3125q-0.328125 0.3125 -0.328125 0.828125l-0.84375 0q0 -0.796875 0.578125 -1.3125q0.578125 -0.515625 1.46875 -0.515625q0.9375 0 1.46875 0.5q0.53125 0.484375 0.53125 1.375q0 0.4375 -0.28125 0.84375q-0.28125 0.390625 -0.765625 0.59375q0.546875 0.171875 0.84375 0.578125q0.296875 0.40625 0.296875 0.984375q0 0.890625 -0.578125 1.421875q-0.578125 0.515625 -1.515625 0.515625q-0.9375 0 -1.53125 -0.5q-0.578125 -0.515625 -0.578125 -1.34375l0.859375 0q0 0.53125 0.328125 0.84375q0.34375 0.3125 0.921875 0.3125q0.609375 0 0.9375 -0.3125q0.328125 -0.328125 0.328125 -0.921875q0 -0.578125 -0.359375 -0.890625q-0.359375 -0.3125 -1.03125 -0.3125l-0.625 0l0 -0.6875z" fill-rule="nonzero"/><path fill="#000000" fill-opacity="0.0" d="m870.1539 124.54964l38.14856 0l0 17.546402l-38.14856 0z" fill-rule="evenodd"/><path fill="#414141" d="m889.1856 130.87659l-2.140625 0l0 5.90625l-0.875 0l0 -5.90625l-2.125 0l0 -0.71875l5.140625 0l0 0.71875zm4.315857 3.671875l0.921875 0l0 0.6875l-0.921875 0l0 1.546875l-0.84375 0l0 -1.546875l-3.03125 0l0 -0.484375l2.984375 -4.59375l0.890625 0l0 4.390625zm-2.90625 0l2.0625 0l0 -3.25l-0.109375 0.1875l-1.953125 3.0625z" fill-rule="nonzero"/><path fill="#000000" fill-opacity="0.0" d="m749.63416 306.2502l0 -181.71591" fill-rule="evenodd"/><path stroke="#414141" stroke-width="1.0" stroke-linejoin="round" stroke-linecap="butt" stroke-dasharray="1.0,3.0" d="m749.63416 306.2502l0 -181.71591" fill-rule="evenodd"/><path fill="#000000" fill-opacity="0.0" d="m804.95197 306.2502l0 -181.71591" fill-rule="evenodd"/><path stroke="#414141" stroke-width="1.0" stroke-linejoin="round" stroke-linecap="butt" stroke-dasharray="1.0,3.0" d="m804.95197 306.2502l0 -181.71591" fill-rule="evenodd"/><path fill="#000000" fill-opacity="0.0" d="m860.2698 306.2502l0 -181.71591" fill-rule="evenodd"/><path stroke="#414141" stroke-width="1.0" stroke-linejoin="round" stroke-linecap="butt" stroke-dasharray="1.0,3.0" d="m860.2698 306.2502l0 -181.71591" fill-rule="evenodd"/><path fill="#000000" fill-opacity="0.0" d="m471.58405 18.84791l221.38495 0l0 287.79062l-221.38495 0z" fill-rule="evenodd"/><path stroke="#414141" stroke-width="1.0" stroke-linejoin="round" stroke-linecap="butt" d="m471.58405 18.84791l221.38495 0l0 287.79062l-221.38495 0z" fill-rule="evenodd"/><path fill="#414141" d="m471.58405 31.319605l221.38495 0l0 -12.474169l-221.38495 0z" fill-rule="evenodd"/><path fill="#000000" fill-opacity="0.0" d="m471.58405 31.319605l87.15021 0l0 77.941444l-87.15021 0z" fill-rule="evenodd"/><path fill="#414141" d="m513.0303 90.55032l-27.296906 0l0 -5.421875l12.890625 -13.71875q2.640625 -2.90625 3.90625 -5.0625q1.28125 -2.15625 1.28125 -4.093746q0 -2.65625 -1.34375 -4.171875q-1.328125 -1.515625 -3.828125 -1.515625q-2.671875 0 -4.21875 1.84375q-1.546875 1.84375 -1.546875 4.84375l-7.921875 0q0 -3.625 1.734375 -6.625q1.734375 -3.015625 4.90625 -4.71875q3.171875 -1.71875 7.1875 -1.71875q6.15625 0 9.5625 2.953125q3.40625 2.953125 3.40625 8.34375q0 2.9531212 -1.53125 6.015621q-1.53125 3.0625 -5.25 7.125l-9.0625 9.546875l17.12503 0l0 6.375zm6.0195312 -19.578125l2.296875 -20.234371l22.312439 0l0 6.59375l-15.843689 0l-0.984375 8.546871q2.828125 -1.5 6.0 -1.5q5.687439 0 8.906189 3.53125q3.234375 3.53125 3.234375 9.875q0 3.84375 -1.640625 6.90625q-1.625 3.046875 -4.65625 4.734375q-3.03125 1.671875 -7.156189 1.671875q-3.609375 0 -6.703125 -1.453125q-3.09375 -1.46875 -4.890625 -4.125q-1.78125 -2.65625 -1.890625 -6.046875l7.8125 0q0.25 2.484375 1.734375 3.875q1.5 1.375 3.90625 1.375q2.671875 0 4.124939 -1.921875q1.453125 -1.9375 1.453125 -5.453125q0 -3.390625 -1.671814 -5.1875q-1.671875 -1.8125 -4.734375 -1.8125q-2.8125 0 -4.5625 1.46875l-0.765625 0.71875l-6.28125 -1.5625z" fill-rule="nonzero"/><path fill="#000000" fill-opacity="0.0" d="m478.68332 124.54964l38.14853 0l0 17.546402l-38.14853 0z" fill-rule="evenodd"/><path fill="#414141" d="m497.71503 130.87659l-2.140625 0l0 5.90625l-0.875 0l0 -5.90625l-2.125 0l0 -0.71875l5.140625 0l0 0.71875zm3.534668 5.90625l-0.859375 0l0 -5.609375l-1.6875 0.625l0 -0.765625l2.40625 -0.90625l0.140625 0l0 6.65625z" fill-rule="nonzero"/><path fill="#000000" fill-opacity="0.0" d="m535.8852 124.54964l38.1485 0l0 17.546402l-38.1485 0z" fill-rule="evenodd"/><path fill="#414141" d="m554.9169 130.87659l-2.140625 0l0 5.90625l-0.875 0l0 -5.90625l-2.125 0l0 -0.71875l5.140625 0l0 0.71875zm5.097168 5.90625l-4.34375 0l0 -0.609375l2.296875 -2.546875q0.515625 -0.578125 0.703125 -0.9375q0.203125 -0.359375 0.203125 -0.75q0 -0.515625 -0.328125 -0.84375q-0.3125 -0.34375 -0.828125 -0.34375q-0.625 0 -0.984375 0.359375q-0.34375 0.359375 -0.34375 1.0l-0.84375 0q0 -0.921875 0.59375 -1.484375q0.59375 -0.5625 1.578125 -0.5625q0.921875 0 1.453125 0.484375q0.546875 0.484375 0.546875 1.28125q0 0.984375 -1.25 2.34375l-1.78125 1.921875l3.328125 0l0 0.6875z" fill-rule="nonzero"/><path fill="#000000" fill-opacity="0.0" d="m589.5558 124.54964l38.14856 0l0 17.546402l-38.14856 0z" fill-rule="evenodd"/><path fill="#414141" d="m608.5875 130.87659l-2.140625 0l0 5.90625l-0.875 0l0 -5.90625l-2.125 0l0 -0.71875l5.140625 0l0 0.71875zm1.9877319 2.1875l0.625 0q0.59375 -0.015625 0.9375 -0.3125q0.34375 -0.3125 0.34375 -0.828125q0 -1.171875 -1.15625 -1.171875q-0.546875 0 -0.875 0.3125q-0.328125 0.3125 -0.328125 0.828125l-0.84375 0q0 -0.796875 0.578125 -1.3125q0.578125 -0.515625 1.46875 -0.515625q0.9375 0 1.46875 0.5q0.53125 0.484375 0.53125 1.375q0 0.4375 -0.28125 0.84375q-0.28125 0.390625 -0.765625 0.59375q0.546875 0.171875 0.84375 0.578125q0.296875 0.40625 0.296875 0.984375q0 0.890625 -0.578125 1.421875q-0.578125 0.515625 -1.515625 0.515625q-0.9375 0 -1.53125 -0.5q-0.578125 -0.515625 -0.578125 -1.34375l0.859375 0q0 0.53125 0.328125 0.84375q0.34375 0.3125 0.921875 0.3125q0.609375 0 0.9375 -0.3125q0.328125 -0.328125 0.328125 -0.921875q0 -0.578125 -0.359375 -0.890625q-0.359375 -0.3125 -1.03125 -0.3125l-0.625 0l0 -0.6875z" fill-rule="nonzero"/><path fill="#000000" fill-opacity="0.0" d="m647.7208 124.54964l38.1485 0l0 17.546402l-38.1485 0z" fill-rule="evenodd"/><path fill="#414141" d="m666.7525 130.87659l-2.140625 0l0 5.90625l-0.875 0l0 -5.90625l-2.125 0l0 -0.71875l5.140625 0l0 0.71875zm4.315918 3.671875l0.921875 0l0 0.6875l-0.921875 0l0 1.546875l-0.84375 0l0 -1.546875l-3.03125 0l0 -0.484375l2.984375 -4.59375l0.890625 0l0 4.390625zm-2.90625 0l2.0625 0l0 -3.25l-0.109375 0.1875l-1.953125 3.0625z" fill-rule="nonzero"/><path fill="#000000" fill-opacity="0.0" d="m527.20105 306.2502l0 -181.71591" fill-rule="evenodd"/><path stroke="#414141" stroke-width="1.0" stroke-linejoin="round" stroke-linecap="butt" stroke-dasharray="1.0,3.0" d="m527.20105 306.2502l0 -181.71591" fill-rule="evenodd"/><path fill="#000000" fill-opacity="0.0" d="m582.51886 306.2502l0 -181.71591" fill-rule="evenodd"/><path stroke="#414141" stroke-width="1.0" stroke-linejoin="round" stroke-linecap="butt" stroke-dasharray="1.0,3.0" d="m582.51886 306.2502l0 -181.71591" fill-rule="evenodd"/><path fill="#000000" fill-opacity="0.0" d="m637.8367 306.2502l0 -181.71591" fill-rule="evenodd"/><path stroke="#414141" stroke-width="1.0" stroke-linejoin="round" stroke-linecap="butt" stroke-dasharray="1.0,3.0" d="m637.8367 306.2502l0 -181.71591" fill-rule="evenodd"/><path fill="#000000" fill-opacity="0.0" d="m249.15266 18.847683l221.38493 0l0 287.7906l-221.38493 0z" fill-rule="evenodd"/><path stroke="#3d3d3d" stroke-width="1.0" stroke-linejoin="round" stroke-linecap="butt" d="m249.15266 18.847683l221.38493 0l0 287.7906l-221.38493 0z" fill-rule="evenodd"/><path fill="#3d3d3d" d="m249.15266 31.319378l221.38493 0l0 -12.474171l-221.38493 0z" fill-rule="evenodd"/><path fill="#000000" fill-opacity="0.0" d="m249.15266 31.319378l87.15022 0l0 77.94145l-87.15022 0z" fill-rule="evenodd"/><path fill="#3d3d3d" d="m290.59888 90.550095l-27.296875 0l0 -5.421875l12.890625 -13.71875q2.640625 -2.90625 3.90625 -5.0625q1.28125 -2.15625 1.28125 -4.093746q0 -2.65625 -1.34375 -4.171875q-1.328125 -1.515625 -3.828125 -1.515625q-2.671875 0 -4.21875 1.84375q-1.546875 1.84375 -1.546875 4.84375l-7.921875 0q0 -3.625 1.734375 -6.625q1.734375 -3.015625 4.90625 -4.71875q3.171875 -1.71875 7.1875 -1.71875q6.15625 0 9.5625 2.953125q3.40625 2.953125 3.40625 8.34375q0 2.9531212 -1.53125 6.015621q-1.53125 3.0625 -5.25 7.125l-9.0625 9.546875l17.125 0l0 6.375zm28.222626 -14.984375l4.5 0l0 6.375l-4.5 0l0 8.609375l-7.9062195 0l0 -8.609375l-16.328125 0l-0.359375 -4.984375l16.609375 -26.218746l7.9843445 0l0 24.828121zm-16.71872 0l8.8125 0l0 -14.062496l-0.515625 0.90625l-8.296875 13.156246z" fill-rule="nonzero"/><path fill="#000000" fill-opacity="0.0" d="m256.25195 124.54941l38.14853 0l0 17.546402l-38.14853 0z" fill-rule="evenodd"/><path fill="#3d3d3d" d="m275.28366 130.87636l-2.140625 0l0 5.90625l-0.875 0l0 -5.90625l-2.125 0l0 -0.71875l5.140625 0l0 0.71875zm3.534668 5.90625l-0.859375 0l0 -5.609375l-1.6875 0.625l0 -0.765625l2.40625 -0.90625l0.140625 0l0 6.65625z" fill-rule="nonzero"/><path fill="#000000" fill-opacity="0.0" d="m313.45383 124.54941l38.14853 0l0 17.546402l-38.14853 0z" fill-rule="evenodd"/><path fill="#3d3d3d" d="m332.48553 130.87636l-2.140625 0l0 5.90625l-0.875 0l0 -5.90625l-2.125 0l0 -0.71875l5.140625 0l0 0.71875zm5.0971375 5.90625l-4.34375 0l0 -0.609375l2.296875 -2.546875q0.515625 -0.578125 0.703125 -0.9375q0.203125 -0.359375 0.203125 -0.75q0 -0.515625 -0.328125 -0.84375q-0.3125 -0.34375 -0.828125 -0.34375q-0.625 0 -0.984375 0.359375q-0.34375 0.359375 -0.34375 1.0l-0.84375 0q0 -0.921875 0.59375 -1.484375q0.59375 -0.5625 1.578125 -0.5625q0.921875 0 1.453125 0.484375q0.546875 0.484375 0.546875 1.28125q0 0.984375 -1.25 2.34375l-1.78125 1.921875l3.328125 0l0 0.6875z" fill-rule="nonzero"/><path fill="#000000" fill-opacity="0.0" d="m367.12442 124.54941l38.14853 0l0 17.546402l-38.14853 0z" fill-rule="evenodd"/><path fill="#3d3d3d" d="m386.15613 130.87636l-2.140625 0l0 5.90625l-0.875 0l0 -5.90625l-2.125 0l0 -0.71875l5.140625 0l0 0.71875zm1.9877625 2.1875l0.625 0q0.59375 -0.015625 0.9375 -0.3125q0.34375 -0.3125 0.34375 -0.828125q0 -1.171875 -1.15625 -1.171875q-0.546875 0 -0.875 0.3125q-0.328125 0.3125 -0.328125 0.828125l-0.84375 0q0 -0.796875 0.578125 -1.3125q0.578125 -0.515625 1.46875 -0.515625q0.9375 0 1.46875 0.5q0.53125 0.484375 0.53125 1.375q0 0.4375 -0.28125 0.84375q-0.28125 0.390625 -0.765625 0.59375q0.546875 0.171875 0.84375 0.578125q0.296875 0.40625 0.296875 0.984375q0 0.890625 -0.578125 1.421875q-0.578125 0.515625 -1.515625 0.515625q-0.9375 0 -1.53125 -0.5q-0.578125 -0.515625 -0.578125 -1.34375l0.859375 0q0 0.53125 0.328125 0.84375q0.34375 0.3125 0.921875 0.3125q0.609375 0 0.9375 -0.3125q0.328125 -0.328125 0.328125 -0.921875q0 -0.578125 -0.359375 -0.890625q-0.359375 -0.3125 -1.03125 -0.3125l-0.625 0l0 -0.6875z" fill-rule="nonzero"/><path fill="#000000" fill-opacity="0.0" d="m425.28943 124.54941l38.14853 0l0 17.546402l-38.14853 0z" fill-rule="evenodd"/><path fill="#3d3d3d" d="m444.32114 130.87636l-2.140625 0l0 5.90625l-0.875 0l0 -5.90625l-2.125 0l0 -0.71875l5.140625 0l0 0.71875zm4.3158875 3.671875l0.921875 0l0 0.6875l-0.921875 0l0 1.546875l-0.84375 0l0 -1.546875l-3.03125 0l0 -0.484375l2.984375 -4.59375l0.890625 0l0 4.390625zm-2.90625 0l2.0625 0l0 -3.25l-0.109375 0.1875l-1.953125 3.0625z" fill-rule="nonzero"/><path fill="#000000" fill-opacity="0.0" d="m304.76968 306.25l0 -181.68645" fill-rule="evenodd"/><path stroke="#3d3d3d" stroke-width="1.0" stroke-linejoin="round" stroke-linecap="butt" stroke-dasharray="1.0,3.0" d="m304.76968 306.25l0 -181.68645" fill-rule="evenodd"/><path fill="#000000" fill-opacity="0.0" d="m360.0875 306.25l0 -181.68645" fill-rule="evenodd"/><path stroke="#3d3d3d" stroke-width="1.0" stroke-linejoin="round" stroke-linecap="butt" stroke-dasharray="1.0,3.0" d="m360.0875 306.25l0 -181.68645" fill-rule="evenodd"/><path fill="#000000" fill-opacity="0.0" d="m415.4053 306.25l0 -181.68645" fill-rule="evenodd"/><path stroke="#3d3d3d" stroke-width="1.0" stroke-linejoin="round" stroke-linecap="butt" stroke-dasharray="1.0,3.0" d="m415.4053 306.25l0 -181.68645" fill-rule="evenodd"/><path fill="#000000" fill-opacity="0.0" d="m26.837284 18.84701l221.29912 0l0 287.7906l-221.29912 0z" fill-rule="evenodd"/><path stroke="#2f2f2f" stroke-width="1.0" stroke-linejoin="round" stroke-linecap="butt" d="m26.837284 18.84701l221.29912 0l0 287.7906l-221.29912 0z" fill-rule="evenodd"/><path fill="#2f2f2f" d="m26.837284 31.318705l221.29912 0l0 -12.474171l-221.29912 0z" fill-rule="evenodd"/><path fill="#000000" fill-opacity="0.0" d="m26.837284 31.318705l87.116425 0l0 77.941444l-87.116425 0z" fill-rule="evenodd"/><path fill="#2f2f2f" d="m68.266594 90.54942l-27.296879 0l0 -5.421875l12.890625 -13.71875q2.640625 -2.90625 3.90625 -5.0625q1.28125 -2.15625 1.28125 -4.09375q0 -2.65625 -1.34375 -4.171875q-1.328125 -1.515625 -3.828125 -1.515625q-2.671875 0 -4.21875 1.84375q-1.546875 1.84375 -1.546875 4.84375l-7.921875 0q0 -3.625 1.734375 -6.625q1.734375 -3.015625 4.90625 -4.71875q3.171875 -1.71875 7.1875 -1.71875q6.15625 0 9.5625 2.953125q3.4062538 2.953125 3.4062538 8.34375q0 2.953125 -1.53125 6.015625q-1.5312538 3.0625 -5.250004 7.125l-9.0625 9.546875l17.125004 0l0 6.375zm12.878906 -23.40625l4.203125 0q3.015625 0 4.453125 -1.5q1.453125 -1.515625 1.453125 -4.0q0 -2.40625 -1.4375 -3.734375q-1.421875 -1.34375 -3.9375 -1.34375q-2.28125 0 -3.8125 1.25q-1.53125 1.234375 -1.53125 3.234375l-7.890625 0q0 -3.125 1.671875 -5.59375q1.6875 -2.484375 4.703125 -3.875q3.03125 -1.390625 6.65625 -1.390625q6.328125 0 9.90625 3.03125q3.578125 3.015625 3.578125 8.3125q0 2.734375 -1.671875 5.03125q-1.65625 2.296875 -4.375 3.53125q3.375 1.203125 5.015625 3.609375q1.65625 2.40625 1.65625 5.6875q0 5.296875 -3.875 8.5q-3.859375 3.203125 -10.234375 3.203125q-5.953125 0 -9.75 -3.140625q-3.78125 -3.15625 -3.78125 -8.3125l7.90625 0q0 2.234375 1.671875 3.65625q1.6875 1.421875 4.15625 1.421875q2.8125 0 4.40625 -1.484375q1.609375 -1.5 1.609375 -3.953125q0 -5.96875 -6.5625 -5.96875l-4.1875 0l0 -6.171875z" fill-rule="nonzero"/><path fill="#000000" fill-opacity="0.0" d="m40.141315 124.548134l35.860004 0l0 17.54641l-35.860004 0z" fill-rule="evenodd"/><path fill="#2f2f2f" d="m58.028763 130.87509l-2.1406288 0l0 5.90625l-0.875 0l0 -5.90625l-2.125 0l0 -0.71875l5.140629 0l0 0.71875zm3.5346527 5.90625l-0.859375 0l0 -5.609375l-1.6875 0.625l0 -0.765625l2.40625 -0.90625l0.140625 0l0 6.65625z" fill-rule="nonzero"/><path fill="#000000" fill-opacity="0.0" d="m93.89345 124.548134l35.86 0l0 17.54641l-35.86 0z" fill-rule="evenodd"/><path fill="#2f2f2f" d="m111.78089 130.87509l-2.140625 0l0 5.90625l-0.875 0l0 -5.90625l-2.125 0l0 -0.71875l5.140625 0l0 0.71875zm5.0971527 5.90625l-4.34375 0l0 -0.609375l2.296875 -2.546875q0.515625 -0.578125 0.703125 -0.9375q0.203125 -0.359375 0.203125 -0.75q0 -0.515625 -0.328125 -0.84375q-0.3125 -0.34375 -0.828125 -0.34375q-0.625 0 -0.984375 0.359375q-0.34375 0.359375 -0.34375 1.0l-0.84375 0q0 -0.921875 0.59375 -1.484375q0.59375 -0.5625 1.578125 -0.5625q0.921875 0 1.453125 0.484375q0.546875 0.484375 0.546875 1.28125q0 0.984375 -1.25 2.34375l-1.78125 1.921875l3.328125 0l0 0.6875z" fill-rule="nonzero"/><path fill="#000000" fill-opacity="0.0" d="m144.32729 124.548134l35.86 0l0 17.54641l-35.86 0z" fill-rule="evenodd"/><path fill="#2f2f2f" d="m162.21472 130.87509l-2.140625 0l0 5.90625l-0.875 0l0 -5.90625l-2.125 0l0 -0.71875l5.140625 0l0 0.71875zm1.9877777 2.1875l0.625 0q0.59375 -0.015625 0.9375 -0.3125q0.34375 -0.3125 0.34375 -0.828125q0 -1.171875 -1.15625 -1.171875q-0.546875 0 -0.875 0.3125q-0.328125 0.3125 -0.328125 0.828125l-0.84375 0q0 -0.796875 0.578125 -1.3125q0.578125 -0.515625 1.46875 -0.515625q0.9375 0 1.46875 0.5q0.53125 0.484375 0.53125 1.375q0 0.4375 -0.28125 0.84375q-0.28125 0.390625 -0.765625 0.59375q0.546875 0.171875 0.84375 0.578125q0.296875 0.40625 0.296875 0.984375q0 0.890625 -0.578125 1.421875q-0.578125 0.515625 -1.515625 0.515625q-0.9375 0 -1.53125 -0.5q-0.578125 -0.515625 -0.578125 -1.34375l0.859375 0q0 0.53125 0.328125 0.84375q0.34375 0.3125 0.921875 0.3125q0.609375 0 0.9375 -0.3125q0.328125 -0.328125 0.328125 -0.921875q0 -0.578125 -0.359375 -0.890625q-0.359375 -0.3125 -1.03125 -0.3125l-0.625 0l0 -0.6875z" fill-rule="nonzero"/><path fill="#000000" fill-opacity="0.0" d="m198.98448 124.548134l35.86 0l0 17.54641l-35.86 0z" fill-rule="evenodd"/><path fill="#2f2f2f" d="m216.87193 130.87509l-2.140625 0l0 5.90625l-0.875 0l0 -5.90625l-2.125 0l0 -0.71875l5.140625 0l0 0.71875zm4.3159027 3.671875l0.921875 0l0 0.6875l-0.921875 0l0 1.546875l-0.84375 0l0 -1.546875l-3.03125 0l0 -0.484375l2.984375 -4.59375l0.890625 0l0 4.390625zm-2.90625 0l2.0625 0l0 -3.25l-0.109375 0.1875l-1.953125 3.0625z" fill-rule="nonzero"/><path fill="#000000" fill-opacity="0.0" d="m82.43275 306.24933l0 -181.68645" fill-rule="evenodd"/><path stroke="#2f2f2f" stroke-width="1.0" stroke-linejoin="round" stroke-linecap="butt" stroke-dasharray="1.0,3.0" d="m82.43275 306.24933l0 -181.68645" fill-rule="evenodd"/><path fill="#000000" fill-opacity="0.0" d="m137.7291 306.24933l0 -181.68645" fill-rule="evenodd"/><path stroke="#2f2f2f" stroke-width="1.0" stroke-linejoin="round" stroke-linecap="butt" stroke-dasharray="1.0,3.0" d="m137.7291 306.24933l0 -181.68645" fill-rule="evenodd"/><path fill="#000000" fill-opacity="0.0" d="m193.02547 306.24933l0 -181.68645" fill-rule="evenodd"/><path stroke="#2f2f2f" stroke-width="1.0" stroke-linejoin="round" stroke-linecap="butt" stroke-dasharray="1.0,3.0" d="m193.02547 306.24933l0 -181.68645" fill-rule="evenodd"/><path fill="#2f2f2f" d="m173.11942 179.54475l224.6929 0l0 20.377426l-224.6929 0z" fill-rule="evenodd"/><path fill="#ffffff" d="m208.07037 192.75348l2.4375 -7.03125l1.234375 0l-3.171875 8.53125l-0.984375 0l-3.15625 -8.53125l1.21875 0l2.421875 7.03125zm5.8222656 1.5l-1.078125 0l0 -6.34375l1.078125 0l0 6.34375zm-1.171875 -8.015625q0 -0.265625 0.15625 -0.453125q0.171875 -0.1875 0.484375 -0.1875q0.3125 0 0.46875 0.1875q0.171875 0.1875 0.171875 0.453125q0 0.25 -0.171875 0.4375q-0.15625 0.171875 -0.46875 0.171875q-0.3125 0 -0.484375 -0.171875q-0.15625 -0.1875 -0.15625 -0.4375zm3.9277344 1.671875l0.03125 0.796875q0.734375 -0.90625 1.90625 -0.90625q2.015625 0 2.03125 2.265625l0 4.1875l-1.09375 0l0 -4.203125q0 -0.671875 -0.3125 -1.0q-0.296875 -0.328125 -0.953125 -0.328125q-0.53125 0 -0.9375 0.28125q-0.390625 0.28125 -0.609375 0.734375l0 4.515625l-1.078125 0l0 -6.34375l1.015625 0zm8.136719 5.578125q0.578125 0 1.015625 -0.34375q0.4375 -0.359375 0.484375 -0.890625l1.03125 0q-0.03125 0.546875 -0.390625 1.046875q-0.34375 0.484375 -0.921875 0.78125q-0.5625 0.296875 -1.21875 0.296875q-1.296875 0 -2.0625 -0.859375q-0.75 -0.875 -0.75 -2.375l0 -0.1875q0 -0.921875 0.328125 -1.640625q0.34375 -0.71875 0.96875 -1.109375q0.640625 -0.40625 1.515625 -0.40625q1.0625 0 1.765625 0.640625q0.71875 0.625 0.765625 1.65625l-1.03125 0q-0.046875 -0.625 -0.46875 -1.015625q-0.421875 -0.390625 -1.03125 -0.390625q-0.828125 0 -1.28125 0.59375q-0.453125 0.59375 -0.453125 1.71875l0 0.203125q0 1.09375 0.453125 1.6875q0.453125 0.59375 1.28125 0.59375zm7.65625 0.140625q-0.625 0.75 -1.859375 0.75q-1.015625 0 -1.546875 -0.59375q-0.53125 -0.59375 -0.53125 -1.75l0 -4.125l1.078125 0l0 4.09375q0 1.453125 1.171875 1.453125q1.25 0 1.65625 -0.9375l0 -4.609375l1.09375 0l0 6.34375l-1.03125 0l-0.03125 -0.625zm3.8808594 0.625l-1.078125 0l0 -9.0l1.078125 0l0 9.0zm5.6464844 0q-0.09375 -0.1875 -0.15625 -0.671875q-0.75 0.796875 -1.796875 0.796875q-0.9375 0 -1.546875 -0.53125q-0.59375 -0.53125 -0.59375 -1.359375q0 -0.984375 0.75 -1.53125q0.75 -0.546875 2.125 -0.546875l1.046875 0l0 -0.5q0 -0.5625 -0.34375 -0.890625q-0.328125 -0.34375 -1.0 -0.34375q-0.578125 0 -0.96875 0.296875q-0.390625 0.28125 -0.390625 0.703125l-1.09375 0q0 -0.484375 0.328125 -0.921875q0.34375 -0.4375 0.921875 -0.6875q0.578125 -0.265625 1.265625 -0.265625q1.109375 0 1.71875 0.546875q0.625 0.546875 0.65625 1.5l0 2.921875q0 0.875 0.21875 1.390625l0 0.09375l-1.140625 0zm-1.796875 -0.828125q0.515625 0 0.96875 -0.265625q0.453125 -0.265625 0.65625 -0.6875l0 -1.296875l-0.84375 0q-2.0 0 -2.0 1.171875q0 0.5 0.34375 0.796875q0.34375 0.28125 0.875 0.28125zm6.9492188 0.0625q0.578125 0 1.015625 -0.34375q0.4375 -0.359375 0.484375 -0.890625l1.03125 0q-0.03125 0.546875 -0.390625 1.046875q-0.34375 0.484375 -0.921875 0.78125q-0.5625 0.296875 -1.21875 0.296875q-1.296875 0 -2.0625 -0.859375q-0.75 -0.875 -0.75 -2.375l0 -0.1875q0 -0.921875 0.328125 -1.640625q0.34375 -0.71875 0.96875 -1.109375q0.640625 -0.40625 1.515625 -0.40625q1.0625 0 1.765625 0.640625q0.71875 0.625 0.765625 1.65625l-1.03125 0q-0.046875 -0.625 -0.46875 -1.015625q-0.421875 -0.390625 -1.03125 -0.390625q-0.828125 0 -1.28125 0.59375q-0.453125 0.59375 -0.453125 1.71875l0 0.203125q0 1.09375 0.453125 1.6875q0.453125 0.59375 1.28125 0.59375zm4.921875 0.765625l-1.078125 0l0 -6.34375l1.078125 0l0 6.34375zm-1.171875 -8.015625q0 -0.265625 0.15625 -0.453125q0.171875 -0.1875 0.484375 -0.1875q0.3125 0 0.46875 0.1875q0.171875 0.1875 0.171875 0.453125q0 0.25 -0.171875 0.4375q-0.15625 0.171875 -0.46875 0.171875q-0.3125 0 -0.484375 -0.171875q-0.15625 -0.1875 -0.15625 -0.4375zm2.6152344 4.78125q0 -0.921875 0.359375 -1.671875q0.375 -0.75 1.03125 -1.140625q0.65625 -0.40625 1.484375 -0.40625q1.296875 0 2.09375 0.890625q0.8125 0.890625 0.8125 2.390625l0 0.078125q0 0.921875 -0.359375 1.65625q-0.359375 0.734375 -1.015625 1.15625q-0.65625 0.40625 -1.515625 0.40625q-1.28125 0 -2.09375 -0.890625q-0.796875 -0.90625 -0.796875 -2.390625l0 -0.078125zm1.09375 0.140625q0 1.046875 0.484375 1.6875q0.5 0.640625 1.3125 0.640625q0.828125 0 1.3125 -0.640625q0.484375 -0.65625 0.484375 -1.828125q0 -1.03125 -0.5 -1.671875q-0.484375 -0.65625 -1.3125 -0.65625q-0.796875 0 -1.296875 0.640625q-0.484375 0.625 -0.484375 1.828125zm2.28125 -5.90625l1.3125 0l-1.578125 1.71875l-0.875 0l1.140625 -1.71875zm4.78125 2.65625l0.03125 0.796875q0.734375 -0.90625 1.90625 -0.90625q2.015625 0 2.03125 2.265625l0 4.1875l-1.09375 0l0 -4.203125q0 -0.671875 -0.3125 -1.0q-0.296875 -0.328125 -0.953125 -0.328125q-0.53125 0 -0.9375 0.28125q-0.390625 0.28125 -0.609375 0.734375l0 4.515625l-1.078125 0l0 -6.34375l1.015625 0zm8.310547 3.125q0 -1.46875 0.6875 -2.34375q0.6875 -0.890625 1.8125 -0.890625q1.109375 0 1.765625 0.75l0 -3.296875l1.078125 0l0 9.0l-1.0 0l-0.046875 -0.6875q-0.65625 0.8125 -1.8125 0.8125q-1.09375 0 -1.796875 -0.90625q-0.6875 -0.90625 -0.6875 -2.359375l0 -0.078125zm1.078125 0.125q0 1.078125 0.4375 1.6875q0.453125 0.609375 1.234375 0.609375q1.03125 0 1.515625 -0.9375l0 -2.90625q-0.484375 -0.890625 -1.5 -0.890625q-0.796875 0 -1.25 0.609375q-0.4375 0.609375 -0.4375 1.828125zm8.580078 3.21875q-1.296875 0 -2.109375 -0.84375q-0.796875 -0.859375 -0.796875 -2.28125l0 -0.1875q0 -0.953125 0.359375 -1.6875q0.359375 -0.75 1.0 -1.15625q0.65625 -0.421875 1.40625 -0.421875q1.234375 0 1.921875 0.8125q0.6875 0.8125 0.6875 2.328125l0 0.453125l-4.296875 0q0.03125 0.9375 0.546875 1.515625q0.53125 0.578125 1.34375 0.578125q0.5625 0 0.953125 -0.234375q0.40625 -0.234375 0.71875 -0.625l0.65625 0.515625q-0.796875 1.234375 -2.390625 1.234375zm-0.140625 -5.6875q-0.65625 0 -1.109375 0.484375q-0.4375 0.46875 -0.53125 1.328125l3.171875 0l0 -0.078125q-0.046875 -0.828125 -0.453125 -1.28125q-0.390625 -0.453125 -1.078125 -0.453125zm12.203125 2.46875q0 1.453125 -0.671875 2.34375q-0.65625 0.875 -1.78125 0.875q-1.203125 0 -1.859375 -0.859375l-0.0625 0.734375l-0.984375 0l0 -9.0l1.078125 0l0 3.359375q0.65625 -0.8125 1.8125 -0.8125q1.15625 0 1.8125 0.875q0.65625 0.859375 0.65625 2.390625l0 0.09375zm-1.078125 -0.125q0 -1.109375 -0.4375 -1.703125q-0.421875 -0.609375 -1.21875 -0.609375q-1.078125 0 -1.546875 0.984375l0 2.75q0.5 1.0 1.546875 1.0q0.78125 0 1.21875 -0.609375q0.4375 -0.609375 0.4375 -1.8125zm6.357422 3.21875q-0.09375 -0.1875 -0.15625 -0.671875q-0.75 0.796875 -1.796875 0.796875q-0.9375 0 -1.546875 -0.53125q-0.59375 -0.53125 -0.59375 -1.359375q0 -0.984375 0.75 -1.53125q0.75 -0.546875 2.125 -0.546875l1.046875 0l0 -0.5q0 -0.5625 -0.34375 -0.890625q-0.328125 -0.34375 -1.0 -0.34375q-0.578125 0 -0.96875 0.296875q-0.390625 0.28125 -0.390625 0.703125l-1.09375 0q0 -0.484375 0.328125 -0.921875q0.34375 -0.4375 0.921875 -0.6875q0.578125 -0.265625 1.265625 -0.265625q1.109375 0 1.71875 0.546875q0.625 0.546875 0.65625 1.5l0 2.921875q0 0.875 0.21875 1.390625l0 0.09375l-1.140625 0zm-1.796875 -0.828125q0.515625 0 0.96875 -0.265625q0.453125 -0.265625 0.65625 -0.6875l0 -1.296875l-0.84375 0q-2.0 0 -2.0 1.171875q0 0.5 0.34375 0.796875q0.34375 0.28125 0.875 0.28125zm8.105469 -0.859375q0 -0.4375 -0.34375 -0.671875q-0.328125 -0.25 -1.15625 -0.421875q-0.8125 -0.171875 -1.296875 -0.421875q-0.484375 -0.25 -0.71875 -0.578125q-0.21875 -0.34375 -0.21875 -0.8125q0 -0.78125 0.65625 -1.3125q0.65625 -0.546875 1.6875 -0.546875q1.078125 0 1.734375 0.5625q0.671875 0.546875 0.671875 1.40625l-1.078125 0q0 -0.4375 -0.390625 -0.75q-0.375 -0.328125 -0.9375 -0.328125q-0.59375 0 -0.9375 0.265625q-0.328125 0.25 -0.328125 0.65625q0 0.390625 0.3125 0.59375q0.3125 0.203125 1.125 0.390625q0.8125 0.171875 1.3125 0.421875q0.5 0.25 0.734375 0.609375q0.25 0.359375 0.25 0.859375q0 0.859375 -0.6875 1.375q-0.671875 0.515625 -1.75 0.515625q-0.765625 0 -1.359375 -0.265625q-0.578125 -0.28125 -0.90625 -0.765625q-0.328125 -0.484375 -0.328125 -1.046875l1.078125 0q0.03125 0.546875 0.4375 0.875q0.40625 0.3125 1.078125 0.3125q0.609375 0 0.984375 -0.25q0.375 -0.25 0.375 -0.671875zm5.125 1.8125q-1.296875 0 -2.109375 -0.84375q-0.796875 -0.859375 -0.796875 -2.28125l0 -0.1875q0 -0.953125 0.359375 -1.6875q0.359375 -0.75 1.0 -1.15625q0.65625 -0.421875 1.40625 -0.421875q1.234375 0 1.921875 0.8125q0.6875 0.8125 0.6875 2.328125l0 0.453125l-4.296875 0q0.03125 0.9375 0.546875 1.515625q0.53125 0.578125 1.34375 0.578125q0.5625 0 0.953125 -0.234375q0.40625 -0.234375 0.71875 -0.625l0.65625 0.515625q-0.796875 1.234375 -2.390625 1.234375zm-0.140625 -5.6875q-0.65625 0 -1.109375 0.484375q-0.4375 0.46875 -0.53125 1.328125l3.171875 0l0 -0.078125q-0.046875 -0.828125 -0.453125 -1.28125q-0.390625 -0.453125 -1.078125 -0.453125zm7.560547 3.875q0 -0.4375 -0.34375 -0.671875q-0.328125 -0.25 -1.15625 -0.421875q-0.8125 -0.171875 -1.296875 -0.421875q-0.484375 -0.25 -0.71875 -0.578125q-0.21875 -0.34375 -0.21875 -0.8125q0 -0.78125 0.65625 -1.3125q0.65625 -0.546875 1.6875 -0.546875q1.078125 0 1.734375 0.5625q0.671875 0.546875 0.671875 1.40625l-1.078125 0q0 -0.4375 -0.390625 -0.75q-0.375 -0.328125 -0.9375 -0.328125q-0.59375 0 -0.9375 0.265625q-0.328125 0.25 -0.328125 0.65625q0 0.390625 0.3125 0.59375q0.3125 0.203125 1.125 0.390625q0.8125 0.171875 1.3125 0.421875q0.5 0.25 0.734375 0.609375q0.25 0.359375 0.25 0.859375q0 0.859375 -0.6875 1.375q-0.671875 0.515625 -1.75 0.515625q-0.765625 0 -1.359375 -0.265625q-0.578125 -0.28125 -0.90625 -0.765625q-0.328125 -0.484375 -0.328125 -1.046875l1.078125 0q0.03125 0.546875 0.4375 0.875q0.40625 0.3125 1.078125 0.3125q0.609375 0 0.984375 -0.25q0.375 -0.25 0.375 -0.671875zm5.205078 -1.53125q0 -1.46875 0.6875 -2.34375q0.6875 -0.890625 1.8125 -0.890625q1.109375 0 1.765625 0.75l0 -3.296875l1.078125 0l0 9.0l-1.0 0l-0.046875 -0.6875q-0.65625 0.8125 -1.8125 0.8125q-1.09375 0 -1.796875 -0.90625q-0.6875 -0.90625 -0.6875 -2.359375l0 -0.078125zm1.078125 0.125q0 1.078125 0.4375 1.6875q0.453125 0.609375 1.234375 0.609375q1.03125 0 1.515625 -0.9375l0 -2.90625q-0.484375 -0.890625 -1.5 -0.890625q-0.796875 0 -1.25 0.609375q-0.4375 0.609375 -0.4375 1.828125zm8.580078 3.21875q-1.296875 0 -2.109375 -0.84375q-0.796875 -0.859375 -0.796875 -2.28125l0 -0.1875q0 -0.953125 0.359375 -1.6875q0.359375 -0.75 1.0 -1.15625q0.65625 -0.421875 1.40625 -0.421875q1.234375 0 1.921875 0.8125q0.6875 0.8125 0.6875 2.328125l0 0.453125l-4.296875 0q0.03125 0.9375 0.546875 1.515625q0.53125 0.578125 1.34375 0.578125q0.5625 0 0.953125 -0.234375q0.40625 -0.234375 0.71875 -0.625l0.65625 0.515625q-0.796875 1.234375 -2.390625 1.234375zm-0.140625 -5.6875q-0.65625 0 -1.109375 0.484375q-0.4375 0.46875 -0.53125 1.328125l3.171875 0l0 -0.078125q-0.046875 -0.828125 -0.453125 -1.28125q-0.390625 -0.453125 -1.078125 -0.453125zm6.578125 2.34375q0 -1.46875 0.6875 -2.34375q0.6875 -0.890625 1.8125 -0.890625q1.109375 0 1.765625 0.75l0 -3.296875l1.078125 0l0 9.0l-1.0 0l-0.046875 -0.6875q-0.65625 0.8125 -1.8125 0.8125q-1.09375 0 -1.796875 -0.90625q-0.6875 -0.90625 -0.6875 -2.359375l0 -0.078125zm1.078125 0.125q0 1.078125 0.4375 1.6875q0.453125 0.609375 1.234375 0.609375q1.03125 0 1.515625 -0.9375l0 -2.90625q-0.484375 -0.890625 -1.5 -0.890625q-0.796875 0 -1.25 0.609375q-0.4375 0.609375 -0.4375 1.828125zm9.861328 3.09375q-0.09375 -0.1875 -0.15625 -0.671875q-0.75 0.796875 -1.796875 0.796875q-0.9375 0 -1.546875 -0.53125q-0.59375 -0.53125 -0.59375 -1.359375q0 -0.984375 0.75 -1.53125q0.75 -0.546875 2.125 -0.546875l1.046875 0l0 -0.5q0 -0.5625 -0.34375 -0.890625q-0.328125 -0.34375 -1.0 -0.34375q-0.578125 0 -0.96875 0.296875q-0.390625 0.28125 -0.390625 0.703125l-1.09375 0q0 -0.484375 0.328125 -0.921875q0.34375 -0.4375 0.921875 -0.6875q0.578125 -0.265625 1.265625 -0.265625q1.109375 0 1.71875 0.546875q0.625 0.546875 0.65625 1.5l0 2.921875q0 0.875 0.21875 1.390625l0 0.09375l-1.140625 0zm-1.796875 -0.828125q0.515625 0 0.96875 -0.265625q0.453125 -0.265625 0.65625 -0.6875l0 -1.296875l-0.84375 0q-2.0 0 -2.0 1.171875q0 0.5 0.34375 0.796875q0.34375 0.28125 0.875 0.28125zm5.8867188 -7.046875l0 1.53125l1.171875 0l0 0.84375l-1.171875 0l0 3.921875q0 0.390625 0.15625 0.578125q0.15625 0.1875 0.53125 0.1875q0.1875 0 0.515625 -0.0625l0 0.875q-0.421875 0.125 -0.828125 0.125q-0.71875 0 -1.09375 -0.4375q-0.375 -0.453125 -0.375 -1.265625l0 -3.921875l-1.15625 0l0 -0.84375l1.15625 0l0 -1.53125l1.09375 0zm2.0371094 4.640625q0 -0.921875 0.359375 -1.671875q0.375 -0.75 1.03125 -1.140625q0.65625 -0.40625 1.484375 -0.40625q1.296875 0 2.09375 0.890625q0.8125 0.890625 0.8125 2.390625l0 0.078125q0 0.921875 -0.359375 1.65625q-0.359375 0.734375 -1.015625 1.15625q-0.65625 0.40625 -1.515625 0.40625q-1.28125 0 -2.09375 -0.890625q-0.796875 -0.90625 -0.796875 -2.390625l0 -0.078125zm1.09375 0.140625q0 1.046875 0.484375 1.6875q0.5 0.640625 1.3125 0.640625q0.828125 0 1.3125 -0.640625q0.484375 -0.65625 0.484375 -1.828125q0 -1.03125 -0.5 -1.671875q-0.484375 -0.65625 -1.3125 -0.65625q-0.796875 0 -1.296875 0.640625q-0.484375 0.625 -0.484375 1.828125zm9.734375 1.40625q0 -0.4375 -0.34375 -0.671875q-0.328125 -0.25 -1.15625 -0.421875q-0.8125 -0.171875 -1.296875 -0.421875q-0.484375 -0.25 -0.71875 -0.578125q-0.21875 -0.34375 -0.21875 -0.8125q0 -0.78125 0.65625 -1.3125q0.65625 -0.546875 1.6875 -0.546875q1.078125 0 1.734375 0.5625q0.671875 0.546875 0.671875 1.40625l-1.078125 0q0 -0.4375 -0.390625 -0.75q-0.375 -0.328125 -0.9375 -0.328125q-0.59375 0 -0.9375 0.265625q-0.328125 0.25 -0.328125 0.65625q0 0.390625 0.3125 0.59375q0.3125 0.203125 1.125 0.390625q0.8125 0.171875 1.3125 0.421875q0.5 0.25 0.734375 0.609375q0.25 0.359375 0.25 0.859375q0 0.859375 -0.6875 1.375q-0.671875 0.515625 -1.75 0.515625q-0.765625 0 -1.359375 -0.265625q-0.578125 -0.28125 -0.90625 -0.765625q-0.328125 -0.484375 -0.328125 -1.046875l1.078125 0q0.03125 0.546875 0.4375 0.875q0.40625 0.3125 1.078125 0.3125q0.609375 0 0.984375 -0.25q0.375 -0.25 0.375 -0.671875z" fill-rule="nonzero"/><path fill="#414141" d="m528.2454 243.09029l164.72437 0l0 20.377426l-164.72437 0z" fill-rule="evenodd"/><path fill="#ffffff" d="m536.7605 254.37587l0 3.7031403l-1.25 0l0 -9.468765l3.5 0q1.5625 0 2.4375 0.796875q0.875 0.78125 0.875 2.09375q0 1.375 -0.859375 2.125q-0.859375 0.75 -2.46875 0.75l-2.234375 0zm0 -1.03125l2.25 0q1.0 0 1.53125 -0.46875q0.546875 -0.46875 0.546875 -1.359375q0 -0.84375 -0.546875 -1.34375q-0.53125 -0.515625 -1.453125 -0.546875l-2.328125 0l0 3.71875zm10.376892 -1.234375q-0.265625 -0.03125 -0.59375 -0.03125q-1.1875 0 -1.609375 1.0l0 5.0000153l-1.203125 0l0 -7.0468903l1.171875 0l0.03125 0.8125q0.578125 -0.9375 1.671875 -0.9375q0.34375 0 0.53125 0.09375l0 1.109375zm3.9019165 6.0937653q-1.421875 0 -2.328125 -0.9375q-0.890625 -0.9375 -0.890625 -2.5156403l0 -0.21875q0 -1.046875 0.390625 -1.859375q0.40625 -0.828125 1.125 -1.296875q0.71875 -0.46875 1.5625 -0.46875q1.375 0 2.125 0.90625q0.765625 0.90625 0.765625 2.59375l0 0.5l-4.765625 0q0.015625 1.03125 0.59375 1.6718903q0.59375 0.640625 1.484375 0.640625q0.640625 0 1.078125 -0.25q0.453125 -0.265625 0.78125 -0.6875l0.734375 0.5625q-0.875 1.359375 -2.65625 1.359375zm-0.140625 -6.3125153q-0.734375 0 -1.234375 0.53125q-0.484375 0.53125 -0.609375 1.484375l3.53125 0l0 -0.078125q-0.046875 -0.921875 -0.5 -1.421875q-0.4375 -0.515625 -1.1875 -0.515625zm10.23291 2.75q0 1.6093903 -0.734375 2.5937653q-0.734375 0.96875 -2.0 0.96875q-1.28125 0 -2.015625 -0.8125l0 3.390625l-1.203125 0l0 -9.750015l1.109375 0l0.046875 0.78125q0.75 -0.90625 2.046875 -0.90625q1.265625 0 2.0 0.953125q0.75 0.953125 0.75 2.671875l0 0.109375zm-1.203125 -0.140625q0 -1.1875 -0.515625 -1.875q-0.5 -0.703125 -1.390625 -0.703125q-1.09375 0 -1.640625 0.96875l0 3.3750153q0.546875 0.953125 1.65625 0.953125q0.875 0 1.375 -0.671875q0.515625 -0.68751526 0.515625 -2.0468903zm7.086914 3.5781403q-0.109375 -0.203125 -0.171875 -0.734375q-0.84375 0.859375 -2.015625 0.859375q-1.03125 0 -1.703125 -0.578125q-0.671875 -0.59375 -0.671875 -1.5q0 -1.0937653 0.828125 -1.7031403q0.84375 -0.609375 2.359375 -0.609375l1.171875 0l0 -0.5625q0 -0.625 -0.375 -1.0q-0.375 -0.375 -1.109375 -0.375q-0.640625 0 -1.078125 0.328125q-0.4375 0.328125 -0.4375 0.78125l-1.203125 0q0 -0.515625 0.359375 -1.0q0.375 -0.5 1.015625 -0.78125q0.65625 -0.296875 1.421875 -0.296875q1.21875 0 1.90625 0.609375q0.6875 0.609375 0.71875 1.671875l0 3.2500153q0 0.96875 0.234375 1.53125l0 0.109375l-1.25 0zm-2.0 -0.921875q0.5625 0 1.0625 -0.28125q0.515625 -0.296875 0.734375 -0.765625l0 -1.4531403l-0.9375 0q-2.21875 0 -2.21875 1.296875q0 0.56251526 0.375 0.89064026q0.390625 0.3125 0.984375 0.3125zm8.296692 -5.0468903q-0.265625 -0.03125 -0.59375 -0.03125q-1.1875 0 -1.609375 1.0l0 5.0000153l-1.203125 0l0 -7.0468903l1.171875 0l0.03125 0.8125q0.578125 -0.9375 1.671875 -0.9375q0.34375 0 0.53125 0.09375l0 1.109375zm5.2026367 5.9687653q-0.109375 -0.203125 -0.171875 -0.734375q-0.84375 0.859375 -2.015625 0.859375q-1.03125 0 -1.703125 -0.578125q-0.671875 -0.59375 -0.671875 -1.5q0 -1.0937653 0.828125 -1.7031403q0.84375 -0.609375 2.359375 -0.609375l1.171875 0l0 -0.5625q0 -0.625 -0.375 -1.0q-0.375 -0.375 -1.109375 -0.375q-0.640625 0 -1.078125 0.328125q-0.4375 0.328125 -0.4375 0.78125l-1.203125 0q0 -0.515625 0.359375 -1.0q0.375 -0.5 1.015625 -0.78125q0.65625 -0.296875 1.421875 -0.296875q1.21875 0 1.90625 0.609375q0.6875 0.609375 0.71875 1.671875l0 3.2500153q0 0.96875 0.234375 1.53125l0 0.109375l-1.25 0zm-2.0 -0.921875q0.5625 0 1.0625 -0.28125q0.515625 -0.296875 0.734375 -0.765625l0 -1.4531403l-0.9375 0q-2.21875 0 -2.21875 1.296875q0 0.56251526 0.375 0.89064026q0.390625 0.3125 0.984375 0.3125zm7.718506 0.0625q0.640625 0 1.125 -0.390625q0.484375 -0.390625 0.53125 -0.96876526l1.140625 0q-0.03125 0.60939026 -0.421875 1.1562653q-0.375 0.546875 -1.015625 0.875q-0.640625 0.3125 -1.359375 0.3125q-1.4375 0 -2.296875 -0.953125q-0.84375 -0.96875 -0.84375 -2.6250153l0 -0.203125q0 -1.03125 0.375 -1.828125q0.390625 -0.796875 1.09375 -1.234375q0.703125 -0.453125 1.671875 -0.453125q1.171875 0 1.953125 0.71875q0.796875 0.703125 0.84375 1.828125l-1.140625 0q-0.046875 -0.671875 -0.515625 -1.109375q-0.46875 -0.453125 -1.140625 -0.453125q-0.921875 0 -1.4375 0.671875q-0.5 0.65625 -0.5 1.90625l0 0.21875q0 1.21875 0.5 1.8750153q0.515625 0.65625 1.4375 0.65625zm5.4608154 0.859375l-1.203125 0l0 -7.0468903l1.203125 0l0 7.0468903zm-1.296875 -8.906265q0 -0.296875 0.171875 -0.5q0.1875 -0.203125 0.53125 -0.203125q0.359375 0 0.53125 0.203125q0.1875 0.203125 0.1875 0.5q0 0.296875 -0.1875 0.5q-0.171875 0.1875 -0.53125 0.1875q-0.34375 0 -0.53125 -0.1875q-0.171875 -0.203125 -0.171875 -0.5zm2.906311 5.328125q0 -1.046875 0.40625 -1.875q0.40625 -0.828125 1.125 -1.265625q0.734375 -0.453125 1.65625 -0.453125q1.4375 0 2.328125 1.0q0.890625 0.984375 0.890625 2.640625l0 0.09375q0 1.015625 -0.390625 1.8437653q-0.390625 0.8125 -1.125 1.265625q-0.734375 0.453125 -1.6875 0.453125q-1.421875 0 -2.3125 -0.984375q-0.890625 -1.0 -0.890625 -2.6406403l0 -0.078125zm1.203125 0.140625q0 1.171875 0.546875 1.8750153q0.546875 0.703125 1.453125 0.703125q0.921875 0 1.453125 -0.71875q0.546875 -0.71876526 0.546875 -2.0000153q0 -1.171875 -0.546875 -1.890625q-0.546875 -0.71875 -1.46875 -0.71875q-0.890625 0 -1.4375 0.71875q-0.546875 0.703125 -0.546875 2.03125zm2.546875 -6.5625l1.453125 0l-1.75 1.921875l-0.96875 0l1.265625 -1.921875zm5.3043213 2.953125l0.046875 0.890625q0.796875 -1.015625 2.109375 -1.015625q2.234375 0 2.25 2.515625l0 4.6562653l-1.203125 0l0 -4.6562653q-0.015625 -0.765625 -0.359375 -1.125q-0.328125 -0.375 -1.0625 -0.375q-0.578125 0 -1.03125 0.3125q-0.4375 0.3125 -0.6875 0.828125l0 5.0156403l-1.203125 0l0 -7.0468903l1.140625 0zm10.653381 0l0.03125 0.78125q0.765625 -0.90625 2.09375 -0.90625q1.46875 0 2.0 1.125q0.359375 -0.5 0.921875 -0.8125q0.5625 -0.3125 1.328125 -0.3125q2.3125 0 2.359375 2.453125l0 4.7187653l-1.203125 0l0 -4.6406403q0 -0.765625 -0.34375 -1.140625q-0.34375 -0.375 -1.171875 -0.375q-0.65625 0 -1.109375 0.40625q-0.4375 0.40625 -0.515625 1.078125l0 4.6718903l-1.203125 0l0 -4.6093903q0 -1.546875 -1.5 -1.546875q-1.1875 0 -1.625 1.015625l0 5.1406403l-1.203125 0l0 -7.0468903l1.140625 0zm14.900391 7.0468903q-0.109375 -0.203125 -0.171875 -0.734375q-0.84375 0.859375 -2.015625 0.859375q-1.03125 0 -1.703125 -0.578125q-0.671875 -0.59375 -0.671875 -1.5q0 -1.0937653 0.828125 -1.7031403q0.84375 -0.609375 2.359375 -0.609375l1.171875 0l0 -0.5625q0 -0.625 -0.375 -1.0q-0.375 -0.375 -1.109375 -0.375q-0.640625 0 -1.078125 0.328125q-0.4375 0.328125 -0.4375 0.78125l-1.203125 0q0 -0.515625 0.359375 -1.0q0.375 -0.5 1.015625 -0.78125q0.65625 -0.296875 1.421875 -0.296875q1.21875 0 1.90625 0.609375q0.6875 0.609375 0.71875 1.671875l0 3.2500153q0 0.96875 0.234375 1.53125l0 0.109375l-1.25 0zm-2.0 -0.921875q0.5625 0 1.0625 -0.28125q0.515625 -0.296875 0.734375 -0.765625l0 -1.4531403l-0.9375 0q-2.21875 0 -2.21875 1.296875q0 0.56251526 0.375 0.89064026q0.390625 0.3125 0.984375 0.3125zm6.031067 -6.1250153l0.046875 0.890625q0.796875 -1.015625 2.109375 -1.015625q2.234375 0 2.25 2.515625l0 4.6562653l-1.203125 0l0 -4.6562653q-0.015625 -0.765625 -0.359375 -1.125q-0.328125 -0.375 -1.0625 -0.375q-0.578125 0 -1.03125 0.3125q-0.4375 0.3125 -0.6875 0.828125l0 5.0156403l-1.203125 0l0 -7.0468903l1.140625 0zm10.572632 6.3437653q-0.703125 0.828125 -2.0625 0.828125q-1.140625 0 -1.734375 -0.640625q-0.578125 -0.65625 -0.578125 -1.9375153l0 -4.59375l1.203125 0l0 4.546875q0 1.6093903 1.296875 1.6093903q1.375 0 1.828125 -1.03125l0 -5.1250153l1.21875 0l0 7.0468903l-1.15625 0l-0.015625 -0.703125zm7.097412 -1.171875q0 -0.48439026 -0.375 -0.75001526q-0.359375 -0.265625 -1.28125 -0.453125q-0.90625 -0.203125 -1.453125 -0.46875q-0.53125 -0.28125 -0.796875 -0.65625q-0.25 -0.390625 -0.25 -0.90625q0 -0.859375 0.734375 -1.453125q0.734375 -0.609375 1.875 -0.609375q1.1875 0 1.9375 0.625q0.75 0.609375 0.75 1.578125l-1.21875 0q0 -0.5 -0.421875 -0.859375q-0.421875 -0.359375 -1.046875 -0.359375q-0.65625 0 -1.03125 0.296875q-0.375 0.28125 -0.375 0.75q0 0.421875 0.34375 0.65625q0.34375 0.21875 1.25 0.421875q0.90625 0.203125 1.453125 0.484375q0.5625 0.265625 0.828125 0.671875q0.28125 0.390625 0.28125 0.95314026q0 0.9375 -0.765625 1.515625q-0.75 0.5625 -1.953125 0.5625q-0.84375 0 -1.5 -0.296875q-0.640625 -0.296875 -1.015625 -0.828125q-0.359375 -0.546875 -0.359375 -1.1718903l1.203125 0q0.03125 0.60939026 0.484375 0.96876526q0.453125 0.34375 1.1875 0.34375q0.6875 0 1.09375 -0.265625q0.421875 -0.28125 0.421875 -0.75zm5.5910645 1.015625q0.640625 0 1.125 -0.390625q0.484375 -0.390625 0.53125 -0.96876526l1.140625 0q-0.03125 0.60939026 -0.421875 1.1562653q-0.375 0.546875 -1.015625 0.875q-0.640625 0.3125 -1.359375 0.3125q-1.4375 0 -2.296875 -0.953125q-0.84375 -0.96875 -0.84375 -2.6250153l0 -0.203125q0 -1.03125 0.375 -1.828125q0.390625 -0.796875 1.09375 -1.234375q0.703125 -0.453125 1.671875 -0.453125q1.171875 0 1.953125 0.71875q0.796875 0.703125 0.84375 1.828125l-1.140625 0q-0.046875 -0.671875 -0.515625 -1.109375q-0.46875 -0.453125 -1.140625 -0.453125q-0.921875 0 -1.4375 0.671875q-0.5 0.65625 -0.5 1.90625l0 0.21875q0 1.21875 0.5 1.8750153q0.515625 0.65625 1.4375 0.65625zm7.5545654 -5.1093903q-0.265625 -0.03125 -0.59375 -0.03125q-1.1875 0 -1.609375 1.0l0 5.0000153l-1.203125 0l0 -7.0468903l1.171875 0l0.03125 0.8125q0.578125 -0.9375 1.671875 -0.9375q0.34375 0 0.53125 0.09375l0 1.109375zm2.4161987 5.9687653l-1.203125 0l0 -7.0468903l1.203125 0l0 7.0468903zm-1.296875 -8.906265q0 -0.296875 0.171875 -0.5q0.1875 -0.203125 0.53125 -0.203125q0.359375 0 0.53125 0.203125q0.1875 0.203125 0.1875 0.5q0 0.296875 -0.1875 0.5q-0.171875 0.1875 -0.53125 0.1875q-0.34375 0 -0.53125 -0.1875q-0.171875 -0.203125 -0.171875 -0.5zm4.859436 0.15625l0 1.703125l1.3125 0l0 0.9375l-1.3125 0l0 4.3593903q0 0.421875 0.171875 0.640625q0.171875 0.21875 0.59375 0.21875q0.21875 0 0.578125 -0.078125l0 0.96875q-0.46875 0.125 -0.921875 0.125q-0.8125 0 -1.21875 -0.484375q-0.40625 -0.484375 -0.40625 -1.390625l0 -4.3593903l-1.28125 0l0 -0.9375l1.28125 0l0 -1.703125l1.203125 0zm2.2704468 5.171875q0 -1.046875 0.40625 -1.875q0.40625 -0.828125 1.125 -1.265625q0.734375 -0.453125 1.65625 -0.453125q1.4375 0 2.328125 1.0q0.890625 0.984375 0.890625 2.640625l0 0.09375q0 1.015625 -0.390625 1.8437653q-0.390625 0.8125 -1.125 1.265625q-0.734375 0.453125 -1.6875 0.453125q-1.421875 0 -2.3125 -0.984375q-0.890625 -1.0 -0.890625 -2.6406403l0 -0.078125zm1.203125 0.140625q0 1.171875 0.546875 1.8750153q0.546875 0.703125 1.453125 0.703125q0.921875 0 1.453125 -0.71875q0.546875 -0.71876526 0.546875 -2.0000153q0 -1.171875 -0.546875 -1.890625q-0.546875 -0.71875 -1.46875 -0.71875q-0.890625 0 -1.4375 0.71875q-0.546875 0.703125 -0.546875 2.03125zm16.10382 3.4375153l-6.21875 0l0 -0.859375l3.28125 -3.6562653q0.734375 -0.828125 1.0 -1.34375q0.28125 -0.515625 0.28125 -1.0625q0 -0.75 -0.453125 -1.21875q-0.4375 -0.46875 -1.1875 -0.46875q-0.890625 0 -1.390625 0.515625q-0.5 0.5 -0.5 1.40625l-1.203125 0q0 -1.296875 0.84375 -2.109375q0.84375 -0.8125 2.25 -0.8125q1.328125 0 2.09375 0.703125q0.765625 0.6875 0.765625 1.84375q0 1.390625 -1.78125 3.328125l-2.546875 2.7500153l4.765625 0l0 0.984375z" fill-rule="nonzero"/><path fill="#464646" d="m693.89874 275.21448l57.637817 0l0 20.37741l-57.637817 0z" fill-rule="evenodd"/><path fill="#ffffff" d="m699.40686 290.2032l0 -9.46875l2.6875 0q1.234375 0 2.171875 0.546875q0.953125 0.546875 1.46875 1.5625q0.53125 1.0 0.53125 2.296875l0 0.609375q0 1.34375 -0.515625 2.359375q-0.515625 1.0 -1.484375 1.546875q-0.953125 0.53125 -2.234375 0.546875l-2.625 0zm1.25 -8.453125l0 7.4375l1.3125 0q1.453125 0 2.25 -0.890625q0.8125 -0.90625 0.8125 -2.578125l0 -0.546875q0 -1.609375 -0.765625 -2.5q-0.75 -0.90625 -2.140625 -0.921875l-1.46875 0zm10.224487 8.578125q-1.421875 0 -2.328125 -0.9375q-0.890625 -0.9375 -0.890625 -2.515625l0 -0.21875q0 -1.046875 0.390625 -1.859375q0.40625 -0.828125 1.125 -1.296875q0.71875 -0.46875 1.5625 -0.46875q1.375 0 2.125 0.90625q0.765625 0.90625 0.765625 2.59375l0 0.5l-4.765625 0q0.015625 1.03125 0.59375 1.671875q0.59375 0.640625 1.484375 0.640625q0.640625 0 1.078125 -0.25q0.453125 -0.265625 0.78125 -0.6875l0.734375 0.5625q-0.875 1.359375 -2.65625 1.359375zm-0.140625 -6.3125q-0.734375 0 -1.234375 0.53125q-0.484375 0.53125 -0.609375 1.484375l3.53125 0l0 -0.078125q-0.046875 -0.921875 -0.5 -1.421875q-0.4375 -0.515625 -1.1875 -0.515625zm4.873535 6.1875l0 -6.109375l-1.109375 0l0 -0.9375l1.109375 0l0 -0.71875q0 -1.125 0.609375 -1.734375q0.609375 -0.625 1.703125 -0.625q0.421875 0 0.828125 0.109375l-0.0625 0.96875q-0.296875 -0.0625 -0.640625 -0.0625q-0.59375 0 -0.921875 0.34375q-0.3125 0.34375 -0.3125 0.984375l0 0.734375l1.5 0l0 0.9375l-1.5 0l0 6.109375l-1.203125 0zm6.799011 0.125q-1.421875 0 -2.328125 -0.9375q-0.890625 -0.9375 -0.890625 -2.515625l0 -0.21875q0 -1.046875 0.390625 -1.859375q0.40625 -0.828125 1.125 -1.296875q0.71875 -0.46875 1.5625 -0.46875q1.375 0 2.125 0.90625q0.765625 0.90625 0.765625 2.59375l0 0.5l-4.765625 0q0.015625 1.03125 0.59375 1.671875q0.59375 0.640625 1.484375 0.640625q0.640625 0 1.078125 -0.25q0.453125 -0.265625 0.78125 -0.6875l0.734375 0.5625q-0.875 1.359375 -2.65625 1.359375zm-0.140625 -6.3125q-0.734375 0 -1.234375 0.53125q-0.484375 0.53125 -0.609375 1.484375l3.53125 0l0 -0.078125q-0.046875 -0.921875 -0.5 -1.421875q-0.4375 -0.515625 -1.1875 -0.515625zm5.42041 -0.859375l0.046875 0.890625q0.796875 -1.015625 2.109375 -1.015625q2.234375 0 2.25 2.515625l0 4.65625l-1.203125 0l0 -4.65625q-0.015625 -0.765625 -0.359375 -1.125q-0.328125 -0.375 -1.0625 -0.375q-0.578125 0 -1.03125 0.3125q-0.4375 0.3125 -0.6875 0.828125l0 5.015625l-1.203125 0l0 -7.046875l1.140625 0zm10.322632 5.171875q0 -0.484375 -0.375 -0.75q-0.359375 -0.265625 -1.28125 -0.453125q-0.90625 -0.203125 -1.453125 -0.46875q-0.53125 -0.28125 -0.796875 -0.65625q-0.25 -0.390625 -0.25 -0.90625q0 -0.859375 0.734375 -1.453125q0.734375 -0.609375 1.875 -0.609375q1.1875 0 1.9375 0.625q0.75 0.609375 0.75 1.578125l-1.21875 0q0 -0.5 -0.421875 -0.859375q-0.421875 -0.359375 -1.046875 -0.359375q-0.65625 0 -1.03125 0.296875q-0.375 0.28125 -0.375 0.75q0 0.421875 0.34375 0.65625q0.34375 0.21875 1.25 0.421875q0.90625 0.203125 1.453125 0.484375q0.5625 0.265625 0.828125 0.671875q0.28125 0.390625 0.28125 0.953125q0 0.9375 -0.765625 1.515625q-0.75 0.5625 -1.953125 0.5625q-0.84375 0 -1.5 -0.296875q-0.640625 -0.296875 -1.015625 -0.828125q-0.359375 -0.546875 -0.359375 -1.171875l1.203125 0q0.03125 0.609375 0.484375 0.96875q0.453125 0.34375 1.1875 0.34375q0.6875 0 1.09375 -0.265625q0.421875 -0.28125 0.421875 -0.75zm7.1223145 1.875q-0.109375 -0.203125 -0.171875 -0.734375q-0.84375 0.859375 -2.015625 0.859375q-1.03125 0 -1.703125 -0.578125q-0.671875 -0.59375 -0.671875 -1.5q0 -1.09375 0.828125 -1.703125q0.84375 -0.609375 2.359375 -0.609375l1.171875 0l0 -0.5625q0 -0.625 -0.375 -1.0q-0.375 -0.375 -1.109375 -0.375q-0.640625 0 -1.078125 0.328125q-0.4375 0.328125 -0.4375 0.78125l-1.203125 0q0 -0.515625 0.359375 -1.0q0.375 -0.5 1.015625 -0.78125q0.65625 -0.296875 1.421875 -0.296875q1.21875 0 1.90625 0.609375q0.6875 0.609375 0.71875 1.671875l0 3.25q0 0.96875 0.234375 1.53125l0 0.109375l-1.25 0zm-2.0 -0.921875q0.5625 0 1.0625 -0.28125q0.515625 -0.296875 0.734375 -0.765625l0 -1.453125l-0.9375 0q-2.21875 0 -2.21875 1.296875q0 0.5625 0.375 0.890625q0.390625 0.3125 0.984375 0.3125z" fill-rule="nonzero"/><path fill="#3d3d3d" d="m381.7257 211.31752l146.51971 0l0 20.377426l-146.51971 0z" fill-rule="evenodd"/><path fill="#ffffff" d="m388.4963 222.68248l0 3.34375l-1.125 0l0 -8.53125l3.15625 0q1.390625 0 2.1875 0.71875q0.796875 0.703125 0.796875 1.890625q0 1.234375 -0.78125 1.90625q-0.765625 0.671875 -2.21875 0.671875l-2.015625 0zm0 -0.921875l2.03125 0q0.90625 0 1.375 -0.421875q0.484375 -0.421875 0.484375 -1.21875q0 -0.765625 -0.484375 -1.21875q-0.46875 -0.46875 -1.3125 -0.484375l-2.09375 0l0 3.34375zm9.3515625 -1.109375q-0.25 -0.03125 -0.53125 -0.03125q-1.078125 0 -1.453125 0.90625l0 4.5l-1.078125 0l0 -6.34375l1.046875 0l0.015625 0.734375q0.53125 -0.84375 1.515625 -0.84375q0.3125 0 0.484375 0.078125l0 1.0zm3.5117188 5.5q-1.296875 0 -2.109375 -0.84375q-0.796875 -0.859375 -0.796875 -2.28125l0 -0.1875q0 -0.953125 0.359375 -1.6875q0.359375 -0.75 1.0 -1.15625q0.65625 -0.421875 1.40625 -0.421875q1.234375 0 1.921875 0.8125q0.6875 0.8125 0.6875 2.328125l0 0.453125l-4.296875 0q0.03125 0.9375 0.546875 1.515625q0.53125 0.578125 1.34375 0.578125q0.5625 0 0.953125 -0.234375q0.40625 -0.234375 0.71875 -0.625l0.65625 0.515625q-0.796875 1.234375 -2.390625 1.234375zm-0.140625 -5.6875q-0.65625 0 -1.109375 0.484375q-0.4375 0.46875 -0.53125 1.328125l3.171875 0l0 -0.078125q-0.046875 -0.828125 -0.453125 -1.28125q-0.390625 -0.453125 -1.078125 -0.453125zm9.216797 2.46875q0 1.4375 -0.65625 2.328125q-0.65625 0.890625 -1.796875 0.890625q-1.15625 0 -1.8125 -0.734375l0 3.046875l-1.078125 0l0 -8.78125l0.984375 0l0.046875 0.703125q0.671875 -0.8125 1.84375 -0.8125q1.140625 0 1.796875 0.859375q0.671875 0.859375 0.671875 2.390625l0 0.109375zm-1.078125 -0.125q0 -1.078125 -0.46875 -1.6875q-0.453125 -0.625 -1.25 -0.625q-0.984375 0 -1.46875 0.859375l0 3.03125q0.484375 0.875 1.484375 0.875q0.78125 0 1.234375 -0.609375q0.46875 -0.625 0.46875 -1.84375zm6.373047 3.21875q-0.09375 -0.1875 -0.15625 -0.671875q-0.75 0.796875 -1.796875 0.796875q-0.9375 0 -1.546875 -0.53125q-0.59375 -0.53125 -0.59375 -1.359375q0 -0.984375 0.75 -1.53125q0.75 -0.546875 2.125 -0.546875l1.046875 0l0 -0.5q0 -0.5625 -0.34375 -0.890625q-0.328125 -0.34375 -1.0 -0.34375q-0.578125 0 -0.96875 0.296875q-0.390625 0.28125 -0.390625 0.703125l-1.09375 0q0 -0.484375 0.328125 -0.921875q0.34375 -0.4375 0.921875 -0.6875q0.578125 -0.265625 1.265625 -0.265625q1.109375 0 1.71875 0.546875q0.625 0.546875 0.65625 1.5l0 2.921875q0 0.875 0.21875 1.390625l0 0.09375l-1.140625 0zm-1.796875 -0.828125q0.515625 0 0.96875 -0.265625q0.453125 -0.265625 0.65625 -0.6875l0 -1.296875l-0.84375 0q-2.0 0 -2.0 1.171875q0 0.5 0.34375 0.796875q0.34375 0.28125 0.875 0.28125zm7.4804688 -4.546875q-0.25 -0.03125 -0.53125 -0.03125q-1.078125 0 -1.453125 0.90625l0 4.5l-1.078125 0l0 -6.34375l1.046875 0l0.015625 0.734375q0.53125 -0.84375 1.515625 -0.84375q0.3125 0 0.484375 0.078125l0 1.0zm4.669922 5.375q-0.09375 -0.1875 -0.15625 -0.671875q-0.75 0.796875 -1.796875 0.796875q-0.9375 0 -1.546875 -0.53125q-0.59375 -0.53125 -0.59375 -1.359375q0 -0.984375 0.75 -1.53125q0.75 -0.546875 2.125 -0.546875l1.046875 0l0 -0.5q0 -0.5625 -0.34375 -0.890625q-0.328125 -0.34375 -1.0 -0.34375q-0.578125 0 -0.96875 0.296875q-0.390625 0.28125 -0.390625 0.703125l-1.09375 0q0 -0.484375 0.328125 -0.921875q0.34375 -0.4375 0.921875 -0.6875q0.578125 -0.265625 1.265625 -0.265625q1.109375 0 1.71875 0.546875q0.625 0.546875 0.65625 1.5l0 2.921875q0 0.875 0.21875 1.390625l0 0.09375l-1.140625 0zm-1.796875 -0.828125q0.515625 0 0.96875 -0.265625q0.453125 -0.265625 0.65625 -0.6875l0 -1.296875l-0.84375 0q-2.0 0 -2.0 1.171875q0 0.5 0.34375 0.796875q0.34375 0.28125 0.875 0.28125zm6.9492188 0.0625q0.578125 0 1.015625 -0.34375q0.4375 -0.359375 0.484375 -0.890625l1.03125 0q-0.03125 0.546875 -0.390625 1.046875q-0.34375 0.484375 -0.921875 0.78125q-0.5625 0.296875 -1.21875 0.296875q-1.296875 0 -2.0625 -0.859375q-0.75 -0.875 -0.75 -2.375l0 -0.1875q0 -0.921875 0.328125 -1.640625q0.34375 -0.71875 0.96875 -1.109375q0.640625 -0.40625 1.515625 -0.40625q1.0625 0 1.765625 0.640625q0.71875 0.625 0.765625 1.65625l-1.03125 0q-0.046875 -0.625 -0.46875 -1.015625q-0.421875 -0.390625 -1.03125 -0.390625q-0.828125 0 -1.28125 0.59375q-0.453125 0.59375 -0.453125 1.71875l0 0.203125q0 1.09375 0.453125 1.6875q0.453125 0.59375 1.28125 0.59375zm4.921875 0.765625l-1.078125 0l0 -6.34375l1.078125 0l0 6.34375zm-1.171875 -8.015625q0 -0.265625 0.15625 -0.453125q0.171875 -0.1875 0.484375 -0.1875q0.3125 0 0.46875 0.1875q0.171875 0.1875 0.171875 0.453125q0 0.25 -0.171875 0.4375q-0.15625 0.171875 -0.46875 0.171875q-0.3125 0 -0.484375 -0.171875q-0.15625 -0.1875 -0.15625 -0.4375zm2.6152344 4.78125q0 -0.921875 0.359375 -1.671875q0.375 -0.75 1.03125 -1.140625q0.65625 -0.40625 1.484375 -0.40625q1.296875 0 2.09375 0.890625q0.8125 0.890625 0.8125 2.390625l0 0.078125q0 0.921875 -0.359375 1.65625q-0.359375 0.734375 -1.015625 1.15625q-0.65625 0.40625 -1.515625 0.40625q-1.28125 0 -2.09375 -0.890625q-0.796875 -0.90625 -0.796875 -2.390625l0 -0.078125zm1.09375 0.140625q0 1.046875 0.484375 1.6875q0.5 0.640625 1.3125 0.640625q0.828125 0 1.3125 -0.640625q0.484375 -0.65625 0.484375 -1.828125q0 -1.03125 -0.5 -1.671875q-0.484375 -0.65625 -1.3125 -0.65625q-0.796875 0 -1.296875 0.640625q-0.484375 0.625 -0.484375 1.828125zm2.28125 -5.90625l1.3125 0l-1.578125 1.71875l-0.875 0l1.140625 -1.71875zm4.78125 2.65625l0.03125 0.796875q0.734375 -0.90625 1.90625 -0.90625q2.015625 0 2.03125 2.265625l0 4.1875l-1.09375 0l0 -4.203125q0 -0.671875 -0.3125 -1.0q-0.296875 -0.328125 -0.953125 -0.328125q-0.53125 0 -0.9375 0.28125q-0.390625 0.28125 -0.609375 0.734375l0 4.515625l-1.078125 0l0 -6.34375l1.015625 0zm9.591797 0l0.03125 0.703125q0.6875 -0.8125 1.875 -0.8125q1.328125 0 1.8125 1.015625q0.3125 -0.453125 0.8125 -0.734375q0.515625 -0.28125 1.203125 -0.28125q2.09375 0 2.125 2.203125l0 4.25l-1.078125 0l0 -4.1875q0 -0.671875 -0.3125 -1.0q-0.3125 -0.34375 -1.046875 -0.34375q-0.609375 0 -1.015625 0.359375q-0.390625 0.359375 -0.453125 0.96875l0 4.203125l-1.078125 0l0 -4.15625q0 -1.375 -1.359375 -1.375q-1.0625 0 -1.453125 0.90625l0 4.625l-1.09375 0l0 -6.34375l1.03125 0zm13.408203 6.34375q-0.09375 -0.1875 -0.15625 -0.671875q-0.75 0.796875 -1.796875 0.796875q-0.9375 0 -1.546875 -0.53125q-0.59375 -0.53125 -0.59375 -1.359375q0 -0.984375 0.75 -1.53125q0.75 -0.546875 2.125 -0.546875l1.046875 0l0 -0.5q0 -0.5625 -0.34375 -0.890625q-0.328125 -0.34375 -1.0 -0.34375q-0.578125 0 -0.96875 0.296875q-0.390625 0.28125 -0.390625 0.703125l-1.09375 0q0 -0.484375 0.328125 -0.921875q0.34375 -0.4375 0.921875 -0.6875q0.578125 -0.265625 1.265625 -0.265625q1.109375 0 1.71875 0.546875q0.625 0.546875 0.65625 1.5l0 2.921875q0 0.875 0.21875 1.390625l0 0.09375l-1.140625 0zm-1.796875 -0.828125q0.515625 0 0.96875 -0.265625q0.453125 -0.265625 0.65625 -0.6875l0 -1.296875l-0.84375 0q-2.0 0 -2.0 1.171875q0 0.5 0.34375 0.796875q0.34375 0.28125 0.875 0.28125zm5.4335938 -5.515625l0.03125 0.796875q0.734375 -0.90625 1.90625 -0.90625q2.015625 0 2.03125 2.265625l0 4.1875l-1.09375 0l0 -4.203125q0 -0.671875 -0.3125 -1.0q-0.296875 -0.328125 -0.953125 -0.328125q-0.53125 0 -0.9375 0.28125q-0.390625 0.28125 -0.609375 0.734375l0 4.515625l-1.078125 0l0 -6.34375l1.015625 0zm9.511719 5.71875q-0.625 0.75 -1.859375 0.75q-1.015625 0 -1.546875 -0.59375q-0.53125 -0.59375 -0.53125 -1.75l0 -4.125l1.078125 0l0 4.09375q0 1.453125 1.171875 1.453125q1.25 0 1.65625 -0.9375l0 -4.609375l1.09375 0l0 6.34375l-1.03125 0l-0.03125 -0.625zm6.3964844 -1.0625q0 -0.4375 -0.34375 -0.671875q-0.328125 -0.25 -1.15625 -0.421875q-0.8125 -0.171875 -1.296875 -0.421875q-0.484375 -0.25 -0.71875 -0.578125q-0.21875 -0.34375 -0.21875 -0.8125q0 -0.78125 0.65625 -1.3125q0.65625 -0.546875 1.6875 -0.546875q1.078125 0 1.734375 0.5625q0.671875 0.546875 0.671875 1.40625l-1.078125 0q0 -0.4375 -0.390625 -0.75q-0.375 -0.328125 -0.9375 -0.328125q-0.59375 0 -0.9375 0.265625q-0.328125 0.25 -0.328125 0.65625q0 0.390625 0.3125 0.59375q0.3125 0.203125 1.125 0.390625q0.8125 0.171875 1.3125 0.421875q0.5 0.25 0.734375 0.609375q0.25 0.359375 0.25 0.859375q0 0.859375 -0.6875 1.375q-0.671875 0.515625 -1.75 0.515625q-0.765625 0 -1.359375 -0.265625q-0.578125 -0.28125 -0.90625 -0.765625q-0.328125 -0.484375 -0.328125 -1.046875l1.078125 0q0.03125 0.546875 0.4375 0.875q0.40625 0.3125 1.078125 0.3125q0.609375 0 0.984375 -0.25q0.375 -0.25 0.375 -0.671875zm5.03125 0.921875q0.578125 0 1.015625 -0.34375q0.4375 -0.359375 0.484375 -0.890625l1.03125 0q-0.03125 0.546875 -0.390625 1.046875q-0.34375 0.484375 -0.921875 0.78125q-0.5625 0.296875 -1.21875 0.296875q-1.296875 0 -2.0625 -0.859375q-0.75 -0.875 -0.75 -2.375l0 -0.1875q0 -0.921875 0.328125 -1.640625q0.34375 -0.71875 0.96875 -1.109375q0.640625 -0.40625 1.515625 -0.40625q1.0625 0 1.765625 0.640625q0.71875 0.625 0.765625 1.65625l-1.03125 0q-0.046875 -0.625 -0.46875 -1.015625q-0.421875 -0.390625 -1.03125 -0.390625q-0.828125 0 -1.28125 0.59375q-0.453125 0.59375 -0.453125 1.71875l0 0.203125q0 1.09375 0.453125 1.6875q0.453125 0.59375 1.28125 0.59375zm6.8125 -4.609375q-0.25 -0.03125 -0.53125 -0.03125q-1.078125 0 -1.453125 0.90625l0 4.5l-1.078125 0l0 -6.34375l1.046875 0l0.015625 0.734375q0.53125 -0.84375 1.515625 -0.84375q0.3125 0 0.484375 0.078125l0 1.0zm2.1699219 5.375l-1.078125 0l0 -6.34375l1.078125 0l0 6.34375zm-1.171875 -8.015625q0 -0.265625 0.15625 -0.453125q0.171875 -0.1875 0.484375 -0.1875q0.3125 0 0.46875 0.1875q0.171875 0.1875 0.171875 0.453125q0 0.25 -0.171875 0.4375q-0.15625 0.171875 -0.46875 0.171875q-0.3125 0 -0.484375 -0.171875q-0.15625 -0.1875 -0.15625 -0.4375zm4.3808594 0.140625l0 1.53125l1.171875 0l0 0.84375l-1.171875 0l0 3.921875q0 0.390625 0.15625 0.578125q0.15625 0.1875 0.53125 0.1875q0.1875 0 0.515625 -0.0625l0 0.875q-0.421875 0.125 -0.828125 0.125q-0.71875 0 -1.09375 -0.4375q-0.375 -0.453125 -0.375 -1.265625l0 -3.921875l-1.15625 0l0 -0.84375l1.15625 0l0 -1.53125l1.09375 0zm2.0371094 4.640625q0 -0.921875 0.359375 -1.671875q0.375 -0.75 1.03125 -1.140625q0.65625 -0.40625 1.484375 -0.40625q1.296875 0 2.0937195 0.890625q0.8125 0.890625 0.8125 2.390625l0 0.078125q0 0.921875 -0.359375 1.65625q-0.359375 0.734375 -1.0155945 1.15625q-0.65625 0.40625 -1.515625 0.40625q-1.28125 0 -2.09375 -0.890625q-0.796875 -0.90625 -0.796875 -2.390625l0 -0.078125zm1.09375 0.140625q0 1.046875 0.484375 1.6875q0.5 0.640625 1.3125 0.640625q0.828125 0 1.3125 -0.640625q0.48434448 -0.65625 0.48434448 -1.828125q0 -1.03125 -0.49996948 -1.671875q-0.484375 -0.65625 -1.3125 -0.65625q-0.796875 0 -1.296875 0.640625q-0.484375 0.625 -0.484375 1.828125zm12.455048 3.09375l-1.078125 0l0 -7.21875l-2.1875 0.796875l0 -0.984375l3.109375 -1.171875l0.15625 0l0 8.578125z" fill-rule="nonzero"/><path fill="#505050" d="m744.716 331.63867l2.236206 -5.669281l2.236267 5.669281z" fill-rule="evenodd"/><path fill="#505050" d="m469.00464 331.63867l2.236206 -5.669281l2.2362366 5.669281z" fill-rule="evenodd"/></g></svg>